<svg xmlns="http://www.w3.org/2000/svg" xmlns:xlink="http://www.w3.org/1999/xlink" width="862" zoomAndPan="magnify" viewBox="0 0 646.5 562.499983" height="750" preserveAspectRatio="xMidYMid meet" version="1.0"><defs><clipPath id="054e743f51"><path d="M 0.0390625 0 L 645.964844 0 L 645.964844 562 L 0.0390625 562 Z M 0.0390625 0 " clip-rule="nonzero"/></clipPath><clipPath id="db3b9665c1"><path d="M 230.074219 260.035156 L 272.066406 260.035156 L 272.066406 302.027344 L 230.074219 302.027344 Z M 230.074219 260.035156 " clip-rule="nonzero"/></clipPath><clipPath id="3bacf3adbe"><path d="M 374.324219 260.035156 L 416.316406 260.035156 L 416.316406 302.027344 L 374.324219 302.027344 Z M 374.324219 260.035156 " clip-rule="nonzero"/></clipPath><clipPath id="1da186a641"><path d="M 292.371094 250.828125 L 353.863281 250.828125 L 353.863281 312.320312 L 292.371094 312.320312 Z M 292.371094 250.828125 " clip-rule="nonzero"/></clipPath><clipPath id="1a749e4686"><path d="M 146.605469 401.089844 L 188.601562 401.089844 L 188.601562 443.085938 L 146.605469 443.085938 Z M 146.605469 401.089844 " clip-rule="nonzero"/></clipPath><clipPath id="975b18d42f"><path d="M 89.894531 333.171875 L 124.390625 333.171875 L 124.390625 367.667969 L 89.894531 367.667969 Z M 89.894531 333.171875 " clip-rule="nonzero"/></clipPath><clipPath id="bbb50b240b"><path d="M 35.5 296.402344 L 69.996094 296.402344 L 69.996094 330.898438 L 35.5 330.898438 Z M 35.5 296.402344 " clip-rule="nonzero"/></clipPath><clipPath id="2042314a50"><path d="M 35.5 371.441406 L 69.996094 371.441406 L 69.996094 405.9375 L 35.5 405.9375 Z M 35.5 371.441406 " clip-rule="nonzero"/></clipPath><clipPath id="323d18e7c7"><path d="M 89.894531 474.511719 L 124.390625 474.511719 L 124.390625 509.007812 L 89.894531 509.007812 Z M 89.894531 474.511719 " clip-rule="nonzero"/></clipPath><clipPath id="0d3f06b49a"><path d="M 35.5 437.742188 L 69.996094 437.742188 L 69.996094 472.238281 L 35.5 472.238281 Z M 35.5 437.742188 " clip-rule="nonzero"/></clipPath><clipPath id="dab72da4b7"><path d="M 35.5 512.78125 L 69.996094 512.78125 L 69.996094 547.277344 L 35.5 547.277344 Z M 35.5 512.78125 " clip-rule="nonzero"/></clipPath><clipPath id="15f0cf6b02"><path d="M 457.488281 120.699219 L 499.480469 120.699219 L 499.480469 162.695312 L 457.488281 162.695312 Z M 457.488281 120.699219 " clip-rule="nonzero"/></clipPath><clipPath id="9a8be0d418"><path d="M 521.695312 196.125 L 556.191406 196.125 L 556.191406 230.621094 L 521.695312 230.621094 Z M 521.695312 196.125 " clip-rule="nonzero"/></clipPath><clipPath id="e0ee0ec930"><path d="M 576.089844 232.894531 L 610.585938 232.894531 L 610.585938 267.390625 L 576.089844 267.390625 Z M 576.089844 232.894531 " clip-rule="nonzero"/></clipPath><clipPath id="6406c41d14"><path d="M 576.089844 157.855469 L 610.585938 157.855469 L 610.585938 192.351562 L 576.089844 192.351562 Z M 576.089844 157.855469 " clip-rule="nonzero"/></clipPath><clipPath id="f2df1f5b49"><path d="M 521.695312 54.78125 L 556.191406 54.78125 L 556.191406 89.277344 L 521.695312 89.277344 Z M 521.695312 54.78125 " clip-rule="nonzero"/></clipPath><clipPath id="87cb28621e"><path d="M 576.089844 91.550781 L 610.585938 91.550781 L 610.585938 126.046875 L 576.089844 126.046875 Z M 576.089844 91.550781 " clip-rule="nonzero"/></clipPath><clipPath id="f320ea5ae1"><path d="M 576.089844 16.511719 L 610.585938 16.511719 L 610.585938 51.007812 L 576.089844 51.007812 Z M 576.089844 16.511719 " clip-rule="nonzero"/></clipPath><clipPath id="05da1da06d"><path d="M 457.835938 401.171875 L 499.832031 401.171875 L 499.832031 443.164062 L 457.835938 443.164062 Z M 457.835938 401.171875 " clip-rule="nonzero"/></clipPath><clipPath id="21c7a7c3f9"><path d="M 522.046875 476.597656 L 556.542969 476.597656 L 556.542969 511.09375 L 522.046875 511.09375 Z M 522.046875 476.597656 " clip-rule="nonzero"/></clipPath><clipPath id="86f5655fb2"><path d="M 576.4375 513.367188 L 610.933594 513.367188 L 610.933594 547.863281 L 576.4375 547.863281 Z M 576.4375 513.367188 " clip-rule="nonzero"/></clipPath><clipPath id="796530fc0c"><path d="M 576.4375 438.328125 L 610.933594 438.328125 L 610.933594 472.824219 L 576.4375 472.824219 Z M 576.4375 438.328125 " clip-rule="nonzero"/></clipPath><clipPath id="928449ee4a"><path d="M 522.046875 335.253906 L 556.542969 335.253906 L 556.542969 369.75 L 522.046875 369.75 Z M 522.046875 335.253906 " clip-rule="nonzero"/></clipPath><clipPath id="20c8e965bb"><path d="M 576.4375 372.023438 L 610.933594 372.023438 L 610.933594 406.519531 L 576.4375 406.519531 Z M 576.4375 372.023438 " clip-rule="nonzero"/></clipPath><clipPath id="78dfa770eb"><path d="M 576.4375 296.984375 L 610.933594 296.984375 L 610.933594 331.480469 L 576.4375 331.480469 Z M 576.4375 296.984375 " clip-rule="nonzero"/></clipPath><clipPath id="1c72e09b3f"><path d="M 147.355469 120.046875 L 189.351562 120.046875 L 189.351562 162.042969 L 147.355469 162.042969 Z M 147.355469 120.046875 " clip-rule="nonzero"/></clipPath><clipPath id="1752dc6b24"><path d="M 90.644531 52.128906 L 125.140625 52.128906 L 125.140625 86.625 L 90.644531 86.625 Z M 90.644531 52.128906 " clip-rule="nonzero"/></clipPath><clipPath id="4368dd98c7"><path d="M 36.25 15.359375 L 70.746094 15.359375 L 70.746094 49.855469 L 36.25 49.855469 Z M 36.25 15.359375 " clip-rule="nonzero"/></clipPath><clipPath id="03596e1460"><path d="M 36.25 90.398438 L 70.746094 90.398438 L 70.746094 124.894531 L 36.25 124.894531 Z M 36.25 90.398438 " clip-rule="nonzero"/></clipPath><clipPath id="f292a394e1"><path d="M 90.644531 193.472656 L 125.140625 193.472656 L 125.140625 227.96875 L 90.644531 227.96875 Z M 90.644531 193.472656 " clip-rule="nonzero"/></clipPath><clipPath id="fa6071fca5"><path d="M 36.25 156.703125 L 70.746094 156.703125 L 70.746094 191.199219 L 36.25 191.199219 Z M 36.25 156.703125 " clip-rule="nonzero"/></clipPath><clipPath id="62ebd1fb1f"><path d="M 36.25 231.742188 L 70.746094 231.742188 L 70.746094 266.238281 L 36.25 266.238281 Z M 36.25 231.742188 " clip-rule="nonzero"/></clipPath></defs><g clip-path="url(#054e743f51)"><path fill="#ffffff" d="M 0.0390625 0 L 646.460938 0 L 646.460938 569.183594 L 0.0390625 569.183594 Z M 0.0390625 0 " fill-opacity="1" fill-rule="nonzero"/><path fill="#ffffff" d="M 0.0390625 0 L 646.460938 0 L 646.460938 562.433594 L 0.0390625 562.433594 Z M 0.0390625 0 " fill-opacity="1" fill-rule="nonzero"/><path fill="#ffffff" d="M 0.0390625 0 L 646.460938 0 L 646.460938 562.433594 L 0.0390625 562.433594 Z M 0.0390625 0 " fill-opacity="1" fill-rule="nonzero"/></g><g clip-path="url(#db3b9665c1)"><path fill="#ffffff" d="M 251.070312 260.035156 C 239.472656 260.035156 230.074219 269.433594 230.074219 281.03125 C 230.074219 292.628906 239.472656 302.027344 251.070312 302.027344 C 262.667969 302.027344 272.066406 292.628906 272.066406 281.03125 C 272.066406 269.433594 262.667969 260.035156 251.070312 260.035156 " fill-opacity="1" fill-rule="nonzero"/></g><g clip-path="url(#3bacf3adbe)"><path fill="#ffffff" d="M 395.320312 260.035156 C 383.722656 260.035156 374.324219 269.433594 374.324219 281.03125 C 374.324219 292.628906 383.722656 302.027344 395.320312 302.027344 C 406.917969 302.027344 416.316406 292.628906 416.316406 281.03125 C 416.316406 269.433594 406.917969 260.035156 395.320312 260.035156 " fill-opacity="1" fill-rule="nonzero"/></g><g clip-path="url(#1da186a641)"><path fill="#ffffff" d="M 323.117188 250.828125 C 306.136719 250.828125 292.375 264.59375 292.375 281.574219 C 292.375 298.554688 306.136719 312.320312 323.117188 312.320312 C 340.097656 312.320312 353.863281 298.554688 353.863281 281.574219 C 353.863281 264.59375 340.097656 250.828125 323.117188 250.828125 " fill-opacity="1" fill-rule="nonzero"/></g><path stroke-linecap="butt" transform="matrix(0.748816, 0, 0, 0.749913, 251.152233, 281.48525)" fill="none" stroke-linejoin="miter" d="M 0.000147935 0.498891 L 192.282741 0.498891 " stroke="#000000" stroke-width="1" stroke-opacity="1" stroke-miterlimit="4"/><path stroke-linecap="butt" transform="matrix(0.000000000000000046, -0.750007, 0.749913, 0.000000000000000046, 250.721425, 422.451441)" fill="none" stroke-linejoin="miter" d="M -0.00224473 0.5017 L 374.957713 0.5017 " stroke="#000000" stroke-width="1" stroke-opacity="1" stroke-miterlimit="4"/><g clip-path="url(#1a749e4686)"><path fill="#ffffff" d="M 167.605469 401.089844 C 156.007812 401.089844 146.609375 410.488281 146.609375 422.085938 C 146.609375 433.683594 156.007812 443.085938 167.605469 443.085938 C 179.199219 443.085938 188.601562 433.683594 188.601562 422.085938 C 188.601562 410.488281 179.199219 401.089844 167.605469 401.089844 " fill-opacity="1" fill-rule="nonzero"/></g><path stroke-linecap="butt" transform="matrix(0.751301, 0, 0, 0.749913, 168.382291, 422.272824)" fill="none" stroke-linejoin="miter" d="M 0.000694705 0.500876 L 109.79985 0.500876 " stroke="#000000" stroke-width="1" stroke-opacity="1" stroke-miterlimit="4"/><path stroke-linecap="butt" transform="matrix(0.000000000000000046, -0.749542, 0.749913, 0.000000000000000046, 167.628348, 492.477327)" fill="none" stroke-linejoin="miter" d="M 0.00102023 0.500802 L 189.106179 0.500802 " stroke="#000000" stroke-width="1" stroke-opacity="1" stroke-miterlimit="4"/><g clip-path="url(#975b18d42f)"><path fill="#ffffff" d="M 107.140625 333.175781 C 97.613281 333.175781 89.894531 340.898438 89.894531 350.417969 C 89.894531 359.941406 97.613281 367.660156 107.140625 367.660156 C 116.667969 367.660156 124.390625 359.941406 124.390625 350.417969 C 124.390625 340.898438 116.667969 333.175781 107.140625 333.175781 " fill-opacity="1" fill-rule="nonzero"/></g><path stroke-linecap="butt" transform="matrix(0.000000000000000046, 0.749445, -0.749913, 0.000000000000000046, 108.470508, 313.620871)" fill="none" stroke-linejoin="miter" d="M 0.000297628 0.502402 L 100.063926 0.502402 " stroke="#000000" stroke-width="1" stroke-opacity="1" stroke-miterlimit="4"/><path stroke-linecap="butt" transform="matrix(0.746314, 0, 0, 0.749913, 106.596046, 350.39007)" fill="none" stroke-linejoin="miter" d="M 0.00215695 0.500798 L 81.391712 0.500798 " stroke="#000000" stroke-width="1" stroke-opacity="1" stroke-miterlimit="4"/><path stroke-linecap="butt" transform="matrix(0.754694, 0, 0, 0.749913, 52.578265, 313.24559)" fill="none" stroke-linejoin="miter" d="M -0.000185969 0.50073 L 73.53438 0.50073 " stroke="#000000" stroke-width="1" stroke-opacity="1" stroke-miterlimit="4"/><g clip-path="url(#bbb50b240b)"><path fill="#ffffff" d="M 52.75 296.40625 C 43.222656 296.40625 35.5 304.128906 35.5 313.648438 C 35.5 323.171875 43.222656 330.890625 52.75 330.890625 C 62.273438 330.890625 69.996094 323.171875 69.996094 313.648438 C 69.996094 304.128906 62.273438 296.40625 52.75 296.40625 " fill-opacity="1" fill-rule="nonzero"/></g><path stroke-linecap="butt" transform="matrix(0.754694, 0, 0, 0.749913, 52.578265, 388.284469)" fill="none" stroke-linejoin="miter" d="M -0.000185969 0.500974 L 73.53438 0.500974 " stroke="#000000" stroke-width="1" stroke-opacity="1" stroke-miterlimit="4"/><g clip-path="url(#2042314a50)"><path fill="#ffffff" d="M 52.75 371.445312 C 43.222656 371.445312 35.5 379.164062 35.5 388.6875 C 35.5 398.210938 43.222656 405.929688 52.75 405.929688 C 62.273438 405.929688 69.996094 398.210938 69.996094 388.6875 C 69.996094 379.164062 62.273438 371.445312 52.75 371.445312 " fill-opacity="1" fill-rule="nonzero"/></g><g clip-path="url(#323d18e7c7)"><path fill="#ffffff" d="M 107.140625 474.519531 C 97.613281 474.519531 89.894531 482.238281 89.894531 491.761719 C 89.894531 501.285156 97.613281 509.003906 107.140625 509.003906 C 116.667969 509.003906 124.390625 501.285156 124.390625 491.761719 C 124.390625 482.238281 116.667969 474.519531 107.140625 474.519531 " fill-opacity="1" fill-rule="nonzero"/></g><path stroke-linecap="butt" transform="matrix(0.000000000000000046, 0.749445, -0.749913, 0.000000000000000046, 108.470508, 454.962269)" fill="none" stroke-linejoin="miter" d="M -0.00177612 0.502402 L 100.061853 0.502402 " stroke="#000000" stroke-width="1" stroke-opacity="1" stroke-miterlimit="4"/><path stroke-linecap="butt" transform="matrix(0.746314, 0, 0, 0.749913, 106.596046, 491.731446)" fill="none" stroke-linejoin="miter" d="M 0.00215695 0.498754 L 81.391712 0.498754 " stroke="#000000" stroke-width="1" stroke-opacity="1" stroke-miterlimit="4"/><path stroke-linecap="butt" transform="matrix(0.754694, 0, 0, 0.749913, 52.578265, 454.587002)" fill="none" stroke-linejoin="miter" d="M -0.000185969 0.498638 L 73.53438 0.498638 " stroke="#000000" stroke-width="1" stroke-opacity="1" stroke-miterlimit="4"/><g clip-path="url(#0d3f06b49a)"><path fill="#ffffff" d="M 52.75 437.75 C 43.222656 437.75 35.5 445.46875 35.5 454.992188 C 35.5 464.515625 43.222656 472.234375 52.75 472.234375 C 62.273438 472.234375 69.996094 464.515625 69.996094 454.992188 C 69.996094 445.46875 62.273438 437.75 52.75 437.75 " fill-opacity="1" fill-rule="nonzero"/></g><path stroke-linecap="butt" transform="matrix(0.754694, 0, 0, 0.749913, 52.578265, 529.625848)" fill="none" stroke-linejoin="miter" d="M -0.000185969 0.498927 L 73.53438 0.498927 " stroke="#000000" stroke-width="1" stroke-opacity="1" stroke-miterlimit="4"/><g clip-path="url(#dab72da4b7)"><path fill="#ffffff" d="M 52.75 512.789062 C 43.222656 512.789062 35.5 520.507812 35.5 530.03125 C 35.5 539.550781 43.222656 547.273438 52.75 547.273438 C 62.273438 547.273438 69.996094 539.550781 69.996094 530.03125 C 69.996094 520.507812 62.273438 512.789062 52.75 512.789062 " fill-opacity="1" fill-rule="nonzero"/></g><g clip-path="url(#15f0cf6b02)"><path fill="#ffffff" d="M 478.484375 162.695312 C 490.082031 162.695312 499.480469 153.292969 499.480469 141.695312 C 499.480469 130.097656 490.082031 120.699219 478.484375 120.699219 C 466.886719 120.699219 457.488281 130.097656 457.488281 141.695312 C 457.488281 153.292969 466.886719 162.695312 478.484375 162.695312 " fill-opacity="1" fill-rule="nonzero"/></g><path stroke-linecap="butt" transform="matrix(-0.751301, -0.000000000000000092, 0.000000000000000092, -0.749913, 477.712164, 141.519006)" fill="none" stroke-linejoin="miter" d="M 0.00163222 0.499357 L 109.800788 0.499357 " stroke="#000000" stroke-width="1" stroke-opacity="1" stroke-miterlimit="4"/><path stroke-linecap="butt" transform="matrix(0.000000000000000046, 0.749542, -0.749913, 0.000000000000000046, 478.46097, 71.314493)" fill="none" stroke-linejoin="miter" d="M 0.0025525 0.500101 L 189.1025 0.500101 " stroke="#000000" stroke-width="1" stroke-opacity="1" stroke-miterlimit="4"/><g clip-path="url(#9a8be0d418)"><path fill="#ffffff" d="M 538.945312 230.613281 C 548.472656 230.613281 556.191406 222.894531 556.191406 213.371094 C 556.191406 203.851562 548.472656 196.128906 538.945312 196.128906 C 529.417969 196.128906 521.695312 203.851562 521.695312 213.371094 C 521.695312 222.894531 529.417969 230.613281 538.945312 230.613281 " fill-opacity="1" fill-rule="nonzero"/></g><path stroke-linecap="butt" transform="matrix(0.000000000000000046, -0.749445, 0.749913, 0.000000000000000046, 537.626239, 250.170966)" fill="none" stroke-linejoin="miter" d="M -0.00121244 0.498406 L 100.062416 0.498406 " stroke="#000000" stroke-width="1" stroke-opacity="1" stroke-miterlimit="4"/><path stroke-linecap="butt" transform="matrix(-0.746314, -0.000000000000000091, 0.000000000000000092, -0.749913, 539.500916, 213.401769)" fill="none" stroke-linejoin="miter" d="M 0.00122742 0.499292 L 81.390782 0.499292 " stroke="#000000" stroke-width="1" stroke-opacity="1" stroke-miterlimit="4"/><path stroke-linecap="butt" transform="matrix(-0.754694, -0.000000000000000092, 0.000000000000000092, -0.749913, 593.518513, 250.546221)" fill="none" stroke-linejoin="miter" d="M -0.00134983 0.499185 L 73.533216 0.499185 " stroke="#000000" stroke-width="1" stroke-opacity="1" stroke-miterlimit="4"/><g clip-path="url(#e0ee0ec930)"><path fill="#ffffff" d="M 593.335938 267.382812 C 602.863281 267.382812 610.585938 259.664062 610.585938 250.140625 C 610.585938 240.621094 602.863281 232.898438 593.335938 232.898438 C 583.8125 232.898438 576.089844 240.621094 576.089844 250.140625 C 576.089844 259.664062 583.8125 267.382812 593.335938 267.382812 " fill-opacity="1" fill-rule="nonzero"/></g><path stroke-linecap="butt" transform="matrix(-0.754694, -0.000000000000000092, 0.000000000000000092, -0.749913, 593.518513, 175.507385)" fill="none" stroke-linejoin="miter" d="M -0.00134983 0.499488 L 73.533216 0.499488 " stroke="#000000" stroke-width="1" stroke-opacity="1" stroke-miterlimit="4"/><g clip-path="url(#6406c41d14)"><path fill="#ffffff" d="M 593.335938 192.34375 C 602.863281 192.34375 610.585938 184.625 610.585938 175.101562 C 610.585938 165.582031 602.863281 157.859375 593.335938 157.859375 C 583.8125 157.859375 576.089844 165.582031 576.089844 175.101562 C 576.089844 184.625 583.8125 192.34375 593.335938 192.34375 " fill-opacity="1" fill-rule="nonzero"/></g><g clip-path="url(#f2df1f5b49)"><path fill="#ffffff" d="M 538.945312 89.273438 C 548.472656 89.273438 556.191406 81.554688 556.191406 72.03125 C 556.191406 62.507812 548.472656 54.789062 538.945312 54.789062 C 529.417969 54.789062 521.695312 62.507812 521.695312 72.03125 C 521.695312 81.554688 529.417969 89.273438 538.945312 89.273438 " fill-opacity="1" fill-rule="nonzero"/></g><path stroke-linecap="butt" transform="matrix(0.000000000000000046, -0.749445, 0.749913, 0.000000000000000046, 537.626239, 108.829571)" fill="none" stroke-linejoin="miter" d="M 0.0019292 0.498406 L 100.065558 0.498406 " stroke="#000000" stroke-width="1" stroke-opacity="1" stroke-miterlimit="4"/><path stroke-linecap="butt" transform="matrix(-0.746314, -0.000000000000000091, 0.000000000000000092, -0.749913, 539.500916, 72.060379)" fill="none" stroke-linejoin="miter" d="M 0.00122742 0.502438 L 81.390782 0.502438 " stroke="#000000" stroke-width="1" stroke-opacity="1" stroke-miterlimit="4"/><path stroke-linecap="butt" transform="matrix(-0.754694, -0.000000000000000092, 0.000000000000000092, -0.749913, 593.518513, 109.204844)" fill="none" stroke-linejoin="miter" d="M -0.00134983 0.502351 L 73.533216 0.502351 " stroke="#000000" stroke-width="1" stroke-opacity="1" stroke-miterlimit="4"/><g clip-path="url(#87cb28621e)"><path fill="#ffffff" d="M 593.335938 126.042969 C 602.863281 126.042969 610.585938 118.324219 610.585938 108.800781 C 610.585938 99.277344 602.863281 91.558594 593.335938 91.558594 C 583.8125 91.558594 576.089844 99.277344 576.089844 108.800781 C 576.089844 118.324219 583.8125 126.042969 593.335938 126.042969 " fill-opacity="1" fill-rule="nonzero"/></g><path stroke-linecap="butt" transform="matrix(-0.754694, -0.000000000000000092, 0.000000000000000092, -0.749913, 593.518513, 34.166002)" fill="none" stroke-linejoin="miter" d="M -0.00134983 0.497436 L 73.533216 0.497436 " stroke="#000000" stroke-width="1" stroke-opacity="1" stroke-miterlimit="4"/><g clip-path="url(#f320ea5ae1)"><path fill="#ffffff" d="M 593.335938 51.003906 C 602.863281 51.003906 610.585938 43.285156 610.585938 33.761719 C 610.585938 24.238281 602.863281 16.519531 593.335938 16.519531 C 583.8125 16.519531 576.089844 24.238281 576.089844 33.761719 C 576.089844 43.285156 583.8125 51.003906 593.335938 51.003906 " fill-opacity="1" fill-rule="nonzero"/></g><path stroke-linecap="butt" transform="matrix(0.000000000000000046, -0.750007, 0.749913, 0.000000000000000046, 394.970799, 421.808693)" fill="none" stroke-linejoin="miter" d="M 0.000132085 0.502534 L 374.960089 0.502534 " stroke="#000000" stroke-width="1" stroke-opacity="1" stroke-miterlimit="4"/><g clip-path="url(#05da1da06d)"><path fill="#ffffff" d="M 478.832031 443.164062 C 490.429688 443.164062 499.828125 433.765625 499.828125 422.167969 C 499.828125 410.570312 490.429688 401.171875 478.832031 401.171875 C 467.238281 401.171875 457.835938 410.570312 457.835938 422.167969 C 457.835938 433.765625 467.238281 443.164062 478.832031 443.164062 " fill-opacity="1" fill-rule="nonzero"/></g><path stroke-linecap="butt" transform="matrix(-0.751301, -0.000000000000000092, 0.000000000000000092, -0.749913, 478.060838, 421.991195)" fill="none" stroke-linejoin="miter" d="M -0.00221239 0.498734 L 109.802142 0.498734 " stroke="#000000" stroke-width="1" stroke-opacity="1" stroke-miterlimit="4"/><path stroke-linecap="butt" transform="matrix(0.000000000000000046, 0.749542, -0.749913, 0.000000000000000046, 478.809692, 351.786699)" fill="none" stroke-linejoin="miter" d="M -0.00205798 0.501522 L 189.103101 0.501522 " stroke="#000000" stroke-width="1" stroke-opacity="1" stroke-miterlimit="4"/><g clip-path="url(#21c7a7c3f9)"><path fill="#ffffff" d="M 539.292969 511.085938 C 548.820312 511.085938 556.542969 503.367188 556.542969 493.84375 C 556.542969 484.320312 548.820312 476.601562 539.292969 476.601562 C 529.769531 476.601562 522.046875 484.320312 522.046875 493.84375 C 522.046875 503.367188 529.769531 511.085938 539.292969 511.085938 " fill-opacity="1" fill-rule="nonzero"/></g><path stroke-linecap="butt" transform="matrix(0.000000000000000046, -0.749445, 0.749913, 0.000000000000000046, 537.974961, 530.643119)" fill="none" stroke-linejoin="miter" d="M -0.00188396 0.502194 L 100.061745 0.502194 " stroke="#000000" stroke-width="1" stroke-opacity="1" stroke-miterlimit="4"/><path stroke-linecap="butt" transform="matrix(-0.746314, -0.000000000000000091, 0.000000000000000092, -0.749913, 539.84959, 493.873966)" fill="none" stroke-linejoin="miter" d="M 0.00259118 0.498678 L 81.392146 0.498678 " stroke="#000000" stroke-width="1" stroke-opacity="1" stroke-miterlimit="4"/><path stroke-linecap="butt" transform="matrix(-0.754694, -0.000000000000000092, 0.000000000000000092, -0.749913, 593.867187, 531.018434)" fill="none" stroke-linejoin="miter" d="M -0.00000121462 0.498594 L 73.534565 0.498594 " stroke="#000000" stroke-width="1" stroke-opacity="1" stroke-miterlimit="4"/><g clip-path="url(#86f5655fb2)"><path fill="#ffffff" d="M 593.6875 547.855469 C 603.210938 547.855469 610.933594 540.136719 610.933594 530.613281 C 610.933594 521.089844 603.210938 513.371094 593.6875 513.371094 C 584.160156 513.371094 576.4375 521.089844 576.4375 530.613281 C 576.4375 540.136719 584.160156 547.855469 593.6875 547.855469 " fill-opacity="1" fill-rule="nonzero"/></g><path stroke-linecap="butt" transform="matrix(-0.754694, -0.000000000000000092, 0.000000000000000092, -0.749913, 593.867187, 455.979588)" fill="none" stroke-linejoin="miter" d="M -0.00000121462 0.498884 L 73.534565 0.498884 " stroke="#000000" stroke-width="1" stroke-opacity="1" stroke-miterlimit="4"/><g clip-path="url(#796530fc0c)"><path fill="#ffffff" d="M 593.6875 472.816406 C 603.210938 472.816406 610.933594 465.097656 610.933594 455.574219 C 610.933594 446.050781 603.210938 438.332031 593.6875 438.332031 C 584.160156 438.332031 576.4375 446.050781 576.4375 455.574219 C 576.4375 465.097656 584.160156 472.816406 593.6875 472.816406 " fill-opacity="1" fill-rule="nonzero"/></g><g clip-path="url(#928449ee4a)"><path fill="#ffffff" d="M 539.292969 369.746094 C 548.820312 369.746094 556.542969 362.027344 556.542969 352.503906 C 556.542969 342.980469 548.820312 335.261719 539.292969 335.261719 C 529.769531 335.261719 522.046875 342.980469 522.046875 352.503906 C 522.046875 362.027344 529.769531 369.746094 539.292969 369.746094 " fill-opacity="1" fill-rule="nonzero"/></g><path stroke-linecap="butt" transform="matrix(0.000000000000000046, -0.749445, 0.749913, 0.000000000000000046, 537.974961, 389.301777)" fill="none" stroke-linejoin="miter" d="M 0.00132808 0.502194 L 100.064957 0.502194 " stroke="#000000" stroke-width="1" stroke-opacity="1" stroke-miterlimit="4"/><path stroke-linecap="butt" transform="matrix(-0.746314, -0.000000000000000091, 0.000000000000000092, -0.749913, 539.84959, 352.53258)" fill="none" stroke-linejoin="miter" d="M 0.00259118 0.501831 L 81.392146 0.501831 " stroke="#000000" stroke-width="1" stroke-opacity="1" stroke-miterlimit="4"/><path stroke-linecap="butt" transform="matrix(-0.754694, -0.000000000000000092, 0.000000000000000092, -0.749913, 593.867187, 389.67706)" fill="none" stroke-linejoin="miter" d="M -0.00000121462 0.501763 L 73.534565 0.501763 " stroke="#000000" stroke-width="1" stroke-opacity="1" stroke-miterlimit="4"/><g clip-path="url(#20c8e965bb)"><path fill="#ffffff" d="M 593.6875 406.515625 C 603.210938 406.515625 610.933594 398.796875 610.933594 389.273438 C 610.933594 379.75 603.210938 372.03125 593.6875 372.03125 C 584.160156 372.03125 576.4375 379.75 576.4375 389.273438 C 576.4375 398.796875 584.160156 406.515625 593.6875 406.515625 " fill-opacity="1" fill-rule="nonzero"/></g><path stroke-linecap="butt" transform="matrix(-0.754694, -0.000000000000000092, 0.000000000000000092, -0.749913, 593.867187, 314.63821)" fill="none" stroke-linejoin="miter" d="M -0.00000121462 0.502046 L 73.534565 0.502046 " stroke="#000000" stroke-width="1" stroke-opacity="1" stroke-miterlimit="4"/><g clip-path="url(#78dfa770eb)"><path fill="#ffffff" d="M 593.6875 331.476562 C 603.210938 331.476562 610.933594 323.757812 610.933594 314.234375 C 610.933594 304.710938 603.210938 296.992188 593.6875 296.992188 C 584.160156 296.992188 576.4375 304.710938 576.4375 314.234375 C 576.4375 323.757812 584.160156 331.476562 593.6875 331.476562 " fill-opacity="1" fill-rule="nonzero"/></g><g clip-path="url(#1c72e09b3f)"><path fill="#ffffff" d="M 168.355469 120.046875 C 156.757812 120.046875 147.359375 129.449219 147.359375 141.042969 C 147.359375 152.640625 156.757812 162.042969 168.355469 162.042969 C 179.949219 162.042969 189.351562 152.640625 189.351562 141.042969 C 189.351562 129.449219 179.949219 120.046875 168.355469 120.046875 " fill-opacity="1" fill-rule="nonzero"/></g><path stroke-linecap="butt" transform="matrix(0.751301, 0, 0, 0.749913, 169.132212, 141.231242)" fill="none" stroke-linejoin="miter" d="M 0.000799391 0.499026 L 109.799955 0.499026 " stroke="#000000" stroke-width="1" stroke-opacity="1" stroke-miterlimit="4"/><path stroke-linecap="butt" transform="matrix(0.000000000000000046, -0.749542, 0.749913, 0.000000000000000046, 168.378267, 211.435762)" fill="none" stroke-linejoin="miter" d="M -0.00231875 0.50091 L 189.10284 0.50091 " stroke="#000000" stroke-width="1" stroke-opacity="1" stroke-miterlimit="4"/><g clip-path="url(#1752dc6b24)"><path fill="#ffffff" d="M 107.890625 52.136719 C 98.363281 52.136719 90.644531 59.855469 90.644531 69.378906 C 90.644531 78.898438 98.363281 86.621094 107.890625 86.621094 C 117.417969 86.621094 125.140625 78.898438 125.140625 69.378906 C 125.140625 59.855469 117.417969 52.136719 107.890625 52.136719 " fill-opacity="1" fill-rule="nonzero"/></g><path stroke-linecap="butt" transform="matrix(0.000000000000000046, 0.749445, -0.749913, 0.000000000000000046, 109.22043, 32.579295)" fill="none" stroke-linejoin="miter" d="M -0.0015614 0.502297 L 100.062067 0.502297 " stroke="#000000" stroke-width="1" stroke-opacity="1" stroke-miterlimit="4"/><path stroke-linecap="butt" transform="matrix(0.746314, 0, 0, 0.749913, 107.345961, 69.348486)" fill="none" stroke-linejoin="miter" d="M 0.00227198 0.498952 L 81.391827 0.498952 " stroke="#000000" stroke-width="1" stroke-opacity="1" stroke-miterlimit="4"/><path stroke-linecap="butt" transform="matrix(0.754694, 0, 0, 0.749913, 53.32818, 32.204024)" fill="none" stroke-linejoin="miter" d="M -0.000072222 0.498858 L 73.534494 0.498858 " stroke="#000000" stroke-width="1" stroke-opacity="1" stroke-miterlimit="4"/><g clip-path="url(#4368dd98c7)"><path fill="#ffffff" d="M 53.5 15.367188 C 43.972656 15.367188 36.25 23.085938 36.25 32.609375 C 36.25 42.128906 43.972656 49.851562 53.5 49.851562 C 63.023438 49.851562 70.746094 42.128906 70.746094 32.609375 C 70.746094 23.085938 63.023438 15.367188 53.5 15.367188 " fill-opacity="1" fill-rule="nonzero"/></g><path stroke-linecap="butt" transform="matrix(0.754694, 0, 0, 0.749913, 53.32818, 107.24287)" fill="none" stroke-linejoin="miter" d="M -0.000072222 0.499147 L 73.534494 0.499147 " stroke="#000000" stroke-width="1" stroke-opacity="1" stroke-miterlimit="4"/><g clip-path="url(#03596e1460)"><path fill="#ffffff" d="M 53.5 90.40625 C 43.972656 90.40625 36.25 98.125 36.25 107.648438 C 36.25 117.167969 43.972656 124.890625 53.5 124.890625 C 63.023438 124.890625 70.746094 117.167969 70.746094 107.648438 C 70.746094 98.125 63.023438 90.40625 53.5 90.40625 " fill-opacity="1" fill-rule="nonzero"/></g><g clip-path="url(#f292a394e1)"><path fill="#ffffff" d="M 107.890625 193.476562 C 98.363281 193.476562 90.644531 201.195312 90.644531 210.71875 C 90.644531 220.242188 98.363281 227.960938 107.890625 227.960938 C 117.417969 227.960938 125.140625 220.242188 125.140625 210.71875 C 125.140625 201.195312 117.417969 193.476562 107.890625 193.476562 " fill-opacity="1" fill-rule="nonzero"/></g><path stroke-linecap="butt" transform="matrix(0.000000000000000046, 0.749445, -0.749913, 0.000000000000000046, 109.22043, 173.920684)" fill="none" stroke-linejoin="miter" d="M 0.00158889 0.502297 L 100.065218 0.502297 " stroke="#000000" stroke-width="1" stroke-opacity="1" stroke-miterlimit="4"/><path stroke-linecap="butt" transform="matrix(0.746314, 0, 0, 0.749913, 107.345961, 210.689869)" fill="none" stroke-linejoin="miter" d="M 0.00227198 0.502108 L 81.391827 0.502108 " stroke="#000000" stroke-width="1" stroke-opacity="1" stroke-miterlimit="4"/><path stroke-linecap="butt" transform="matrix(0.754694, 0, 0, 0.749913, 53.32818, 173.545403)" fill="none" stroke-linejoin="miter" d="M -0.000072222 0.50202 L 73.534494 0.50202 " stroke="#000000" stroke-width="1" stroke-opacity="1" stroke-miterlimit="4"/><g clip-path="url(#fa6071fca5)"><path fill="#ffffff" d="M 53.5 156.707031 C 43.972656 156.707031 36.25 164.425781 36.25 173.949219 C 36.25 183.472656 43.972656 191.191406 53.5 191.191406 C 63.023438 191.191406 70.746094 183.472656 70.746094 173.949219 C 70.746094 164.425781 63.023438 156.707031 53.5 156.707031 " fill-opacity="1" fill-rule="nonzero"/></g><path stroke-linecap="butt" transform="matrix(0.754694, 0, 0, 0.749913, 53.32818, 248.584222)" fill="none" stroke-linejoin="miter" d="M -0.000072222 0.502345 L 73.534494 0.502345 " stroke="#000000" stroke-width="1" stroke-opacity="1" stroke-miterlimit="4"/><g clip-path="url(#62ebd1fb1f)"><path fill="#ffffff" d="M 53.5 231.746094 C 43.972656 231.746094 36.25 239.464844 36.25 248.988281 C 36.25 258.511719 43.972656 266.230469 53.5 266.230469 C 63.023438 266.230469 70.746094 258.511719 70.746094 248.988281 C 70.746094 239.464844 63.023438 231.746094 53.5 231.746094 " fill-opacity="1" fill-rule="nonzero"/></g></svg>