<svg xmlns="http://www.w3.org/2000/svg" xmlns:xlink="http://www.w3.org/1999/xlink" width="320" zoomAndPan="magnify" viewBox="0 0 240 500.249999" height="667" preserveAspectRatio="xMidYMid meet" version="1.0"><defs><clipPath id="d4b79451c3"><path d="M 0.179688 0 L 239.820312 0 L 239.820312 499.5 L 0.179688 499.5 Z M 0.179688 0 " clip-rule="nonzero"/></clipPath><clipPath id="6ab2350c75"><path d="M 118.714844 159 L 120.960938 159 L 120.960938 343 L 118.714844 343 Z M 118.714844 159 " clip-rule="nonzero"/></clipPath></defs><g clip-path="url(#d4b79451c3)"><path fill="#ffffff" d="M 0.179688 0 L 239.820312 0 L 239.820312 506.988281 L 0.179688 506.988281 Z M 0.179688 0 " fill-opacity="1" fill-rule="nonzero"/><path fill="#ffffff" d="M 0.179688 0 L 239.820312 0 L 239.820312 499.5 L 0.179688 499.5 Z M 0.179688 0 " fill-opacity="1" fill-rule="nonzero"/><path fill="#ffffff" d="M 0.179688 0 L 239.820312 0 L 239.820312 499.5 L 0.179688 499.5 Z M 0.179688 0 " fill-opacity="1" fill-rule="nonzero"/></g><g clip-path="url(#6ab2350c75)"><path fill="#000000" d="M 118.730469 342.996094 L 118.730469 159.660156 L 120.96875 159.660156 L 120.96875 342.996094 L 118.730469 342.996094 " fill-opacity="1" fill-rule="nonzero"/></g><path stroke-linecap="butt" transform="matrix(-0.748733, -0.000000000000000092, 0.000000000000000092, -0.748877, 180.666435, 155.094045)" fill="none" stroke-linejoin="miter" d="M -0.00204856 1.001894 L 162.04258 1.001894 " stroke="#000000" stroke-width="2" stroke-opacity="1" stroke-miterlimit="4"/><path stroke-linecap="butt" transform="matrix(-0.748733, -0.000000000000000092, 0.000000000000000092, -0.748877, 180.666435, 349.64923)" fill="none" stroke-linejoin="miter" d="M -0.00204856 1.002557 L 162.04258 1.002557 " stroke="#000000" stroke-width="2" stroke-opacity="1" stroke-miterlimit="4"/><path stroke-linecap="butt" transform="matrix(0.000000000000000046, -0.74494, 0.748877, 0.000000000000000046, 225.036108, 79.504076)" fill="none" stroke-linejoin="miter" d="M 0.000228331 1.000228 L 68.362462 1.000228 " stroke="#000000" stroke-width="2" stroke-opacity="1" stroke-miterlimit="4"/><path stroke-linecap="butt" transform="matrix(0.000000000000000046, -0.74494, 0.748877, 0.000000000000000046, 59.324679, 155.093796)" fill="none" stroke-linejoin="miter" d="M 0.0000621005 1.000885 L 68.362296 1.000885 " stroke="#000000" stroke-width="2" stroke-opacity="1" stroke-miterlimit="4"/><path stroke-linecap="butt" transform="matrix(0.000000000000000046, -0.74494, 0.748877, 0.000000000000000046, 179.177046, 155.093796)" fill="none" stroke-linejoin="miter" d="M 0.0000621005 0.99981 L 68.362296 0.99981 " stroke="#000000" stroke-width="2" stroke-opacity="1" stroke-miterlimit="4"/><path stroke-linecap="butt" transform="matrix(-0.751674, -0.000000000000000092, 0.000000000000000092, -0.748877, 92.200005, 103.900771)" fill="none" stroke-linejoin="miter" d="M 0.00104599 0.999398 L 83.694492 0.999398 " stroke="#000000" stroke-width="2" stroke-opacity="1" stroke-miterlimit="4"/><path stroke-linecap="butt" transform="matrix(-0.751674, -0.000000000000000092, 0.000000000000000092, -0.748877, 211.259972, 105.398525)" fill="none" stroke-linejoin="miter" d="M -0.00232409 1.001616 L 83.691122 1.001616 " stroke="#000000" stroke-width="2" stroke-opacity="1" stroke-miterlimit="4"/><path stroke-linecap="butt" transform="matrix(0.000000000000000046, -0.74494, 0.748877, 0.000000000000000046, 14.876005, 78.006322)" fill="none" stroke-linejoin="miter" d="M -0.00200094 1.000157 L 68.360233 1.000157 " stroke="#000000" stroke-width="2" stroke-opacity="1" stroke-miterlimit="4"/><path stroke-linecap="butt" transform="matrix(0.000000000000000046, -0.74494, 0.748877, 0.000000000000000046, 44.949718, 78.006322)" fill="none" stroke-linejoin="miter" d="M -0.00200094 1.000832 L 68.360233 1.000832 " stroke="#000000" stroke-width="2" stroke-opacity="1" stroke-miterlimit="4"/><path stroke-linecap="butt" transform="matrix(-0.746034, -0.000000000000000091, 0.000000000000000092, -0.748877, 45.697234, 78.755448)" fill="none" stroke-linejoin="miter" d="M 0.0025761 0.998342 L 41.157701 0.998342 " stroke="#000000" stroke-width="2" stroke-opacity="1" stroke-miterlimit="4"/><path stroke-linecap="butt" transform="matrix(0.000000000000000046, -0.74494, 0.748877, 0.000000000000000046, 74.904804, 78.755199)" fill="none" stroke-linejoin="miter" d="M 0.00173555 0.998214 L 68.358726 0.998214 " stroke="#000000" stroke-width="2" stroke-opacity="1" stroke-miterlimit="4"/><path stroke-linecap="butt" transform="matrix(0.000000000000000046, -0.74494, 0.748877, 0.000000000000000046, 104.978513, 78.755199)" fill="none" stroke-linejoin="miter" d="M 0.00173555 0.998895 L 68.358726 0.998895 " stroke="#000000" stroke-width="2" stroke-opacity="1" stroke-miterlimit="4"/><path stroke-linecap="butt" transform="matrix(-0.746034, -0.000000000000000091, 0.000000000000000092, -0.748877, 105.726029, 79.504326)" fill="none" stroke-linejoin="miter" d="M -0.000715527 1.002059 L 41.159645 1.002059 " stroke="#000000" stroke-width="2" stroke-opacity="1" stroke-miterlimit="4"/><path stroke-linecap="butt" transform="matrix(0.000000000000000046, -0.74494, 0.748877, 0.000000000000000046, 134.933601, 78.755199)" fill="none" stroke-linejoin="miter" d="M 0.00173555 1.001489 L 68.358726 1.001489 " stroke="#000000" stroke-width="2" stroke-opacity="1" stroke-miterlimit="4"/><path stroke-linecap="butt" transform="matrix(0.000000000000000046, -0.74494, 0.748877, 0.000000000000000046, 165.007312, 78.755199)" fill="none" stroke-linejoin="miter" d="M 0.00173555 1.002168 L 68.358726 1.002168 " stroke="#000000" stroke-width="2" stroke-opacity="1" stroke-miterlimit="4"/><path stroke-linecap="butt" transform="matrix(-0.746034, -0.000000000000000091, 0.000000000000000092, -0.748877, 165.754828, 79.504326)" fill="none" stroke-linejoin="miter" d="M 0.00123529 1.002059 L 41.15636 1.002059 " stroke="#000000" stroke-width="2" stroke-opacity="1" stroke-miterlimit="4"/><path stroke-linecap="butt" transform="matrix(0.000000000000000046, -0.74494, 0.748877, 0.000000000000000046, 194.9624, 79.504076)" fill="none" stroke-linejoin="miter" d="M 0.000228331 0.999546 L 68.362462 0.999546 " stroke="#000000" stroke-width="2" stroke-opacity="1" stroke-miterlimit="4"/><path stroke-linecap="butt" transform="matrix(-0.746034, -0.000000000000000091, 0.000000000000000092, -0.748877, 225.783625, 80.253203)" fill="none" stroke-linejoin="miter" d="M -0.00205312 1.00056 L 41.158308 1.00056 " stroke="#000000" stroke-width="2" stroke-opacity="1" stroke-miterlimit="4"/><path stroke-linecap="butt" transform="matrix(0.000000000000000046, -0.745111, 0.748877, 0.000000000000000046, 29.535622, 103.600158)" fill="none" stroke-linejoin="miter" d="M -0.00188494 1.000877 L 34.179285 1.000877 " stroke="#000000" stroke-width="2" stroke-opacity="1" stroke-miterlimit="4"/><path stroke-linecap="butt" transform="matrix(0.000000000000000046, -0.745111, 0.748877, 0.000000000000000046, 90.313304, 103.89772)" fill="none" stroke-linejoin="miter" d="M -0.000963108 1.000426 L 34.180207 1.000426 " stroke="#000000" stroke-width="2" stroke-opacity="1" stroke-miterlimit="4"/><path stroke-linecap="butt" transform="matrix(0.000000000000000046, -0.745111, 0.748877, 0.000000000000000046, 148.585237, 103.89772)" fill="none" stroke-linejoin="miter" d="M -0.000963108 1.002434 L 34.180207 1.002434 " stroke="#000000" stroke-width="2" stroke-opacity="1" stroke-miterlimit="4"/><path stroke-linecap="butt" transform="matrix(0.000000000000000046, -0.745111, 0.748877, 0.000000000000000046, 210.512147, 105.395474)" fill="none" stroke-linejoin="miter" d="M 0.00126565 1.000928 L 34.182436 1.000928 " stroke="#000000" stroke-width="2" stroke-opacity="1" stroke-miterlimit="4"/><path stroke-linecap="butt" transform="matrix(0.000000000000000046, 0.74494, -0.748877, 0.000000000000000046, 180.587437, 348.15171)" fill="none" stroke-linejoin="miter" d="M 0.000850318 0.998286 L 68.35784 0.998286 " stroke="#000000" stroke-width="2" stroke-opacity="1" stroke-miterlimit="4"/><path stroke-linecap="butt" transform="matrix(0.000000000000000046, 0.74494, -0.748877, 0.000000000000000046, 60.735063, 348.15171)" fill="none" stroke-linejoin="miter" d="M 0.000850318 1.002417 L 68.35784 1.002417 " stroke="#000000" stroke-width="2" stroke-opacity="1" stroke-miterlimit="4"/><path stroke-linecap="butt" transform="matrix(0.751674, 0, 0, 0.748877, 147.708495, 399.344722)" fill="none" stroke-linejoin="miter" d="M -0.00194731 1.000202 L 83.691499 1.000202 " stroke="#000000" stroke-width="2" stroke-opacity="1" stroke-miterlimit="4"/><path stroke-linecap="butt" transform="matrix(0.751674, 0, 0, 0.748877, 28.64855, 397.846967)" fill="none" stroke-linejoin="miter" d="M -0.00014999 1.002419 L 83.693296 1.002419 " stroke="#000000" stroke-width="2" stroke-opacity="1" stroke-miterlimit="4"/><path stroke-linecap="butt" transform="matrix(0.000000000000000046, 0.74494, -0.748877, 0.000000000000000046, 225.036108, 425.239163)" fill="none" stroke-linejoin="miter" d="M -0.00118377 0.997555 L 68.36105 0.997555 " stroke="#000000" stroke-width="2" stroke-opacity="1" stroke-miterlimit="4"/><path stroke-linecap="butt" transform="matrix(0.000000000000000046, 0.74494, -0.748877, 0.000000000000000046, 194.9624, 425.239163)" fill="none" stroke-linejoin="miter" d="M -0.00118377 0.998236 L 68.36105 0.998236 " stroke="#000000" stroke-width="2" stroke-opacity="1" stroke-miterlimit="4"/><path stroke-linecap="butt" transform="matrix(0.746034, 0, 0, 0.748877, 194.21377, 424.49007)" fill="none" stroke-linejoin="miter" d="M 0.00143945 0.99911 L 41.156564 0.99911 " stroke="#000000" stroke-width="2" stroke-opacity="1" stroke-miterlimit="4"/><path stroke-linecap="butt" transform="matrix(0.000000000000000046, 0.74494, -0.748877, 0.000000000000000046, 165.007312, 424.490286)" fill="none" stroke-linejoin="miter" d="M 0.00255272 1.000831 L 68.359543 1.000831 " stroke="#000000" stroke-width="2" stroke-opacity="1" stroke-miterlimit="4"/><path stroke-linecap="butt" transform="matrix(0.000000000000000046, 0.74494, -0.748877, 0.000000000000000046, 134.933601, 424.490286)" fill="none" stroke-linejoin="miter" d="M 0.00255272 1.001509 L 68.359543 1.001509 " stroke="#000000" stroke-width="2" stroke-opacity="1" stroke-miterlimit="4"/><path stroke-linecap="butt" transform="matrix(0.746034, 0, 0, 0.748877, 134.184973, 423.741193)" fill="none" stroke-linejoin="miter" d="M -0.00184897 0.997611 L 41.158512 0.997611 " stroke="#000000" stroke-width="2" stroke-opacity="1" stroke-miterlimit="4"/><path stroke-linecap="butt" transform="matrix(0.000000000000000046, 0.74494, -0.748877, 0.000000000000000046, 104.978513, 424.490286)" fill="none" stroke-linejoin="miter" d="M 0.00255272 0.998887 L 68.359543 0.998887 " stroke="#000000" stroke-width="2" stroke-opacity="1" stroke-miterlimit="4"/><path stroke-linecap="butt" transform="matrix(0.000000000000000046, 0.74494, -0.748877, 0.000000000000000046, 74.904804, 424.490286)" fill="none" stroke-linejoin="miter" d="M 0.00255272 0.999569 L 68.359543 0.999569 " stroke="#000000" stroke-width="2" stroke-opacity="1" stroke-miterlimit="4"/><path stroke-linecap="butt" transform="matrix(0.746034, 0, 0, 0.748877, 74.156174, 423.741193)" fill="none" stroke-linejoin="miter" d="M 0.000101852 0.997611 L 41.160462 0.997611 " stroke="#000000" stroke-width="2" stroke-opacity="1" stroke-miterlimit="4"/><path stroke-linecap="butt" transform="matrix(0.000000000000000046, 0.74494, -0.748877, 0.000000000000000046, 44.949718, 423.741409)" fill="none" stroke-linejoin="miter" d="M 0.0010455 1.002166 L 68.358036 1.002166 " stroke="#000000" stroke-width="2" stroke-opacity="1" stroke-miterlimit="4"/><path stroke-linecap="butt" transform="matrix(0.746034, 0, 0, 0.748877, 14.127379, 422.992316)" fill="none" stroke-linejoin="miter" d="M 0.00204657 1.001328 L 41.157171 1.001328 " stroke="#000000" stroke-width="2" stroke-opacity="1" stroke-miterlimit="4"/><path stroke-linecap="butt" transform="matrix(0.000000000000000046, 0.745111, -0.748877, 0.000000000000000046, 210.3709, 399.645356)" fill="none" stroke-linejoin="miter" d="M -0.00110655 1.001241 L 34.180063 1.001241 " stroke="#000000" stroke-width="2" stroke-opacity="1" stroke-miterlimit="4"/><path stroke-linecap="butt" transform="matrix(0.000000000000000046, 0.745111, -0.748877, 0.000000000000000046, 149.593209, 399.347794)" fill="none" stroke-linejoin="miter" d="M -0.00018472 1.000777 L 34.180985 1.000777 " stroke="#000000" stroke-width="2" stroke-opacity="1" stroke-miterlimit="4"/><path stroke-linecap="butt" transform="matrix(0.000000000000000046, 0.745111, -0.748877, 0.000000000000000046, 91.321274, 399.347794)" fill="none" stroke-linejoin="miter" d="M -0.00018472 0.997567 L 34.180985 0.997567 " stroke="#000000" stroke-width="2" stroke-opacity="1" stroke-miterlimit="4"/><path stroke-linecap="butt" transform="matrix(0.000000000000000046, 0.745111, -0.748877, 0.000000000000000046, 29.394376, 397.850039)" fill="none" stroke-linejoin="miter" d="M 0.00204404 1.001292 L 34.177972 1.001292 " stroke="#000000" stroke-width="2" stroke-opacity="1" stroke-miterlimit="4"/><path stroke-linecap="butt" transform="matrix(0.000000000000000046, 0.74494, -0.748877, 0.000000000000000046, 15.624884, 424.490286)" fill="none" stroke-linejoin="miter" d="M 0.00255272 1.001345 L 68.359543 1.001345 " stroke="#000000" stroke-width="2" stroke-opacity="1" stroke-miterlimit="4"/></svg>