<svg xmlns="http://www.w3.org/2000/svg" xmlns:xlink="http://www.w3.org/1999/xlink" width="716" zoomAndPan="magnify" viewBox="0 0 537 562.499983" height="750" preserveAspectRatio="xMidYMid meet" version="1.0"><defs><clipPath id="c1071f70f8"><path d="M 0.238281 0 L 536.761719 0 L 536.761719 562 L 0.238281 562 Z M 0.238281 0 " clip-rule="nonzero"/></clipPath><clipPath id="e8fcf5ab02"><path d="M 191.164062 263.417969 L 226.382812 263.417969 L 226.382812 298.636719 L 191.164062 298.636719 Z M 191.164062 263.417969 " clip-rule="nonzero"/></clipPath><clipPath id="31bc028c33"><path d="M 310.890625 263.417969 L 346.109375 263.417969 L 346.109375 298.636719 L 310.890625 298.636719 Z M 310.890625 263.417969 " clip-rule="nonzero"/></clipPath><clipPath id="afc24b2460"><path d="M 242.871094 255.777344 L 293.824219 255.777344 L 293.824219 306.730469 L 242.871094 306.730469 Z M 242.871094 255.777344 " clip-rule="nonzero"/></clipPath><clipPath id="b61a46818d"><path d="M 121.890625 380.492188 L 157.109375 380.492188 L 157.109375 415.710938 L 121.890625 415.710938 Z M 121.890625 380.492188 " clip-rule="nonzero"/></clipPath><clipPath id="b2ed161fba"><path d="M 74.816406 324.121094 L 103.292969 324.121094 L 103.292969 352.59375 L 74.816406 352.59375 Z M 74.816406 324.121094 " clip-rule="nonzero"/></clipPath><clipPath id="adf508c779"><path d="M 29.671875 293.601562 L 58.148438 293.601562 L 58.148438 322.078125 L 29.671875 322.078125 Z M 29.671875 293.601562 " clip-rule="nonzero"/></clipPath><clipPath id="d3cd2e6bdf"><path d="M 29.671875 355.882812 L 58.148438 355.882812 L 58.148438 384.359375 L 29.671875 384.359375 Z M 29.671875 355.882812 " clip-rule="nonzero"/></clipPath><clipPath id="253e1b933d"><path d="M 74.816406 441.433594 L 103.292969 441.433594 L 103.292969 469.90625 L 74.816406 469.90625 Z M 74.816406 441.433594 " clip-rule="nonzero"/></clipPath><clipPath id="af888c69a8"><path d="M 29.671875 410.914062 L 58.148438 410.914062 L 58.148438 439.390625 L 29.671875 439.390625 Z M 29.671875 410.914062 " clip-rule="nonzero"/></clipPath><clipPath id="7719431d1b"><path d="M 29.671875 473.195312 L 58.148438 473.195312 L 58.148438 501.667969 L 29.671875 501.667969 Z M 29.671875 473.195312 " clip-rule="nonzero"/></clipPath><clipPath id="846a8a88a4"><path d="M 379.546875 147.410156 L 414.765625 147.410156 L 414.765625 182.628906 L 379.546875 182.628906 Z M 379.546875 147.410156 " clip-rule="nonzero"/></clipPath><clipPath id="5e29a87590"><path d="M 433.371094 210.527344 L 461.84375 210.527344 L 461.84375 239.003906 L 433.371094 239.003906 Z M 433.371094 210.527344 " clip-rule="nonzero"/></clipPath><clipPath id="e99179706b"><path d="M 478.515625 241.046875 L 506.992188 241.046875 L 506.992188 269.519531 L 478.515625 269.519531 Z M 478.515625 241.046875 " clip-rule="nonzero"/></clipPath><clipPath id="5440e679da"><path d="M 478.515625 178.765625 L 506.992188 178.765625 L 506.992188 207.238281 L 478.515625 207.238281 Z M 478.515625 178.765625 " clip-rule="nonzero"/></clipPath><clipPath id="a4b06bf68c"><path d="M 433.371094 93.21875 L 461.84375 93.21875 L 461.84375 121.691406 L 433.371094 121.691406 Z M 433.371094 93.21875 " clip-rule="nonzero"/></clipPath><clipPath id="74bbeab1a9"><path d="M 478.515625 123.734375 L 506.992188 123.734375 L 506.992188 152.210938 L 478.515625 152.210938 Z M 478.515625 123.734375 " clip-rule="nonzero"/></clipPath><clipPath id="176553d888"><path d="M 478.515625 61.453125 L 506.992188 61.453125 L 506.992188 89.929688 L 478.515625 89.929688 Z M 478.515625 61.453125 " clip-rule="nonzero"/></clipPath><clipPath id="67d6b267b6"><path d="M 379.835938 380.199219 L 415.054688 380.199219 L 415.054688 415.417969 L 379.835938 415.417969 Z M 379.835938 380.199219 " clip-rule="nonzero"/></clipPath><clipPath id="580716d6f3"><path d="M 433.660156 443.316406 L 462.136719 443.316406 L 462.136719 471.789062 L 433.660156 471.789062 Z M 433.660156 443.316406 " clip-rule="nonzero"/></clipPath><clipPath id="cf7c78bb41"><path d="M 478.804688 473.832031 L 507.28125 473.832031 L 507.28125 502.308594 L 478.804688 502.308594 Z M 478.804688 473.832031 " clip-rule="nonzero"/></clipPath><clipPath id="9132176634"><path d="M 478.804688 411.554688 L 507.28125 411.554688 L 507.28125 440.027344 L 478.804688 440.027344 Z M 478.804688 411.554688 " clip-rule="nonzero"/></clipPath><clipPath id="b0a86887e8"><path d="M 433.660156 326.003906 L 462.136719 326.003906 L 462.136719 354.480469 L 433.660156 354.480469 Z M 433.660156 326.003906 " clip-rule="nonzero"/></clipPath><clipPath id="0ac92bd378"><path d="M 478.804688 356.523438 L 507.28125 356.523438 L 507.28125 384.996094 L 478.804688 384.996094 Z M 478.804688 356.523438 " clip-rule="nonzero"/></clipPath><clipPath id="0dd55e7eb1"><path d="M 478.804688 294.242188 L 507.28125 294.242188 L 507.28125 322.714844 L 478.804688 322.714844 Z M 478.804688 294.242188 " clip-rule="nonzero"/></clipPath><clipPath id="d2e84af74b"><path d="M 122.511719 147.230469 L 157.730469 147.230469 L 157.730469 182.449219 L 122.511719 182.449219 Z M 122.511719 147.230469 " clip-rule="nonzero"/></clipPath><clipPath id="c28955c4d5"><path d="M 75.441406 90.859375 L 103.914062 90.859375 L 103.914062 119.335938 L 75.441406 119.335938 Z M 75.441406 90.859375 " clip-rule="nonzero"/></clipPath><clipPath id="06a5ce0784"><path d="M 30.292969 60.34375 L 58.769531 60.34375 L 58.769531 88.816406 L 30.292969 88.816406 Z M 30.292969 60.34375 " clip-rule="nonzero"/></clipPath><clipPath id="9a0221d54d"><path d="M 30.292969 122.625 L 58.769531 122.625 L 58.769531 151.097656 L 30.292969 151.097656 Z M 30.292969 122.625 " clip-rule="nonzero"/></clipPath><clipPath id="8baaf7d852"><path d="M 75.441406 208.171875 L 103.914062 208.171875 L 103.914062 236.648438 L 75.441406 236.648438 Z M 75.441406 208.171875 " clip-rule="nonzero"/></clipPath><clipPath id="32ac951f98"><path d="M 30.292969 177.652344 L 58.769531 177.652344 L 58.769531 206.128906 L 30.292969 206.128906 Z M 30.292969 177.652344 " clip-rule="nonzero"/></clipPath><clipPath id="91ebcfe4f0"><path d="M 30.292969 239.933594 L 58.769531 239.933594 L 58.769531 268.410156 L 30.292969 268.410156 Z M 30.292969 239.933594 " clip-rule="nonzero"/></clipPath></defs><g clip-path="url(#c1071f70f8)"><path fill="#ffffff" d="M 0.238281 0 L 536.761719 0 L 536.761719 569.492188 L 0.238281 569.492188 Z M 0.238281 0 " fill-opacity="1" fill-rule="nonzero"/><path fill="#ffffff" d="M 0.238281 0 L 536.761719 0 L 536.761719 562 L 0.238281 562 Z M 0.238281 0 " fill-opacity="1" fill-rule="nonzero"/><path fill="#ffffff" d="M 0.238281 0 L 536.761719 0 L 536.761719 562 L 0.238281 562 Z M 0.238281 0 " fill-opacity="1" fill-rule="nonzero"/></g><g clip-path="url(#e8fcf5ab02)"><path fill="#ffffff" d="M 208.773438 263.421875 C 199.046875 263.421875 191.164062 271.304688 191.164062 281.027344 C 191.164062 290.75 199.046875 298.632812 208.773438 298.632812 C 218.5 298.632812 226.382812 290.75 226.382812 281.027344 C 226.382812 271.304688 218.5 263.421875 208.773438 263.421875 " fill-opacity="1" fill-rule="nonzero"/></g><g clip-path="url(#31bc028c33)"><path fill="#ffffff" d="M 328.5 263.421875 C 318.773438 263.421875 310.890625 271.304688 310.890625 281.027344 C 310.890625 290.75 318.773438 298.632812 328.5 298.632812 C 338.222656 298.632812 346.109375 290.75 346.109375 281.027344 C 346.109375 271.304688 338.222656 263.421875 328.5 263.421875 " fill-opacity="1" fill-rule="nonzero"/></g><g clip-path="url(#afc24b2460)"><path fill="#ffffff" d="M 268.347656 255.777344 C 254.277344 255.777344 242.871094 267.183594 242.871094 281.253906 C 242.871094 295.324219 254.277344 306.730469 268.347656 306.730469 C 282.417969 306.730469 293.824219 295.324219 293.824219 281.253906 C 293.824219 267.183594 282.417969 255.777344 268.347656 255.777344 " fill-opacity="1" fill-rule="nonzero"/></g><path stroke-linecap="butt" transform="matrix(0.750727, 0, 0, 0.749334, 208.659958, 281.158967)" fill="none" stroke-linejoin="miter" d="M 0.000264297 0.502031 L 159.715268 0.502031 " stroke="#000000" stroke-width="1" stroke-opacity="1" stroke-miterlimit="4"/><path stroke-linecap="butt" transform="matrix(0.000000000000000046, -0.748281, 0.749334, 0.000000000000000046, 208.235777, 398.218998)" fill="none" stroke-linejoin="miter" d="M 0.000331849 0.498573 L 311.44844 0.498573 " stroke="#000000" stroke-width="1" stroke-opacity="1" stroke-miterlimit="4"/><g clip-path="url(#b61a46818d)"><path fill="#ffffff" d="M 139.5 380.496094 C 129.773438 380.496094 121.890625 388.378906 121.890625 398.101562 C 121.890625 407.824219 129.773438 415.707031 139.5 415.707031 C 149.222656 415.707031 157.109375 407.824219 157.109375 398.101562 C 157.109375 388.378906 149.222656 380.496094 139.5 380.496094 " fill-opacity="1" fill-rule="nonzero"/></g><path stroke-linecap="butt" transform="matrix(0.747665, 0, 0, 0.749334, 139.962199, 398.010441)" fill="none" stroke-linejoin="miter" d="M -0.00168674 0.502149 L 91.204145 0.502149 " stroke="#000000" stroke-width="1" stroke-opacity="1" stroke-miterlimit="4"/><path stroke-linecap="butt" transform="matrix(0.000000000000000046, -0.749036, 0.749334, 0.000000000000000046, 139.271567, 456.341163)" fill="none" stroke-linejoin="miter" d="M 0.00176102 0.497728 L 157.073511 0.497728 " stroke="#000000" stroke-width="1" stroke-opacity="1" stroke-miterlimit="4"/><g clip-path="url(#b2ed161fba)"><path fill="#ffffff" d="M 89.054688 324.121094 C 81.191406 324.121094 74.816406 330.496094 74.816406 338.359375 C 74.816406 346.222656 81.191406 352.59375 89.054688 352.59375 C 96.917969 352.59375 103.292969 346.222656 103.292969 338.359375 C 103.292969 330.496094 96.917969 324.121094 89.054688 324.121094 " fill-opacity="1" fill-rule="nonzero"/></g><path stroke-linecap="butt" transform="matrix(0.000000000000000046, 0.748348, -0.749334, 0.000000000000000046, 90.297865, 307.896399)" fill="none" stroke-linejoin="miter" d="M -0.00249546 0.501766 L 83.1129 0.501766 " stroke="#000000" stroke-width="1" stroke-opacity="1" stroke-miterlimit="4"/><path stroke-linecap="butt" transform="matrix(0.753838, 0, 0, 0.749334, 88.680568, 338.34886)" fill="none" stroke-linejoin="miter" d="M -0.00116743 0.498838 L 67.606032 0.498838 " stroke="#000000" stroke-width="1" stroke-opacity="1" stroke-miterlimit="4"/><path stroke-linecap="butt" transform="matrix(0.748567, 0, 0, 0.749334, 43.846646, 307.519538)" fill="none" stroke-linejoin="miter" d="M 0.00134914 0.500436 L 61.076385 0.500436 " stroke="#000000" stroke-width="1" stroke-opacity="1" stroke-miterlimit="4"/><g clip-path="url(#adf508c779)"><path fill="#ffffff" d="M 43.910156 293.601562 C 36.046875 293.601562 29.671875 299.976562 29.671875 307.839844 C 29.671875 315.703125 36.046875 322.078125 43.910156 322.078125 C 51.773438 322.078125 58.148438 315.703125 58.148438 307.839844 C 58.148438 299.976562 51.773438 293.601562 43.910156 293.601562 " fill-opacity="1" fill-rule="nonzero"/></g><path stroke-linecap="butt" transform="matrix(0.748567, 0, 0, 0.749334, 43.846646, 369.800628)" fill="none" stroke-linejoin="miter" d="M 0.00134914 0.50065 L 61.076385 0.50065 " stroke="#000000" stroke-width="1" stroke-opacity="1" stroke-miterlimit="4"/><g clip-path="url(#d3cd2e6bdf)"><path fill="#ffffff" d="M 43.910156 355.882812 C 36.046875 355.882812 29.671875 362.257812 29.671875 370.121094 C 29.671875 377.984375 36.046875 384.359375 43.910156 384.359375 C 51.773438 384.359375 58.148438 377.984375 58.148438 370.121094 C 58.148438 362.257812 51.773438 355.882812 43.910156 355.882812 " fill-opacity="1" fill-rule="nonzero"/></g><g clip-path="url(#253e1b933d)"><path fill="#ffffff" d="M 89.054688 441.433594 C 81.191406 441.433594 74.816406 447.804688 74.816406 455.667969 C 74.816406 463.53125 81.191406 469.90625 89.054688 469.90625 C 96.917969 469.90625 103.292969 463.53125 103.292969 455.667969 C 103.292969 447.804688 96.917969 441.433594 89.054688 441.433594 " fill-opacity="1" fill-rule="nonzero"/></g><path stroke-linecap="butt" transform="matrix(0.000000000000000046, 0.748348, -0.749334, 0.000000000000000046, 90.297865, 425.207599)" fill="none" stroke-linejoin="miter" d="M -0.000759101 0.501766 L 83.114636 0.501766 " stroke="#000000" stroke-width="1" stroke-opacity="1" stroke-miterlimit="4"/><path stroke-linecap="butt" transform="matrix(0.753838, 0, 0, 0.749334, 88.680568, 455.660024)" fill="none" stroke-linejoin="miter" d="M -0.00116743 0.500621 L 67.606032 0.500621 " stroke="#000000" stroke-width="1" stroke-opacity="1" stroke-miterlimit="4"/><path stroke-linecap="butt" transform="matrix(0.748567, 0, 0, 0.749334, 43.846646, 424.830678)" fill="none" stroke-linejoin="miter" d="M 0.00134914 0.50225 L 61.076385 0.50225 " stroke="#000000" stroke-width="1" stroke-opacity="1" stroke-miterlimit="4"/><g clip-path="url(#af888c69a8)"><path fill="#ffffff" d="M 43.910156 410.914062 C 36.046875 410.914062 29.671875 417.289062 29.671875 425.152344 C 29.671875 433.015625 36.046875 439.386719 43.910156 439.386719 C 51.773438 439.386719 58.148438 433.015625 58.148438 425.152344 C 58.148438 417.289062 51.773438 410.914062 43.910156 410.914062 " fill-opacity="1" fill-rule="nonzero"/></g><path stroke-linecap="butt" transform="matrix(0.748567, 0, 0, 0.749334, 43.846646, 487.111809)" fill="none" stroke-linejoin="miter" d="M 0.00134914 0.502409 L 61.076385 0.502409 " stroke="#000000" stroke-width="1" stroke-opacity="1" stroke-miterlimit="4"/><g clip-path="url(#7719431d1b)"><path fill="#ffffff" d="M 43.910156 473.195312 C 36.046875 473.195312 29.671875 479.570312 29.671875 487.433594 C 29.671875 495.296875 36.046875 501.667969 43.910156 501.667969 C 51.773438 501.667969 58.148438 495.296875 58.148438 487.433594 C 58.148438 479.570312 51.773438 473.195312 43.910156 473.195312 " fill-opacity="1" fill-rule="nonzero"/></g><g clip-path="url(#846a8a88a4)"><path fill="#ffffff" d="M 397.15625 182.628906 C 406.882812 182.628906 414.765625 174.746094 414.765625 165.019531 C 414.765625 155.296875 406.882812 147.414062 397.15625 147.414062 C 387.429688 147.414062 379.546875 155.296875 379.546875 165.019531 C 379.546875 174.746094 387.429688 182.628906 397.15625 182.628906 " fill-opacity="1" fill-rule="nonzero"/></g><path stroke-linecap="butt" transform="matrix(-0.747665, -0.000000000000000092, 0.000000000000000092, -0.749334, 396.703403, 165.11604)" fill="none" stroke-linejoin="miter" d="M 0.00037246 0.498913 L 91.20098 0.498913 " stroke="#000000" stroke-width="1" stroke-opacity="1" stroke-miterlimit="4"/><path stroke-linecap="butt" transform="matrix(0.000000000000000046, 0.749036, -0.749334, 0.000000000000000046, 397.38477, 106.785338)" fill="none" stroke-linejoin="miter" d="M -0.000242209 0.497844 L 157.076723 0.497844 " stroke="#000000" stroke-width="1" stroke-opacity="1" stroke-miterlimit="4"/><g clip-path="url(#5e29a87590)"><path fill="#ffffff" d="M 447.609375 239.003906 C 455.472656 239.003906 461.84375 232.628906 461.84375 224.765625 C 461.84375 216.902344 455.472656 210.527344 447.609375 210.527344 C 439.746094 210.527344 433.371094 216.902344 433.371094 224.765625 C 433.371094 232.628906 439.746094 239.003906 447.609375 239.003906 " fill-opacity="1" fill-rule="nonzero"/></g><path stroke-linecap="butt" transform="matrix(0.000000000000000046, -0.748348, 0.749334, 0.000000000000000046, 446.363555, 255.230083)" fill="none" stroke-linejoin="miter" d="M -0.000516021 0.500079 L 83.114879 0.500079 " stroke="#000000" stroke-width="1" stroke-opacity="1" stroke-miterlimit="4"/><path stroke-linecap="butt" transform="matrix(-0.753838, -0.000000000000000092, 0.000000000000000092, -0.749334, 447.976337, 224.777607)" fill="none" stroke-linejoin="miter" d="M -0.00029851 0.500796 L 67.606901 0.500796 " stroke="#000000" stroke-width="1" stroke-opacity="1" stroke-miterlimit="4"/><path stroke-linecap="butt" transform="matrix(-0.748567, -0.000000000000000092, 0.000000000000000092, -0.749334, 492.80782, 255.606946)" fill="none" stroke-linejoin="miter" d="M -0.00103356 0.502416 L 61.079221 0.502416 " stroke="#000000" stroke-width="1" stroke-opacity="1" stroke-miterlimit="4"/><g clip-path="url(#e99179706b)"><path fill="#ffffff" d="M 492.753906 269.519531 C 500.617188 269.519531 506.992188 263.148438 506.992188 255.285156 C 506.992188 247.421875 500.617188 241.046875 492.753906 241.046875 C 484.890625 241.046875 478.515625 247.421875 478.515625 255.285156 C 478.515625 263.148438 484.890625 269.519531 492.753906 269.519531 " fill-opacity="1" fill-rule="nonzero"/></g><path stroke-linecap="butt" transform="matrix(-0.748567, -0.000000000000000092, 0.000000000000000092, -0.749334, 492.80782, 193.325871)" fill="none" stroke-linejoin="miter" d="M -0.00103356 0.497436 L 61.079221 0.497436 " stroke="#000000" stroke-width="1" stroke-opacity="1" stroke-miterlimit="4"/><g clip-path="url(#5440e679da)"><path fill="#ffffff" d="M 492.753906 207.238281 C 500.617188 207.238281 506.992188 200.867188 506.992188 193.003906 C 506.992188 185.140625 500.617188 178.765625 492.753906 178.765625 C 484.890625 178.765625 478.515625 185.140625 478.515625 193.003906 C 478.515625 200.867188 484.890625 207.238281 492.753906 207.238281 " fill-opacity="1" fill-rule="nonzero"/></g><g clip-path="url(#a4b06bf68c)"><path fill="#ffffff" d="M 447.609375 121.691406 C 455.472656 121.691406 461.84375 115.316406 461.84375 107.453125 C 461.84375 99.589844 455.472656 93.21875 447.609375 93.21875 C 439.746094 93.21875 433.371094 99.589844 433.371094 107.453125 C 433.371094 115.316406 439.746094 121.691406 447.609375 121.691406 " fill-opacity="1" fill-rule="nonzero"/></g><path stroke-linecap="butt" transform="matrix(0.000000000000000046, -0.748348, 0.749334, 0.000000000000000046, 446.363555, 137.918923)" fill="none" stroke-linejoin="miter" d="M 0.00127481 0.500079 L 83.11667 0.500079 " stroke="#000000" stroke-width="1" stroke-opacity="1" stroke-miterlimit="4"/><path stroke-linecap="butt" transform="matrix(-0.753838, -0.000000000000000092, 0.000000000000000092, -0.749334, 447.976337, 107.466464)" fill="none" stroke-linejoin="miter" d="M -0.00029851 0.497394 L 67.606901 0.497394 " stroke="#000000" stroke-width="1" stroke-opacity="1" stroke-miterlimit="4"/><path stroke-linecap="butt" transform="matrix(-0.748567, -0.000000000000000092, 0.000000000000000092, -0.749334, 492.80782, 138.295801)" fill="none" stroke-linejoin="miter" d="M -0.00103356 0.499011 L 61.079221 0.499011 " stroke="#000000" stroke-width="1" stroke-opacity="1" stroke-miterlimit="4"/><g clip-path="url(#74bbeab1a9)"><path fill="#ffffff" d="M 492.753906 152.210938 C 500.617188 152.210938 506.992188 145.835938 506.992188 137.972656 C 506.992188 130.109375 500.617188 123.734375 492.753906 123.734375 C 484.890625 123.734375 478.515625 130.109375 478.515625 137.972656 C 478.515625 145.835938 484.890625 152.210938 492.753906 152.210938 " fill-opacity="1" fill-rule="nonzero"/></g><path stroke-linecap="butt" transform="matrix(-0.748567, -0.000000000000000092, 0.000000000000000092, -0.749334, 492.80782, 76.014718)" fill="none" stroke-linejoin="miter" d="M -0.00103356 0.499234 L 61.079221 0.499234 " stroke="#000000" stroke-width="1" stroke-opacity="1" stroke-miterlimit="4"/><g clip-path="url(#176553d888)"><path fill="#ffffff" d="M 492.753906 89.929688 C 500.617188 89.929688 506.992188 83.554688 506.992188 75.691406 C 506.992188 67.828125 500.617188 61.453125 492.753906 61.453125 C 484.890625 61.453125 478.515625 67.828125 478.515625 75.691406 C 478.515625 83.554688 484.890625 89.929688 492.753906 89.929688 " fill-opacity="1" fill-rule="nonzero"/></g><path stroke-linecap="butt" transform="matrix(0.000000000000000046, -0.748281, 0.749334, 0.000000000000000046, 327.960538, 397.685535)" fill="none" stroke-linejoin="miter" d="M 0.0025942 0.500978 L 311.450702 0.500978 " stroke="#000000" stroke-width="1" stroke-opacity="1" stroke-miterlimit="4"/><g clip-path="url(#67d6b267b6)"><path fill="#ffffff" d="M 397.445312 415.414062 C 407.171875 415.414062 415.054688 407.53125 415.054688 397.808594 C 415.054688 388.085938 407.171875 380.203125 397.445312 380.203125 C 387.722656 380.203125 379.835938 388.085938 379.835938 397.808594 C 379.835938 407.53125 387.722656 415.414062 397.445312 415.414062 " fill-opacity="1" fill-rule="nonzero"/></g><path stroke-linecap="butt" transform="matrix(-0.747665, -0.000000000000000092, 0.000000000000000092, -0.749334, 396.992833, 397.903662)" fill="none" stroke-linejoin="miter" d="M 0.000863868 0.502203 L 91.201471 0.502203 " stroke="#000000" stroke-width="1" stroke-opacity="1" stroke-miterlimit="4"/><path stroke-linecap="butt" transform="matrix(0.000000000000000046, 0.749036, -0.749334, 0.000000000000000046, 397.674202, 339.572909)" fill="none" stroke-linejoin="miter" d="M 0.00174837 0.498337 L 157.073498 0.498337 " stroke="#000000" stroke-width="1" stroke-opacity="1" stroke-miterlimit="4"/><g clip-path="url(#580716d6f3)"><path fill="#ffffff" d="M 447.898438 471.789062 C 455.761719 471.789062 462.136719 465.417969 462.136719 457.554688 C 462.136719 449.691406 455.761719 443.316406 447.898438 443.316406 C 440.035156 443.316406 433.660156 449.691406 433.660156 457.554688 C 433.660156 465.417969 440.035156 471.789062 447.898438 471.789062 " fill-opacity="1" fill-rule="nonzero"/></g><path stroke-linecap="butt" transform="matrix(0.000000000000000046, -0.748348, 0.749334, 0.000000000000000046, 446.652978, 488.017676)" fill="none" stroke-linejoin="miter" d="M -0.00247959 0.499598 L 83.112915 0.499598 " stroke="#000000" stroke-width="1" stroke-opacity="1" stroke-miterlimit="4"/><path stroke-linecap="butt" transform="matrix(-0.753838, -0.000000000000000092, 0.000000000000000092, -0.749334, 448.265736, 457.565179)" fill="none" stroke-linejoin="miter" d="M 0.000147523 0.498806 L 67.607347 0.498806 " stroke="#000000" stroke-width="1" stroke-opacity="1" stroke-miterlimit="4"/><path stroke-linecap="butt" transform="matrix(-0.748567, -0.000000000000000092, 0.000000000000000092, -0.749334, 493.097243, 488.394549)" fill="none" stroke-linejoin="miter" d="M -0.000552351 0.500468 L 61.079702 0.500468 " stroke="#000000" stroke-width="1" stroke-opacity="1" stroke-miterlimit="4"/><g clip-path="url(#cf7c78bb41)"><path fill="#ffffff" d="M 493.042969 502.308594 C 500.90625 502.308594 507.28125 495.933594 507.28125 488.070312 C 507.28125 480.207031 500.90625 473.835938 493.042969 473.835938 C 485.179688 473.835938 478.804688 480.207031 478.804688 488.070312 C 478.804688 495.933594 485.179688 502.308594 493.042969 502.308594 " fill-opacity="1" fill-rule="nonzero"/></g><path stroke-linecap="butt" transform="matrix(-0.748567, -0.000000000000000092, 0.000000000000000092, -0.749334, 493.097243, 426.113466)" fill="none" stroke-linejoin="miter" d="M -0.000552351 0.500691 L 61.079702 0.500691 " stroke="#000000" stroke-width="1" stroke-opacity="1" stroke-miterlimit="4"/><g clip-path="url(#9132176634)"><path fill="#ffffff" d="M 493.042969 440.027344 C 500.90625 440.027344 507.28125 433.652344 507.28125 425.789062 C 507.28125 417.925781 500.90625 411.554688 493.042969 411.554688 C 485.179688 411.554688 478.804688 417.925781 478.804688 425.789062 C 478.804688 433.652344 485.179688 440.027344 493.042969 440.027344 " fill-opacity="1" fill-rule="nonzero"/></g><g clip-path="url(#b0a86887e8)"><path fill="#ffffff" d="M 447.898438 354.480469 C 455.761719 354.480469 462.136719 348.105469 462.136719 340.242188 C 462.136719 332.378906 455.761719 326.003906 447.898438 326.003906 C 440.035156 326.003906 433.660156 332.378906 433.660156 340.242188 C 433.660156 348.105469 440.035156 354.480469 447.898438 354.480469 " fill-opacity="1" fill-rule="nonzero"/></g><path stroke-linecap="butt" transform="matrix(0.000000000000000046, -0.748348, 0.749334, 0.000000000000000046, 446.652978, 370.70653)" fill="none" stroke-linejoin="miter" d="M -0.00066953 0.499598 L 83.114726 0.499598 " stroke="#000000" stroke-width="1" stroke-opacity="1" stroke-miterlimit="4"/><path stroke-linecap="butt" transform="matrix(-0.753838, -0.000000000000000092, 0.000000000000000092, -0.749334, 448.265736, 340.254072)" fill="none" stroke-linejoin="miter" d="M 0.000147523 0.500665 L 67.607347 0.500665 " stroke="#000000" stroke-width="1" stroke-opacity="1" stroke-miterlimit="4"/><path stroke-linecap="butt" transform="matrix(-0.748567, -0.000000000000000092, 0.000000000000000092, -0.749334, 493.097243, 371.083394)" fill="none" stroke-linejoin="miter" d="M -0.000552351 0.502263 L 61.079702 0.502263 " stroke="#000000" stroke-width="1" stroke-opacity="1" stroke-miterlimit="4"/><g clip-path="url(#0ac92bd378)"><path fill="#ffffff" d="M 493.042969 384.996094 C 500.90625 384.996094 507.28125 378.621094 507.28125 370.761719 C 507.28125 362.898438 500.90625 356.523438 493.042969 356.523438 C 485.179688 356.523438 478.804688 362.898438 478.804688 370.761719 C 478.804688 378.621094 485.179688 384.996094 493.042969 384.996094 " fill-opacity="1" fill-rule="nonzero"/></g><path stroke-linecap="butt" transform="matrix(-0.748567, -0.000000000000000092, 0.000000000000000092, -0.749334, 493.097243, 308.802304)" fill="none" stroke-linejoin="miter" d="M -0.000552351 0.502476 L 61.079702 0.502476 " stroke="#000000" stroke-width="1" stroke-opacity="1" stroke-miterlimit="4"/><g clip-path="url(#0dd55e7eb1)"><path fill="#ffffff" d="M 493.042969 322.714844 C 500.90625 322.714844 507.28125 316.34375 507.28125 308.480469 C 507.28125 300.617188 500.90625 294.242188 493.042969 294.242188 C 485.179688 294.242188 478.804688 300.617188 478.804688 308.480469 C 478.804688 316.34375 485.179688 322.714844 493.042969 322.714844 " fill-opacity="1" fill-rule="nonzero"/></g><g clip-path="url(#d2e84af74b)"><path fill="#ffffff" d="M 140.121094 147.234375 C 130.394531 147.234375 122.511719 155.117188 122.511719 164.839844 C 122.511719 174.566406 130.394531 182.445312 140.121094 182.445312 C 149.847656 182.445312 157.730469 174.566406 157.730469 164.839844 C 157.730469 155.117188 149.847656 147.234375 140.121094 147.234375 " fill-opacity="1" fill-rule="nonzero"/></g><path stroke-linecap="butt" transform="matrix(0.747665, 0, 0, 0.749334, 140.584613, 164.7503)" fill="none" stroke-linejoin="miter" d="M 0.0017711 0.500044 L 91.202378 0.500044 " stroke="#000000" stroke-width="1" stroke-opacity="1" stroke-miterlimit="4"/><path stroke-linecap="butt" transform="matrix(0.000000000000000046, -0.749036, 0.749334, 0.000000000000000046, 139.893982, 223.080995)" fill="none" stroke-linejoin="miter" d="M -0.00138285 0.501178 L 157.075582 0.501178 " stroke="#000000" stroke-width="1" stroke-opacity="1" stroke-miterlimit="4"/><g clip-path="url(#c28955c4d5)"><path fill="#ffffff" d="M 89.675781 90.859375 C 81.8125 90.859375 75.441406 97.234375 75.441406 105.097656 C 75.441406 112.960938 81.8125 119.335938 89.675781 119.335938 C 97.539062 119.335938 103.914062 112.960938 103.914062 105.097656 C 103.914062 97.234375 97.539062 90.859375 89.675781 90.859375 " fill-opacity="1" fill-rule="nonzero"/></g><path stroke-linecap="butt" transform="matrix(0.000000000000000046, 0.748348, -0.749334, 0.000000000000000046, 90.92028, 74.636251)" fill="none" stroke-linejoin="miter" d="M 0.000625664 0.498316 L 83.116021 0.498316 " stroke="#000000" stroke-width="1" stroke-opacity="1" stroke-miterlimit="4"/><path stroke-linecap="butt" transform="matrix(0.753838, 0, 0, 0.749334, 89.302985, 105.088712)" fill="none" stroke-linejoin="miter" d="M 0.00225891 0.501955 L 67.604276 0.501955 " stroke="#000000" stroke-width="1" stroke-opacity="1" stroke-miterlimit="4"/><path stroke-linecap="butt" transform="matrix(0.748567, 0, 0, 0.749334, 44.469059, 74.25939)" fill="none" stroke-linejoin="miter" d="M -0.000412291 0.49834 L 61.079842 0.49834 " stroke="#000000" stroke-width="1" stroke-opacity="1" stroke-miterlimit="4"/><g clip-path="url(#06a5ce0784)"><path fill="#ffffff" d="M 44.53125 60.34375 C 36.667969 60.34375 30.292969 66.71875 30.292969 74.578125 C 30.292969 82.441406 36.667969 88.816406 44.53125 88.816406 C 52.394531 88.816406 58.769531 82.441406 58.769531 74.578125 C 58.769531 66.71875 52.394531 60.34375 44.53125 60.34375 " fill-opacity="1" fill-rule="nonzero"/></g><path stroke-linecap="butt" transform="matrix(0.748567, 0, 0, 0.749334, 44.469059, 136.540458)" fill="none" stroke-linejoin="miter" d="M -0.000412291 0.498582 L 61.079842 0.498582 " stroke="#000000" stroke-width="1" stroke-opacity="1" stroke-miterlimit="4"/><g clip-path="url(#9a0221d54d)"><path fill="#ffffff" d="M 44.53125 122.625 C 36.667969 122.625 30.292969 129 30.292969 136.859375 C 30.292969 144.722656 36.667969 151.097656 44.53125 151.097656 C 52.394531 151.097656 58.769531 144.722656 58.769531 136.859375 C 58.769531 129 52.394531 122.625 44.53125 122.625 " fill-opacity="1" fill-rule="nonzero"/></g><g clip-path="url(#8baaf7d852)"><path fill="#ffffff" d="M 89.675781 208.171875 C 81.8125 208.171875 75.441406 214.546875 75.441406 222.410156 C 75.441406 230.273438 81.8125 236.644531 89.675781 236.644531 C 97.539062 236.644531 103.914062 230.273438 103.914062 222.410156 C 103.914062 214.546875 97.539062 208.171875 89.675781 208.171875 " fill-opacity="1" fill-rule="nonzero"/></g><path stroke-linecap="butt" transform="matrix(0.000000000000000046, 0.748348, -0.749334, 0.000000000000000046, 90.92028, 191.947418)" fill="none" stroke-linejoin="miter" d="M 0.00240688 0.498316 L 83.117802 0.498316 " stroke="#000000" stroke-width="1" stroke-opacity="1" stroke-miterlimit="4"/><path stroke-linecap="butt" transform="matrix(0.753838, 0, 0, 0.749334, 89.302985, 222.399879)" fill="none" stroke-linejoin="miter" d="M 0.00225891 0.498521 L 67.604276 0.498521 " stroke="#000000" stroke-width="1" stroke-opacity="1" stroke-miterlimit="4"/><path stroke-linecap="butt" transform="matrix(0.748567, 0, 0, 0.749334, 44.469059, 191.570542)" fill="none" stroke-linejoin="miter" d="M -0.000412291 0.500138 L 61.079842 0.500138 " stroke="#000000" stroke-width="1" stroke-opacity="1" stroke-miterlimit="4"/><g clip-path="url(#32ac951f98)"><path fill="#ffffff" d="M 44.53125 177.652344 C 36.667969 177.652344 30.292969 184.027344 30.292969 191.890625 C 30.292969 199.753906 36.667969 206.128906 44.53125 206.128906 C 52.394531 206.128906 58.769531 199.753906 58.769531 191.890625 C 58.769531 184.027344 52.394531 177.652344 44.53125 177.652344 " fill-opacity="1" fill-rule="nonzero"/></g><path stroke-linecap="butt" transform="matrix(0.748567, 0, 0, 0.749334, 44.469059, 253.851632)" fill="none" stroke-linejoin="miter" d="M -0.000412291 0.500352 L 61.079842 0.500352 " stroke="#000000" stroke-width="1" stroke-opacity="1" stroke-miterlimit="4"/><g clip-path="url(#91ebcfe4f0)"><path fill="#ffffff" d="M 44.53125 239.933594 C 36.667969 239.933594 30.292969 246.308594 30.292969 254.171875 C 30.292969 262.035156 36.667969 268.410156 44.53125 268.410156 C 52.394531 268.410156 58.769531 262.035156 58.769531 254.171875 C 58.769531 246.308594 52.394531 239.933594 44.53125 239.933594 " fill-opacity="1" fill-rule="nonzero"/></g></svg>