<svg width="36" height="85" viewBox="0 0 36 85" fill="none" xmlns="http://www.w3.org/2000/svg">
<path d="M20.6824 30.1561C24.0788 30.1561 26.8322 27.4028 26.8322 24.0064C26.8322 20.61 24.0788 17.8567 20.6824 17.8567C17.286 17.8567 14.5327 20.61 14.5327 24.0064C14.5327 27.4028 17.286 30.1561 20.6824 30.1561Z" fill="#D5BA81"/>
<path d="M20.3299 32.7566C27.2178 32.4553 29.7488 25.6306 30.5142 24.0186C31.2795 22.4066 32.7077 16.8656 33.1597 15.9616C33.6116 15.0577 34.2383 14.8227 34.8229 14.9251C36.1245 15.1571 36.0552 17.4079 35.9468 18.3781C35.8383 19.3484 35.2538 27.7398 32.5601 34.691C29.8664 41.6422 24.8375 48.8284 22.9001 52.4683C20.9627 56.1081 18.965 60.001 17.6091 67.9706C20.125 60.8416 24.256 52.0434 28.8992 45.0982C25.868 52.3477 24.0782 57.4037 25.3527 65.0569C25.868 68.1966 29.1944 74.1776 29.1944 74.1776C29.1944 74.1776 24.5211 77.2539 17.6302 77.5613C10.0221 77.9018 5.60193 74.3885 5.60193 74.3885C5.60193 74.3885 12.4477 59.6786 11.8692 49.8077C11.3057 40.2532 8.01541 30.9909 7.0693 24.3983C6.12319 17.8056 5.94241 15.6603 6.74389 15.2777C7.54537 14.895 8.39205 15.1963 8.97057 17.0855C9.54908 18.9747 12.4477 33.088 20.3299 32.7566Z" fill="#D5BA81"/>
<path d="M5.12281 75.47C5.12281 75.47 9.91061 79.0857 18.1394 78.8266C24.5904 78.6277 29.5891 75.2621 29.5891 75.2621L31.5416 79.2514C31.5416 79.2514 27.5131 83.9157 17.7989 84C8.08468 84.0844 2.86902 80.1825 2.86902 80.1825L5.12281 75.47Z" fill="#D5BA81"/>
<path d="M0.383301 20.1226L4.52028 21.605C4.56246 21.7587 6.54507 30.9125 8.13599 37.9932C9.09114 42.2537 11.8782 49.7985 8.47948 61.9684C9.08511 43.9561 1.48911 31.3283 0.383301 20.1226Z" fill="#D5BA81"/>
<path d="M0.0186384 18.1971L4.19177 19.6042C4.19177 19.6042 3.99592 18.3778 3.86636 17.0882C3.73679 15.7986 4.21889 13.7136 5.6019 12.8307C6.98491 11.9479 9.17241 12.6921 10.1908 14.4548C11.2093 16.2175 12.5139 20.4569 12.5139 20.4569C12.5139 20.4569 15.0268 14.3614 21.5532 14.9128C23.065 15.0301 24.5207 15.5365 25.7789 16.3829C27.0371 17.2292 28.0549 18.3867 28.7334 19.7428C29.9386 16.9587 30.4479 11.4116 34.5487 11.9087C33.3434 6.96726 26.3561 -1.62005 15.3432 0.266147C-1.16551 3.08941 0.0186384 18.1971 0.0186384 18.1971Z" fill="#D5BA81"/>
</svg>
