<svg xmlns="http://www.w3.org/2000/svg" xmlns:xlink="http://www.w3.org/1999/xlink" width="720" zoomAndPan="magnify" viewBox="0 0 540 507.000007" height="676" preserveAspectRatio="xMidYMid meet" version="1.0"><defs><clipPath id="0dcef10d5a"><path d="M 0.53125 0 L 539.46875 0 L 539.46875 506.003906 L 0.53125 506.003906 Z M 0.53125 0 " clip-rule="nonzero"/></clipPath><clipPath id="579185c00b"><path d="M 249.304688 232.304688 L 290.472656 232.304688 L 290.472656 273.476562 L 249.304688 273.476562 Z M 249.304688 232.304688 " clip-rule="nonzero"/></clipPath><clipPath id="0873490989"><path d="M 255.339844 171.546875 L 284.53125 171.546875 L 284.53125 200.742188 L 255.339844 200.742188 Z M 255.339844 171.546875 " clip-rule="nonzero"/></clipPath><clipPath id="bbd37f2855"><path d="M 255.335938 171.664062 L 284.527344 171.664062 L 284.527344 200.855469 L 255.335938 200.855469 Z M 255.335938 171.664062 " clip-rule="nonzero"/></clipPath><clipPath id="667f4e4162"><path d="M 391.84375 107.691406 L 421.035156 107.691406 L 421.035156 136.886719 L 391.84375 136.886719 Z M 391.84375 107.691406 " clip-rule="nonzero"/></clipPath><clipPath id="445b1fb1f4"><path d="M 131.480469 107.691406 L 160.675781 107.691406 L 160.675781 136.886719 L 131.480469 136.886719 Z M 131.480469 107.691406 " clip-rule="nonzero"/></clipPath><clipPath id="a2c2dfcbf8"><path d="M 328.644531 60.859375 L 353.347656 60.859375 L 353.347656 85.558594 L 328.644531 85.558594 Z M 328.644531 60.859375 " clip-rule="nonzero"/></clipPath><clipPath id="e2cdbf1ba1"><path d="M 458.710938 60.859375 L 483.410156 60.859375 L 483.410156 85.558594 L 458.710938 85.558594 Z M 458.710938 60.859375 " clip-rule="nonzero"/></clipPath><clipPath id="6cd8f79ebb"><path d="M 197.933594 60.859375 L 222.636719 60.859375 L 222.636719 85.558594 L 197.933594 85.558594 Z M 197.933594 60.859375 " clip-rule="nonzero"/></clipPath><clipPath id="0b5b2091c8"><path d="M 67.226562 60.859375 L 91.925781 60.859375 L 91.925781 85.558594 L 67.226562 85.558594 Z M 67.226562 60.859375 " clip-rule="nonzero"/></clipPath><clipPath id="028fff7fa8"><path d="M 493.894531 14.796875 L 518.597656 14.796875 L 518.597656 39.5 L 493.894531 39.5 Z M 493.894531 14.796875 " clip-rule="nonzero"/></clipPath><clipPath id="5b045f6e32"><path d="M 427.878906 14.796875 L 452.582031 14.796875 L 452.582031 39.5 L 427.878906 39.5 Z M 427.878906 14.796875 " clip-rule="nonzero"/></clipPath><clipPath id="03cc94880e"><path d="M 361.609375 14.796875 L 386.308594 14.796875 L 386.308594 39.5 L 361.609375 39.5 Z M 361.609375 14.796875 " clip-rule="nonzero"/></clipPath><clipPath id="7e13b6c7ee"><path d="M 295.335938 14.796875 L 320.039062 14.796875 L 320.039062 39.5 L 295.335938 39.5 Z M 295.335938 14.796875 " clip-rule="nonzero"/></clipPath><clipPath id="f1b61a22a1"><path d="M 231.429688 14.796875 L 256.132812 14.796875 L 256.132812 39.5 L 231.429688 39.5 Z M 231.429688 14.796875 " clip-rule="nonzero"/></clipPath><clipPath id="5a9dcd0ae4"><path d="M 165.160156 14.796875 L 189.859375 14.796875 L 189.859375 39.5 L 165.160156 39.5 Z M 165.160156 14.796875 " clip-rule="nonzero"/></clipPath><clipPath id="c4ee3ff931"><path d="M 98.886719 14.796875 L 123.589844 14.796875 L 123.589844 39.5 L 98.886719 39.5 Z M 98.886719 14.796875 " clip-rule="nonzero"/></clipPath><clipPath id="d43ae1d737"><path d="M 32.617188 14.796875 L 57.316406 14.796875 L 57.316406 39.5 L 32.617188 39.5 Z M 32.617188 14.796875 " clip-rule="nonzero"/></clipPath><clipPath id="3d83b90297"><path d="M 255.339844 305.261719 L 284.53125 305.261719 L 284.53125 334.453125 L 255.339844 334.453125 Z M 255.339844 305.261719 " clip-rule="nonzero"/></clipPath><clipPath id="fded9b9305"><path d="M 118.835938 369.234375 L 148.027344 369.234375 L 148.027344 398.425781 L 118.835938 398.425781 Z M 118.835938 369.234375 " clip-rule="nonzero"/></clipPath><clipPath id="af9c10c169"><path d="M 379.195312 369.234375 L 408.386719 369.234375 L 408.386719 398.425781 L 379.195312 398.425781 Z M 379.195312 369.234375 " clip-rule="nonzero"/></clipPath><clipPath id="d4f4aa153f"><path d="M 186.527344 420.566406 L 211.230469 420.566406 L 211.230469 445.265625 L 186.527344 445.265625 Z M 186.527344 420.566406 " clip-rule="nonzero"/></clipPath><clipPath id="3b3b6ccd7e"><path d="M 56.464844 420.566406 L 81.164062 420.566406 L 81.164062 445.265625 L 56.464844 445.265625 Z M 56.464844 420.566406 " clip-rule="nonzero"/></clipPath><clipPath id="83d373bdd5"><path d="M 317.238281 420.566406 L 341.941406 420.566406 L 341.941406 445.265625 L 317.238281 445.265625 Z M 317.238281 420.566406 " clip-rule="nonzero"/></clipPath><clipPath id="c4aabf365c"><path d="M 447.949219 420.566406 L 472.652344 420.566406 L 472.652344 445.265625 L 447.949219 445.265625 Z M 447.949219 420.566406 " clip-rule="nonzero"/></clipPath><clipPath id="4cb0510796"><path d="M 21.277344 466.628906 L 45.980469 466.628906 L 45.980469 491.328125 L 21.277344 491.328125 Z M 21.277344 466.628906 " clip-rule="nonzero"/></clipPath><clipPath id="4951b3ec32"><path d="M 87.292969 466.628906 L 111.996094 466.628906 L 111.996094 491.328125 L 87.292969 491.328125 Z M 87.292969 466.628906 " clip-rule="nonzero"/></clipPath><clipPath id="7b478eaa26"><path d="M 153.566406 466.628906 L 178.269531 466.628906 L 178.269531 491.328125 L 153.566406 491.328125 Z M 153.566406 466.628906 " clip-rule="nonzero"/></clipPath><clipPath id="ee76123b63"><path d="M 219.839844 466.628906 L 244.539062 466.628906 L 244.539062 491.328125 L 219.839844 491.328125 Z M 219.839844 466.628906 " clip-rule="nonzero"/></clipPath><clipPath id="f033001e9f"><path d="M 283.742188 466.628906 L 308.445312 466.628906 L 308.445312 491.328125 L 283.742188 491.328125 Z M 283.742188 466.628906 " clip-rule="nonzero"/></clipPath><clipPath id="9f776f433b"><path d="M 350.015625 466.628906 L 374.71875 466.628906 L 374.71875 491.328125 L 350.015625 491.328125 Z M 350.015625 466.628906 " clip-rule="nonzero"/></clipPath><clipPath id="c8b7dbe18d"><path d="M 416.289062 466.628906 L 440.988281 466.628906 L 440.988281 491.328125 L 416.289062 491.328125 Z M 416.289062 466.628906 " clip-rule="nonzero"/></clipPath><clipPath id="0dac07e772"><path d="M 482.558594 466.628906 L 507.261719 466.628906 L 507.261719 491.328125 L 482.558594 491.328125 Z M 482.558594 466.628906 " clip-rule="nonzero"/></clipPath><clipPath id="a6f902613f"><path d="M 255.335938 171.664062 L 284.527344 171.664062 L 284.527344 200.855469 L 255.335938 200.855469 Z M 255.335938 171.664062 " clip-rule="nonzero"/></clipPath><clipPath id="8f10eb413f"><path d="M 391.84375 107.691406 L 421.035156 107.691406 L 421.035156 136.886719 L 391.84375 136.886719 Z M 391.84375 107.691406 " clip-rule="nonzero"/></clipPath><clipPath id="7c6300fc3f"><path d="M 131.480469 107.691406 L 160.675781 107.691406 L 160.675781 136.886719 L 131.480469 136.886719 Z M 131.480469 107.691406 " clip-rule="nonzero"/></clipPath><clipPath id="1f65bf0e6f"><path d="M 328.644531 60.859375 L 353.347656 60.859375 L 353.347656 85.558594 L 328.644531 85.558594 Z M 328.644531 60.859375 " clip-rule="nonzero"/></clipPath><clipPath id="3c9736b0c4"><path d="M 458.710938 60.859375 L 483.410156 60.859375 L 483.410156 85.558594 L 458.710938 85.558594 Z M 458.710938 60.859375 " clip-rule="nonzero"/></clipPath><clipPath id="a15a611100"><path d="M 197.933594 60.859375 L 222.636719 60.859375 L 222.636719 85.558594 L 197.933594 85.558594 Z M 197.933594 60.859375 " clip-rule="nonzero"/></clipPath><clipPath id="809470740b"><path d="M 67.226562 60.859375 L 91.925781 60.859375 L 91.925781 85.558594 L 67.226562 85.558594 Z M 67.226562 60.859375 " clip-rule="nonzero"/></clipPath><clipPath id="4369968c73"><path d="M 493.894531 14.796875 L 518.597656 14.796875 L 518.597656 39.5 L 493.894531 39.5 Z M 493.894531 14.796875 " clip-rule="nonzero"/></clipPath><clipPath id="23f619faa8"><path d="M 427.878906 14.796875 L 452.582031 14.796875 L 452.582031 39.5 L 427.878906 39.5 Z M 427.878906 14.796875 " clip-rule="nonzero"/></clipPath><clipPath id="87b5d0cd29"><path d="M 361.609375 14.796875 L 386.308594 14.796875 L 386.308594 39.5 L 361.609375 39.5 Z M 361.609375 14.796875 " clip-rule="nonzero"/></clipPath><clipPath id="e044aa2ecd"><path d="M 295.335938 14.796875 L 320.039062 14.796875 L 320.039062 39.5 L 295.335938 39.5 Z M 295.335938 14.796875 " clip-rule="nonzero"/></clipPath><clipPath id="031b1bebe5"><path d="M 231.429688 14.796875 L 256.132812 14.796875 L 256.132812 39.5 L 231.429688 39.5 Z M 231.429688 14.796875 " clip-rule="nonzero"/></clipPath><clipPath id="256e3b091d"><path d="M 165.160156 14.796875 L 189.859375 14.796875 L 189.859375 39.5 L 165.160156 39.5 Z M 165.160156 14.796875 " clip-rule="nonzero"/></clipPath><clipPath id="bb2053abe3"><path d="M 98.886719 14.796875 L 123.589844 14.796875 L 123.589844 39.5 L 98.886719 39.5 Z M 98.886719 14.796875 " clip-rule="nonzero"/></clipPath><clipPath id="f168c76230"><path d="M 32.617188 14.796875 L 57.316406 14.796875 L 57.316406 39.5 L 32.617188 39.5 Z M 32.617188 14.796875 " clip-rule="nonzero"/></clipPath></defs><g clip-path="url(#0dcef10d5a)"><path fill="#ffffff" d="M 0.53125 0 L 539.46875 0 L 539.46875 513.488281 L 0.53125 513.488281 Z M 0.53125 0 " fill-opacity="1" fill-rule="nonzero"/><path fill="#ffffff" d="M 0.53125 0 L 539.46875 0 L 539.46875 506.003906 L 0.53125 506.003906 Z M 0.53125 0 " fill-opacity="1" fill-rule="nonzero"/><path fill="#ffffff" d="M 0.53125 0 L 539.46875 0 L 539.46875 506.003906 L 0.53125 506.003906 Z M 0.53125 0 " fill-opacity="1" fill-rule="nonzero"/></g><g clip-path="url(#579185c00b)"><path fill="#ffffff" d="M 269.890625 232.304688 C 258.519531 232.304688 249.304688 241.523438 249.304688 252.890625 C 249.304688 264.257812 258.519531 273.476562 269.890625 273.476562 C 281.257812 273.476562 290.472656 264.257812 290.472656 252.890625 C 290.472656 241.523438 281.257812 232.304688 269.890625 232.304688 " fill-opacity="1" fill-rule="nonzero"/></g><g clip-path="url(#0873490989)"><path fill="#ffffff" d="M 269.9375 171.546875 C 261.875 171.546875 255.339844 178.082031 255.339844 186.144531 C 255.339844 194.207031 261.875 200.742188 269.9375 200.742188 C 277.996094 200.742188 284.53125 194.207031 284.53125 186.144531 C 284.53125 178.082031 277.996094 171.546875 269.9375 171.546875 " fill-opacity="1" fill-rule="nonzero"/></g><g clip-path="url(#bbd37f2855)"><path fill="#ffffff" d="M 269.933594 200.855469 C 277.992188 200.855469 284.527344 194.324219 284.527344 186.261719 C 284.527344 178.199219 277.992188 171.664062 269.933594 171.664062 C 261.871094 171.664062 255.335938 178.199219 255.335938 186.261719 C 255.335938 194.324219 261.871094 200.855469 269.933594 200.855469 " fill-opacity="1" fill-rule="nonzero"/></g><g clip-path="url(#667f4e4162)"><path fill="#ffffff" d="M 406.4375 136.886719 C 414.5 136.886719 421.035156 130.351562 421.035156 122.289062 C 421.035156 114.226562 414.5 107.691406 406.4375 107.691406 C 398.375 107.691406 391.84375 114.226562 391.84375 122.289062 C 391.84375 130.351562 398.375 136.886719 406.4375 136.886719 " fill-opacity="1" fill-rule="nonzero"/></g><g clip-path="url(#445b1fb1f4)"><path fill="#ffffff" d="M 146.078125 136.886719 C 154.140625 136.886719 160.675781 130.351562 160.675781 122.289062 C 160.675781 114.226562 154.140625 107.691406 146.078125 107.691406 C 138.015625 107.691406 131.480469 114.226562 131.480469 122.289062 C 131.480469 130.351562 138.015625 136.886719 146.078125 136.886719 " fill-opacity="1" fill-rule="nonzero"/></g><g clip-path="url(#a2c2dfcbf8)"><path fill="#ffffff" d="M 340.996094 85.558594 C 347.816406 85.558594 353.347656 80.03125 353.347656 73.210938 C 353.347656 66.386719 347.816406 60.859375 340.996094 60.859375 C 334.175781 60.859375 328.644531 66.386719 328.644531 73.210938 C 328.644531 80.03125 334.175781 85.558594 340.996094 85.558594 " fill-opacity="1" fill-rule="nonzero"/></g><g clip-path="url(#e2cdbf1ba1)"><path fill="#ffffff" d="M 471.0625 85.558594 C 477.882812 85.558594 483.410156 80.03125 483.410156 73.210938 C 483.410156 66.386719 477.882812 60.859375 471.0625 60.859375 C 464.238281 60.859375 458.710938 66.386719 458.710938 73.210938 C 458.710938 80.03125 464.238281 85.558594 471.0625 85.558594 " fill-opacity="1" fill-rule="nonzero"/></g><g clip-path="url(#6cd8f79ebb)"><path fill="#ffffff" d="M 210.285156 85.558594 C 217.105469 85.558594 222.636719 80.03125 222.636719 73.210938 C 222.636719 66.386719 217.105469 60.859375 210.285156 60.859375 C 203.464844 60.859375 197.933594 66.386719 197.933594 73.210938 C 197.933594 80.03125 203.464844 85.558594 210.285156 85.558594 " fill-opacity="1" fill-rule="nonzero"/></g><g clip-path="url(#0b5b2091c8)"><path fill="#ffffff" d="M 79.574219 85.558594 C 86.398438 85.558594 91.925781 80.03125 91.925781 73.210938 C 91.925781 66.386719 86.398438 60.859375 79.574219 60.859375 C 72.753906 60.859375 67.226562 66.386719 67.226562 73.210938 C 67.226562 80.03125 72.753906 85.558594 79.574219 85.558594 " fill-opacity="1" fill-rule="nonzero"/></g><g clip-path="url(#028fff7fa8)"><path fill="#ffffff" d="M 506.246094 39.5 C 513.066406 39.5 518.597656 33.96875 518.597656 27.148438 C 518.597656 20.328125 513.066406 14.796875 506.246094 14.796875 C 499.425781 14.796875 493.894531 20.328125 493.894531 27.148438 C 493.894531 33.96875 499.425781 39.5 506.246094 39.5 " fill-opacity="1" fill-rule="nonzero"/></g><g clip-path="url(#5b045f6e32)"><path fill="#ffffff" d="M 440.230469 39.5 C 447.050781 39.5 452.582031 33.96875 452.582031 27.148438 C 452.582031 20.328125 447.050781 14.796875 440.230469 14.796875 C 433.410156 14.796875 427.878906 20.328125 427.878906 27.148438 C 427.878906 33.96875 433.410156 39.5 440.230469 39.5 " fill-opacity="1" fill-rule="nonzero"/></g><g clip-path="url(#03cc94880e)"><path fill="#ffffff" d="M 373.957031 39.5 C 380.78125 39.5 386.308594 33.96875 386.308594 27.148438 C 386.308594 20.328125 380.78125 14.796875 373.957031 14.796875 C 367.136719 14.796875 361.609375 20.328125 361.609375 27.148438 C 361.609375 33.96875 367.136719 39.5 373.957031 39.5 " fill-opacity="1" fill-rule="nonzero"/></g><g clip-path="url(#7e13b6c7ee)"><path fill="#ffffff" d="M 307.6875 39.5 C 314.507812 39.5 320.039062 33.96875 320.039062 27.148438 C 320.039062 20.328125 314.507812 14.796875 307.6875 14.796875 C 300.867188 14.796875 295.335938 20.328125 295.335938 27.148438 C 295.335938 33.96875 300.867188 39.5 307.6875 39.5 " fill-opacity="1" fill-rule="nonzero"/></g><g clip-path="url(#f1b61a22a1)"><path fill="#ffffff" d="M 243.78125 39.5 C 250.601562 39.5 256.132812 33.96875 256.132812 27.148438 C 256.132812 20.328125 250.601562 14.796875 243.78125 14.796875 C 236.960938 14.796875 231.429688 20.328125 231.429688 27.148438 C 231.429688 33.96875 236.960938 39.5 243.78125 39.5 " fill-opacity="1" fill-rule="nonzero"/></g><g clip-path="url(#5a9dcd0ae4)"><path fill="#ffffff" d="M 177.507812 39.5 C 184.332031 39.5 189.859375 33.96875 189.859375 27.148438 C 189.859375 20.328125 184.332031 14.796875 177.507812 14.796875 C 170.6875 14.796875 165.160156 20.328125 165.160156 27.148438 C 165.160156 33.96875 170.6875 39.5 177.507812 39.5 " fill-opacity="1" fill-rule="nonzero"/></g><g clip-path="url(#c4ee3ff931)"><path fill="#ffffff" d="M 111.238281 39.5 C 118.058594 39.5 123.589844 33.96875 123.589844 27.148438 C 123.589844 20.328125 118.058594 14.796875 111.238281 14.796875 C 104.417969 14.796875 98.886719 20.328125 98.886719 27.148438 C 98.886719 33.96875 104.417969 39.5 111.238281 39.5 " fill-opacity="1" fill-rule="nonzero"/></g><g clip-path="url(#d43ae1d737)"><path fill="#ffffff" d="M 44.964844 39.5 C 51.785156 39.5 57.316406 33.96875 57.316406 27.148438 C 57.316406 20.328125 51.785156 14.796875 44.964844 14.796875 C 38.144531 14.796875 32.617188 20.328125 32.617188 27.148438 C 32.617188 33.96875 38.144531 39.5 44.964844 39.5 " fill-opacity="1" fill-rule="nonzero"/></g><path stroke-linecap="butt" transform="matrix(0.000000000000000046, 0.755303, -0.748524, 0.000000000000000046, 270.248463, 151.337779)" fill="none" stroke-linejoin="miter" d="M -0.00243832 0.498932 L 46.595153 0.498932 " stroke="#000000" stroke-width="1" stroke-opacity="1" stroke-miterlimit="4"/><g clip-path="url(#3d83b90297)"><path fill="#ffffff" d="M 269.9375 305.261719 C 261.875 305.261719 255.339844 311.796875 255.339844 319.859375 C 255.339844 327.917969 261.875 334.453125 269.9375 334.453125 C 277.996094 334.453125 284.53125 327.917969 284.53125 319.859375 C 284.53125 311.796875 277.996094 305.261719 269.9375 305.261719 " fill-opacity="1" fill-rule="nonzero"/></g><g clip-path="url(#fded9b9305)"><path fill="#ffffff" d="M 133.429688 369.234375 C 125.371094 369.234375 118.835938 375.769531 118.835938 383.828125 C 118.835938 391.890625 125.371094 398.425781 133.429688 398.425781 C 141.492188 398.425781 148.027344 391.890625 148.027344 383.828125 C 148.027344 375.769531 141.492188 369.234375 133.429688 369.234375 " fill-opacity="1" fill-rule="nonzero"/></g><g clip-path="url(#af9c10c169)"><path fill="#ffffff" d="M 393.789062 369.234375 C 385.730469 369.234375 379.195312 375.769531 379.195312 383.828125 C 379.195312 391.890625 385.730469 398.425781 393.789062 398.425781 C 401.851562 398.425781 408.386719 391.890625 408.386719 383.828125 C 408.386719 375.769531 401.851562 369.234375 393.789062 369.234375 " fill-opacity="1" fill-rule="nonzero"/></g><g clip-path="url(#d4f4aa153f)"><path fill="#ffffff" d="M 198.878906 420.566406 C 192.058594 420.566406 186.527344 426.09375 186.527344 432.917969 C 186.527344 439.738281 192.058594 445.265625 198.878906 445.265625 C 205.699219 445.265625 211.230469 439.738281 211.230469 432.917969 C 211.230469 426.09375 205.699219 420.566406 198.878906 420.566406 " fill-opacity="1" fill-rule="nonzero"/></g><g clip-path="url(#3b3b6ccd7e)"><path fill="#ffffff" d="M 68.816406 420.566406 C 61.992188 420.566406 56.464844 426.09375 56.464844 432.917969 C 56.464844 439.738281 61.992188 445.265625 68.816406 445.265625 C 75.636719 445.265625 81.164062 439.738281 81.164062 432.917969 C 81.164062 426.09375 75.636719 420.566406 68.816406 420.566406 " fill-opacity="1" fill-rule="nonzero"/></g><g clip-path="url(#83d373bdd5)"><path fill="#ffffff" d="M 329.589844 420.566406 C 322.769531 420.566406 317.238281 426.09375 317.238281 432.917969 C 317.238281 439.738281 322.769531 445.265625 329.589844 445.265625 C 336.410156 445.265625 341.941406 439.738281 341.941406 432.917969 C 341.941406 426.09375 336.410156 420.566406 329.589844 420.566406 " fill-opacity="1" fill-rule="nonzero"/></g><g clip-path="url(#c4aabf365c)"><path fill="#ffffff" d="M 460.300781 420.566406 C 453.480469 420.566406 447.949219 426.09375 447.949219 432.917969 C 447.949219 439.738281 453.480469 445.265625 460.300781 445.265625 C 467.121094 445.265625 472.652344 439.738281 472.652344 432.917969 C 472.652344 426.09375 467.121094 420.566406 460.300781 420.566406 " fill-opacity="1" fill-rule="nonzero"/></g><g clip-path="url(#4cb0510796)"><path fill="#ffffff" d="M 33.628906 466.628906 C 26.808594 466.628906 21.277344 472.15625 21.277344 478.976562 C 21.277344 485.800781 26.808594 491.328125 33.628906 491.328125 C 40.449219 491.328125 45.980469 485.800781 45.980469 478.976562 C 45.980469 472.15625 40.449219 466.628906 33.628906 466.628906 " fill-opacity="1" fill-rule="nonzero"/></g><g clip-path="url(#4951b3ec32)"><path fill="#ffffff" d="M 99.644531 466.628906 C 92.824219 466.628906 87.292969 472.15625 87.292969 478.976562 C 87.292969 485.800781 92.824219 491.328125 99.644531 491.328125 C 106.464844 491.328125 111.996094 485.800781 111.996094 478.976562 C 111.996094 472.15625 106.464844 466.628906 99.644531 466.628906 " fill-opacity="1" fill-rule="nonzero"/></g><g clip-path="url(#7b478eaa26)"><path fill="#ffffff" d="M 165.917969 466.628906 C 159.097656 466.628906 153.566406 472.15625 153.566406 478.976562 C 153.566406 485.800781 159.097656 491.328125 165.917969 491.328125 C 172.738281 491.328125 178.269531 485.800781 178.269531 478.976562 C 178.269531 472.15625 172.738281 466.628906 165.917969 466.628906 " fill-opacity="1" fill-rule="nonzero"/></g><g clip-path="url(#ee76123b63)"><path fill="#ffffff" d="M 232.1875 466.628906 C 225.367188 466.628906 219.839844 472.15625 219.839844 478.976562 C 219.839844 485.800781 225.367188 491.328125 232.1875 491.328125 C 239.011719 491.328125 244.539062 485.800781 244.539062 478.976562 C 244.539062 472.15625 239.011719 466.628906 232.1875 466.628906 " fill-opacity="1" fill-rule="nonzero"/></g><g clip-path="url(#f033001e9f)"><path fill="#ffffff" d="M 296.09375 466.628906 C 289.273438 466.628906 283.742188 472.15625 283.742188 478.976562 C 283.742188 485.800781 289.273438 491.328125 296.09375 491.328125 C 302.914062 491.328125 308.445312 485.800781 308.445312 478.976562 C 308.445312 472.15625 302.914062 466.628906 296.09375 466.628906 " fill-opacity="1" fill-rule="nonzero"/></g><g clip-path="url(#9f776f433b)"><path fill="#ffffff" d="M 362.367188 466.628906 C 355.546875 466.628906 350.015625 472.15625 350.015625 478.976562 C 350.015625 485.800781 355.546875 491.328125 362.367188 491.328125 C 369.1875 491.328125 374.71875 485.800781 374.71875 478.976562 C 374.71875 472.15625 369.1875 466.628906 362.367188 466.628906 " fill-opacity="1" fill-rule="nonzero"/></g><g clip-path="url(#c8b7dbe18d)"><path fill="#ffffff" d="M 428.636719 466.628906 C 421.816406 466.628906 416.289062 472.15625 416.289062 478.976562 C 416.289062 485.800781 421.816406 491.328125 428.636719 491.328125 C 435.460938 491.328125 440.988281 485.800781 440.988281 478.976562 C 440.988281 472.15625 435.460938 466.628906 428.636719 466.628906 " fill-opacity="1" fill-rule="nonzero"/></g><g clip-path="url(#0dac07e772)"><path fill="#ffffff" d="M 494.910156 466.628906 C 488.089844 466.628906 482.558594 472.15625 482.558594 478.976562 C 482.558594 485.800781 488.089844 491.328125 494.910156 491.328125 C 501.730469 491.328125 507.261719 485.800781 507.261719 478.976562 C 507.261719 472.15625 501.730469 466.628906 494.910156 466.628906 " fill-opacity="1" fill-rule="nonzero"/></g><path stroke-linecap="butt" transform="matrix(0.000000000000000046, 0.746091, -0.748524, 0.000000000000000046, 270.369573, 200.872908)" fill="none" stroke-linejoin="miter" d="M -0.00243189 0.498954 L 139.463969 0.498954 " stroke="#000000" stroke-width="1" stroke-opacity="1" stroke-miterlimit="4"/><path stroke-linecap="butt" transform="matrix(0.000000000000000046, 0.755303, -0.748524, 0.000000000000000046, 271.117306, 319.927194)" fill="none" stroke-linejoin="miter" d="M -0.00187066 0.501144 L 46.590549 0.501144 " stroke="#000000" stroke-width="1" stroke-opacity="1" stroke-miterlimit="4"/><path stroke-linecap="butt" transform="matrix(0.0148095, 0.750784, -0.748378, 0.0147621, 133.66738, 354.791699)" fill="none" stroke-linejoin="miter" d="M 0.00225931 0.500342 L 38.878228 0.502369 " stroke="#000000" stroke-width="1" stroke-opacity="1" stroke-miterlimit="4"/><path stroke-linecap="butt" transform="matrix(0.000000000000000046, 0.75093, -0.748524, 0.000000000000000046, 393.852311, 354.792576)" fill="none" stroke-linejoin="miter" d="M 0.000523579 0.501986 L 38.879375 0.501986 " stroke="#000000" stroke-width="1" stroke-opacity="1" stroke-miterlimit="4"/><path stroke-linecap="butt" transform="matrix(-0.749396, -0.000000000000000092, 0.000000000000000092, -0.748524, 393.851231, 354.775325)" fill="none" stroke-linejoin="miter" d="M -0.000442642 0.498289 L 348.598044 0.498289 " stroke="#000000" stroke-width="1" stroke-opacity="1" stroke-miterlimit="4"/><path stroke-linecap="butt" transform="matrix(0.000000000000000046, 0.749279, -0.748524, 0.000000000000000046, 68.638369, 409.543247)" fill="none" stroke-linejoin="miter" d="M -0.000371304 0.497972 L 30.977326 0.497972 " stroke="#000000" stroke-width="1" stroke-opacity="1" stroke-miterlimit="4"/><path stroke-linecap="butt" transform="matrix(0.000000000000000046, 0.749279, -0.748524, 0.000000000000000046, 199.077203, 409.558577)" fill="none" stroke-linejoin="miter" d="M 0.0000227237 0.499754 L 30.97772 0.499754 " stroke="#000000" stroke-width="1" stroke-opacity="1" stroke-miterlimit="4"/><path stroke-linecap="butt" transform="matrix(-0.750534, -0.000000000000000092, 0.000000000000000092, -0.748524, 198.70256, 410.303579)" fill="none" stroke-linejoin="miter" d="M -0.000752725 0.499506 L 174.536445 0.499506 " stroke="#000000" stroke-width="1" stroke-opacity="1" stroke-miterlimit="4"/><path stroke-linecap="butt" transform="matrix(0.00510677, 0.763417, -0.748507, 0.00500703, 133.966658, 398.551383)" fill="none" stroke-linejoin="miter" d="M 0.00106138 0.49821 L 15.689136 0.500869 " stroke="#000000" stroke-width="1" stroke-opacity="1" stroke-miterlimit="4"/><path stroke-linecap="butt" transform="matrix(0.000000000000000046, 0.749279, -0.748524, 0.000000000000000046, 329.741061, 409.546073)" fill="none" stroke-linejoin="miter" d="M 0.00106985 0.499481 L 30.978767 0.499481 " stroke="#000000" stroke-width="1" stroke-opacity="1" stroke-miterlimit="4"/><path stroke-linecap="butt" transform="matrix(0.000000000000000046, 0.749279, -0.748524, 0.000000000000000046, 460.179883, 409.561355)" fill="none" stroke-linejoin="miter" d="M 0.00152781 0.501248 L 30.979225 0.501248 " stroke="#000000" stroke-width="1" stroke-opacity="1" stroke-miterlimit="4"/><path stroke-linecap="butt" transform="matrix(-0.750534, -0.000000000000000092, 0.000000000000000092, -0.748524, 459.805286, 410.306382)" fill="none" stroke-linejoin="miter" d="M 0.0007975 0.498031 L 174.537996 0.498031 " stroke="#000000" stroke-width="1" stroke-opacity="1" stroke-miterlimit="4"/><path stroke-linecap="butt" transform="matrix(0.00510677, 0.763417, -0.748507, 0.00500703, 395.069305, 398.554219)" fill="none" stroke-linejoin="miter" d="M 0.00245373 0.499668 L 15.685411 0.502292 " stroke="#000000" stroke-width="1" stroke-opacity="1" stroke-miterlimit="4"/><path stroke-linecap="butt" transform="matrix(0.000000000000000046, 0.749279, -0.748524, 0.000000000000000046, 33.711226, 455.912068)" fill="none" stroke-linejoin="miter" d="M -0.00255202 0.501372 L 30.980359 0.501372 " stroke="#000000" stroke-width="1" stroke-opacity="1" stroke-miterlimit="4"/><path stroke-linecap="butt" transform="matrix(0.000000000000000046, 0.749279, -0.748524, 0.000000000000000046, 99.234454, 456.675898)" fill="none" stroke-linejoin="miter" d="M -0.000155598 0.501092 L 30.977542 0.501092 " stroke="#000000" stroke-width="1" stroke-opacity="1" stroke-miterlimit="4"/><path stroke-linecap="butt" transform="matrix(-0.751823, -0.000000000000000092, 0.000000000000000092, -0.748524, 99.460875, 456.672425)" fill="none" stroke-linejoin="miter" d="M -0.000083671 0.501721 L 88.623003 0.501721 " stroke="#000000" stroke-width="1" stroke-opacity="1" stroke-miterlimit="4"/><path stroke-linecap="butt" transform="matrix(0.000000000000000046, 0.749622, -0.748524, 0.000000000000000046, 68.636994, 432.375971)" fill="none" stroke-linejoin="miter" d="M -0.0012958 0.501353 L 31.962745 0.501353 " stroke="#000000" stroke-width="1" stroke-opacity="1" stroke-miterlimit="4"/><path stroke-linecap="butt" transform="matrix(0.000000000000000046, 0.749279, -0.748524, 0.000000000000000046, 165.188629, 456.468659)" fill="none" stroke-linejoin="miter" d="M 0.000121987 0.502495 L 30.97782 0.502495 " stroke="#000000" stroke-width="1" stroke-opacity="1" stroke-miterlimit="4"/><path stroke-linecap="butt" transform="matrix(0.000000000000000046, 0.749279, -0.748524, 0.000000000000000046, 232.760604, 457.232512)" fill="none" stroke-linejoin="miter" d="M 0.00248644 0.499497 L 30.980184 0.499497 " stroke="#000000" stroke-width="1" stroke-opacity="1" stroke-miterlimit="4"/><path stroke-linecap="butt" transform="matrix(-0.749682, -0.000000000000000092, 0.000000000000000092, -0.748524, 232.388316, 457.229015)" fill="none" stroke-linejoin="miter" d="M 0.00213081 0.499044 L 90.863561 0.499044 " stroke="#000000" stroke-width="1" stroke-opacity="1" stroke-miterlimit="4"/><path stroke-linecap="butt" transform="matrix(0.000000000000000046, 0.749622, -0.748524, 0.000000000000000046, 199.450411, 432.932562)" fill="none" stroke-linejoin="miter" d="M 0.00137698 0.502578 L 31.965418 0.502578 " stroke="#000000" stroke-width="1" stroke-opacity="1" stroke-miterlimit="4"/><path stroke-linecap="butt" transform="matrix(0.000000000000000046, 0.749279, -0.748524, 0.000000000000000046, 429.209546, 457.789102)" fill="none" stroke-linejoin="miter" d="M -0.0000528986 0.499127 L 30.977645 0.499127 " stroke="#000000" stroke-width="1" stroke-opacity="1" stroke-miterlimit="4"/><path stroke-linecap="butt" transform="matrix(0.000000000000000046, 0.749279, -0.748524, 0.000000000000000046, 494.242857, 457.789102)" fill="none" stroke-linejoin="miter" d="M -0.0000528986 0.50188 L 30.977645 0.50188 " stroke="#000000" stroke-width="1" stroke-opacity="1" stroke-miterlimit="4"/><path stroke-linecap="butt" transform="matrix(-0.751191, -0.000000000000000092, 0.000000000000000092, -0.748524, 493.866487, 457.785629)" fill="none" stroke-linejoin="miter" d="M -0.000932194 0.501618 L 87.693123 0.501618 " stroke="#000000" stroke-width="1" stroke-opacity="1" stroke-miterlimit="4"/><path stroke-linecap="butt" transform="matrix(0.000000000000000046, 0.749622, -0.748524, 0.000000000000000046, 460.932622, 433.489152)" fill="none" stroke-linejoin="miter" d="M -0.0011612 0.499689 L 31.96288 0.499689 " stroke="#000000" stroke-width="1" stroke-opacity="1" stroke-miterlimit="4"/><path stroke-linecap="butt" transform="matrix(0.000000000000000046, 0.749279, -0.748524, 0.000000000000000046, 295.782124, 457.581911)" fill="none" stroke-linejoin="miter" d="M 0.000160751 0.502153 L 30.977858 0.502153 " stroke="#000000" stroke-width="1" stroke-opacity="1" stroke-miterlimit="4"/><path stroke-linecap="butt" transform="matrix(0.000000000000000046, 0.749279, -0.748524, 0.000000000000000046, 362.937791, 458.345668)" fill="none" stroke-linejoin="miter" d="M -0.00256027 0.501374 L 30.980351 0.501374 " stroke="#000000" stroke-width="1" stroke-opacity="1" stroke-miterlimit="4"/><path stroke-linecap="butt" transform="matrix(-0.749682, -0.000000000000000092, 0.000000000000000092, -0.748524, 362.981825, 458.342219)" fill="none" stroke-linejoin="miter" d="M 0.00180943 0.498941 L 90.863239 0.498941 " stroke="#000000" stroke-width="1" stroke-opacity="1" stroke-miterlimit="4"/><path stroke-linecap="butt" transform="matrix(0.000000000000000046, 0.749622, -0.748524, 0.000000000000000046, 330.043891, 434.045766)" fill="none" stroke-linejoin="miter" d="M 0.00147963 0.502218 L 31.96552 0.502218 " stroke="#000000" stroke-width="1" stroke-opacity="1" stroke-miterlimit="4"/><g clip-path="url(#a6f902613f)"><path fill="#ffffff" d="M 269.933594 200.855469 C 277.992188 200.855469 284.527344 194.324219 284.527344 186.261719 C 284.527344 178.199219 277.992188 171.664062 269.933594 171.664062 C 261.871094 171.664062 255.335938 178.199219 255.335938 186.261719 C 255.335938 194.324219 261.871094 200.855469 269.933594 200.855469 " fill-opacity="1" fill-rule="nonzero"/></g><g clip-path="url(#8f10eb413f)"><path fill="#ffffff" d="M 406.4375 136.886719 C 414.5 136.886719 421.035156 130.351562 421.035156 122.289062 C 421.035156 114.226562 414.5 107.691406 406.4375 107.691406 C 398.375 107.691406 391.84375 114.226562 391.84375 122.289062 C 391.84375 130.351562 398.375 136.886719 406.4375 136.886719 " fill-opacity="1" fill-rule="nonzero"/></g><g clip-path="url(#7c6300fc3f)"><path fill="#ffffff" d="M 146.078125 136.886719 C 154.140625 136.886719 160.675781 130.351562 160.675781 122.289062 C 160.675781 114.226562 154.140625 107.691406 146.078125 107.691406 C 138.015625 107.691406 131.480469 114.226562 131.480469 122.289062 C 131.480469 130.351562 138.015625 136.886719 146.078125 136.886719 " fill-opacity="1" fill-rule="nonzero"/></g><g clip-path="url(#1f65bf0e6f)"><path fill="#ffffff" d="M 340.996094 85.558594 C 347.816406 85.558594 353.347656 80.03125 353.347656 73.210938 C 353.347656 66.386719 347.816406 60.859375 340.996094 60.859375 C 334.175781 60.859375 328.644531 66.386719 328.644531 73.210938 C 328.644531 80.03125 334.175781 85.558594 340.996094 85.558594 " fill-opacity="1" fill-rule="nonzero"/></g><g clip-path="url(#3c9736b0c4)"><path fill="#ffffff" d="M 471.0625 85.558594 C 477.882812 85.558594 483.410156 80.03125 483.410156 73.210938 C 483.410156 66.386719 477.882812 60.859375 471.0625 60.859375 C 464.238281 60.859375 458.710938 66.386719 458.710938 73.210938 C 458.710938 80.03125 464.238281 85.558594 471.0625 85.558594 " fill-opacity="1" fill-rule="nonzero"/></g><g clip-path="url(#a15a611100)"><path fill="#ffffff" d="M 210.285156 85.558594 C 217.105469 85.558594 222.636719 80.03125 222.636719 73.210938 C 222.636719 66.386719 217.105469 60.859375 210.285156 60.859375 C 203.464844 60.859375 197.933594 66.386719 197.933594 73.210938 C 197.933594 80.03125 203.464844 85.558594 210.285156 85.558594 " fill-opacity="1" fill-rule="nonzero"/></g><g clip-path="url(#809470740b)"><path fill="#ffffff" d="M 79.574219 85.558594 C 86.398438 85.558594 91.925781 80.03125 91.925781 73.210938 C 91.925781 66.386719 86.398438 60.859375 79.574219 60.859375 C 72.753906 60.859375 67.226562 66.386719 67.226562 73.210938 C 67.226562 80.03125 72.753906 85.558594 79.574219 85.558594 " fill-opacity="1" fill-rule="nonzero"/></g><g clip-path="url(#4369968c73)"><path fill="#ffffff" d="M 506.246094 39.5 C 513.066406 39.5 518.597656 33.96875 518.597656 27.148438 C 518.597656 20.328125 513.066406 14.796875 506.246094 14.796875 C 499.425781 14.796875 493.894531 20.328125 493.894531 27.148438 C 493.894531 33.96875 499.425781 39.5 506.246094 39.5 " fill-opacity="1" fill-rule="nonzero"/></g><g clip-path="url(#23f619faa8)"><path fill="#ffffff" d="M 440.230469 39.5 C 447.050781 39.5 452.582031 33.96875 452.582031 27.148438 C 452.582031 20.328125 447.050781 14.796875 440.230469 14.796875 C 433.410156 14.796875 427.878906 20.328125 427.878906 27.148438 C 427.878906 33.96875 433.410156 39.5 440.230469 39.5 " fill-opacity="1" fill-rule="nonzero"/></g><g clip-path="url(#87b5d0cd29)"><path fill="#ffffff" d="M 373.957031 39.5 C 380.78125 39.5 386.308594 33.96875 386.308594 27.148438 C 386.308594 20.328125 380.78125 14.796875 373.957031 14.796875 C 367.136719 14.796875 361.609375 20.328125 361.609375 27.148438 C 361.609375 33.96875 367.136719 39.5 373.957031 39.5 " fill-opacity="1" fill-rule="nonzero"/></g><g clip-path="url(#e044aa2ecd)"><path fill="#ffffff" d="M 307.6875 39.5 C 314.507812 39.5 320.039062 33.96875 320.039062 27.148438 C 320.039062 20.328125 314.507812 14.796875 307.6875 14.796875 C 300.867188 14.796875 295.335938 20.328125 295.335938 27.148438 C 295.335938 33.96875 300.867188 39.5 307.6875 39.5 " fill-opacity="1" fill-rule="nonzero"/></g><g clip-path="url(#031b1bebe5)"><path fill="#ffffff" d="M 243.78125 39.5 C 250.601562 39.5 256.132812 33.96875 256.132812 27.148438 C 256.132812 20.328125 250.601562 14.796875 243.78125 14.796875 C 236.960938 14.796875 231.429688 20.328125 231.429688 27.148438 C 231.429688 33.96875 236.960938 39.5 243.78125 39.5 " fill-opacity="1" fill-rule="nonzero"/></g><g clip-path="url(#256e3b091d)"><path fill="#ffffff" d="M 177.507812 39.5 C 184.332031 39.5 189.859375 33.96875 189.859375 27.148438 C 189.859375 20.328125 184.332031 14.796875 177.507812 14.796875 C 170.6875 14.796875 165.160156 20.328125 165.160156 27.148438 C 165.160156 33.96875 170.6875 39.5 177.507812 39.5 " fill-opacity="1" fill-rule="nonzero"/></g><g clip-path="url(#bb2053abe3)"><path fill="#ffffff" d="M 111.238281 39.5 C 118.058594 39.5 123.589844 33.96875 123.589844 27.148438 C 123.589844 20.328125 118.058594 14.796875 111.238281 14.796875 C 104.417969 14.796875 98.886719 20.328125 98.886719 27.148438 C 98.886719 33.96875 104.417969 39.5 111.238281 39.5 " fill-opacity="1" fill-rule="nonzero"/></g><g clip-path="url(#f168c76230)"><path fill="#ffffff" d="M 44.964844 39.5 C 51.785156 39.5 57.316406 33.96875 57.316406 27.148438 C 57.316406 20.328125 51.785156 14.796875 44.964844 14.796875 C 38.144531 14.796875 32.617188 20.328125 32.617188 27.148438 C 32.617188 33.96875 38.144531 39.5 44.964844 39.5 " fill-opacity="1" fill-rule="nonzero"/></g><path stroke-linecap="butt" transform="matrix(0.000000000000000046, -0.746091, 0.748524, 0.000000000000000046, 269.500672, 305.256862)" fill="none" stroke-linejoin="miter" d="M -0.00127379 0.500088 L 139.465127 0.500088 " stroke="#000000" stroke-width="1" stroke-opacity="1" stroke-miterlimit="4"/><path stroke-linecap="butt" transform="matrix(0.000000000000000046, -0.755303, 0.748524, 0.000000000000000046, 268.751415, 186.202605)" fill="none" stroke-linejoin="miter" d="M -0.000688622 0.499095 L 46.591731 0.499095 " stroke="#000000" stroke-width="1" stroke-opacity="1" stroke-miterlimit="4"/><path stroke-linecap="butt" transform="matrix(-0.0148095, -0.750784, 0.748378, -0.0147621, 406.209008, 151.338086)" fill="none" stroke-linejoin="miter" d="M -0.00173554 0.498408 L 38.879434 0.500537 " stroke="#000000" stroke-width="1" stroke-opacity="1" stroke-miterlimit="4"/><path stroke-linecap="butt" transform="matrix(0.000000000000000046, -0.75093, 0.748524, 0.000000000000000046, 146.022346, 151.337223)" fill="none" stroke-linejoin="miter" d="M 0.0017125 0.502445 L 38.880564 0.502445 " stroke="#000000" stroke-width="1" stroke-opacity="1" stroke-miterlimit="4"/><path stroke-linecap="butt" transform="matrix(0.749396, 0, 0, 0.748524, 146.024832, 151.35446)" fill="none" stroke-linejoin="miter" d="M -0.00186079 0.502334 L 348.596626 0.502334 " stroke="#000000" stroke-width="1" stroke-opacity="1" stroke-miterlimit="4"/><path stroke-linecap="butt" transform="matrix(0.000000000000000046, -0.749279, 0.748524, 0.000000000000000046, 471.234319, 96.586545)" fill="none" stroke-linejoin="miter" d="M 0.000810643 0.501061 L 30.978508 0.501061 " stroke="#000000" stroke-width="1" stroke-opacity="1" stroke-miterlimit="4"/><path stroke-linecap="butt" transform="matrix(0.000000000000000046, -0.749279, 0.748524, 0.000000000000000046, 340.795468, 96.571261)" fill="none" stroke-linejoin="miter" d="M 0.00126541 0.497647 L 30.978963 0.497647 " stroke="#000000" stroke-width="1" stroke-opacity="1" stroke-miterlimit="4"/><path stroke-linecap="butt" transform="matrix(0.750534, 0, 0, 0.748524, 341.173208, 95.826208)" fill="none" stroke-linejoin="miter" d="M -0.00177618 0.498329 L 174.535422 0.498329 " stroke="#000000" stroke-width="1" stroke-opacity="1" stroke-miterlimit="4"/><path stroke-linecap="butt" transform="matrix(-0.00510677, -0.763417, 0.748507, -0.00500703, 405.912713, 107.578424)" fill="none" stroke-linejoin="miter" d="M 0.00224428 0.497598 L 15.690318 0.500257 " stroke="#000000" stroke-width="1" stroke-opacity="1" stroke-miterlimit="4"/><path stroke-linecap="butt" transform="matrix(0.000000000000000046, -0.749279, 0.748524, 0.000000000000000046, 210.131624, 96.583723)" fill="none" stroke-linejoin="miter" d="M 0.00225819 0.502573 L 30.979956 0.502573 " stroke="#000000" stroke-width="1" stroke-opacity="1" stroke-miterlimit="4"/><path stroke-linecap="butt" transform="matrix(0.000000000000000046, -0.749279, 0.748524, 0.000000000000000046, 79.692797, 96.568425)" fill="none" stroke-linejoin="miter" d="M -0.00251957 0.499128 L 30.980391 0.499128 " stroke="#000000" stroke-width="1" stroke-opacity="1" stroke-miterlimit="4"/><path stroke-linecap="butt" transform="matrix(0.750534, 0, 0, 0.748524, 80.070532, 95.823386)" fill="none" stroke-linejoin="miter" d="M -0.000292973 0.502099 L 174.536905 0.502099 " stroke="#000000" stroke-width="1" stroke-opacity="1" stroke-miterlimit="4"/><path stroke-linecap="butt" transform="matrix(-0.00510677, -0.763417, 0.748507, -0.00500703, 144.81003, 107.575602)" fill="none" stroke-linejoin="miter" d="M -0.00146143 0.499069 L 15.686613 0.501728 " stroke="#000000" stroke-width="1" stroke-opacity="1" stroke-miterlimit="4"/><path stroke-linecap="butt" transform="matrix(0.000000000000000046, -0.749279, 0.748524, 0.000000000000000046, 506.16146, 50.217723)" fill="none" stroke-linejoin="miter" d="M -0.00137007 0.499244 L 30.976328 0.499244 " stroke="#000000" stroke-width="1" stroke-opacity="1" stroke-miterlimit="4"/><path stroke-linecap="butt" transform="matrix(0.000000000000000046, -0.749279, 0.748524, 0.000000000000000046, 440.638243, 49.453906)" fill="none" stroke-linejoin="miter" d="M 0.00104233 0.498949 L 30.97874 0.498949 " stroke="#000000" stroke-width="1" stroke-opacity="1" stroke-miterlimit="4"/><path stroke-linecap="butt" transform="matrix(0.751823, 0, 0, 0.748524, 440.407578, 49.457379)" fill="none" stroke-linejoin="miter" d="M -0.00176687 0.500521 L 88.626515 0.500521 " stroke="#000000" stroke-width="1" stroke-opacity="1" stroke-miterlimit="4"/><path stroke-linecap="butt" transform="matrix(0.000000000000000046, -0.749622, 0.748524, 0.000000000000000046, 471.233553, 73.753842)" fill="none" stroke-linejoin="miter" d="M -0.0000856401 0.502085 L 31.963955 0.502085 " stroke="#000000" stroke-width="1" stroke-opacity="1" stroke-miterlimit="4"/><path stroke-linecap="butt" transform="matrix(0.000000000000000046, -0.749279, 0.748524, 0.000000000000000046, 374.684056, 49.661119)" fill="none" stroke-linejoin="miter" d="M 0.00128475 0.500368 L 30.978982 0.500368 " stroke="#000000" stroke-width="1" stroke-opacity="1" stroke-miterlimit="4"/><path stroke-linecap="butt" transform="matrix(0.000000000000000046, -0.749279, 0.748524, 0.000000000000000046, 307.112081, 48.897299)" fill="none" stroke-linejoin="miter" d="M -0.00151938 0.50259 L 30.976178 0.50259 " stroke="#000000" stroke-width="1" stroke-opacity="1" stroke-miterlimit="4"/><path stroke-linecap="butt" transform="matrix(0.749682, 0, 0, 0.748524, 307.489823, 48.900777)" fill="none" stroke-linejoin="miter" d="M -0.00205691 0.497861 L 90.859373 0.497861 " stroke="#000000" stroke-width="1" stroke-opacity="1" stroke-miterlimit="4"/><path stroke-linecap="butt" transform="matrix(0.000000000000000046, -0.749622, 0.748524, 0.000000000000000046, 340.420153, 73.197245)" fill="none" stroke-linejoin="miter" d="M 0.00257756 0.498069 L 31.966618 0.498069 " stroke="#000000" stroke-width="1" stroke-opacity="1" stroke-miterlimit="4"/><path stroke-linecap="butt" transform="matrix(0.000000000000000046, -0.749279, 0.748524, 0.000000000000000046, 110.663145, 48.340704)" fill="none" stroke-linejoin="miter" d="M 0.00114823 0.502212 L 30.978846 0.502212 " stroke="#000000" stroke-width="1" stroke-opacity="1" stroke-miterlimit="4"/><path stroke-linecap="butt" transform="matrix(0.000000000000000046, -0.749279, 0.748524, 0.000000000000000046, 45.629864, 48.340704)" fill="none" stroke-linejoin="miter" d="M 0.00114823 0.499706 L 30.978846 0.499706 " stroke="#000000" stroke-width="1" stroke-opacity="1" stroke-miterlimit="4"/><path stroke-linecap="butt" transform="matrix(0.751191, 0, 0, 0.748524, 46.007597, 48.344177)" fill="none" stroke-linejoin="miter" d="M 0.000286859 0.500415 L 87.694342 0.500415 " stroke="#000000" stroke-width="1" stroke-opacity="1" stroke-miterlimit="4"/><path stroke-linecap="butt" transform="matrix(0.000000000000000046, -0.749622, 0.748524, 0.000000000000000046, 78.937943, 72.64064)" fill="none" stroke-linejoin="miter" d="M 0.0000202074 0.500394 L 31.964061 0.500394 " stroke="#000000" stroke-width="1" stroke-opacity="1" stroke-miterlimit="4"/><path stroke-linecap="butt" transform="matrix(0.000000000000000046, -0.749279, 0.748524, 0.000000000000000046, 244.090576, 48.547912)" fill="none" stroke-linejoin="miter" d="M 0.00138426 0.500008 L 30.979082 0.500008 " stroke="#000000" stroke-width="1" stroke-opacity="1" stroke-miterlimit="4"/><path stroke-linecap="butt" transform="matrix(0.000000000000000046, -0.749279, 0.748524, 0.000000000000000046, 176.934909, 47.784097)" fill="none" stroke-linejoin="miter" d="M -0.00141349 0.499229 L 30.976284 0.499229 " stroke="#000000" stroke-width="1" stroke-opacity="1" stroke-miterlimit="4"/><path stroke-linecap="butt" transform="matrix(0.749682, 0, 0, 0.748524, 176.896343, 47.787573)" fill="none" stroke-linejoin="miter" d="M -0.00241663 0.497758 L 90.859013 0.497758 " stroke="#000000" stroke-width="1" stroke-opacity="1" stroke-miterlimit="4"/><path stroke-linecap="butt" transform="matrix(0.000000000000000046, -0.749622, 0.748524, 0.000000000000000046, 209.826689, 72.084033)" fill="none" stroke-linejoin="miter" d="M -0.00254034 0.497686 L 31.966711 0.497686 " stroke="#000000" stroke-width="1" stroke-opacity="1" stroke-miterlimit="4"/></svg>