<svg xmlns="http://www.w3.org/2000/svg" xmlns:xlink="http://www.w3.org/1999/xlink" width="500" zoomAndPan="magnify" viewBox="0 0 375 500.249999" height="667" preserveAspectRatio="xMidYMid meet" version="1.0"><defs><clipPath id="97f8309035"><path d="M 0.28125 0 L 374.71875 0 L 374.71875 499.5 L 0.28125 499.5 Z M 0.28125 0 " clip-rule="nonzero"/></clipPath><clipPath id="53ad1a3ee8"><path d="M 178.332031 291.394531 L 200.796875 291.394531 L 200.796875 313.859375 L 178.332031 313.859375 Z M 178.332031 291.394531 " clip-rule="nonzero"/></clipPath></defs><g clip-path="url(#97f8309035)"><path fill="#ffffff" d="M 0.28125 0 L 374.71875 0 L 374.71875 506.988281 L 0.28125 506.988281 Z M 0.28125 0 " fill-opacity="1" fill-rule="nonzero"/><path fill="#ffffff" d="M 0.28125 0 L 374.71875 0 L 374.71875 499.5 L 0.28125 499.5 Z M 0.28125 0 " fill-opacity="1" fill-rule="nonzero"/><path fill="#ffffff" d="M 0.28125 0 L 374.71875 0 L 374.71875 499.5 L 0.28125 499.5 Z M 0.28125 0 " fill-opacity="1" fill-rule="nonzero"/></g><g clip-path="url(#53ad1a3ee8)"><path fill="#ffffff" d="M 189.5625 291.394531 C 183.359375 291.394531 178.332031 296.425781 178.332031 302.628906 C 178.332031 308.832031 183.359375 313.859375 189.5625 313.859375 C 195.769531 313.859375 200.796875 308.832031 200.796875 302.628906 C 200.796875 296.425781 195.769531 291.394531 189.5625 291.394531 " fill-opacity="1" fill-rule="nonzero"/></g><path stroke-linecap="butt" transform="matrix(0.000000000000000046, 0.745925, -0.748877, 0.000000000000000046, 94.083688, 366.865272)" fill="none" stroke-linejoin="miter" d="M 0.00256746 0.497745 L 75.307598 0.497745 " stroke="#000000" stroke-width="1" stroke-opacity="1" stroke-miterlimit="4"/><path stroke-linecap="butt" transform="matrix(0.000000000000000045, 0.740339, -0.748877, 0.000000000000000046, 47.577785, 423.258293)" fill="none" stroke-linejoin="miter" d="M -0.000649023 0.500295 L 42.489382 0.500295 " stroke="#000000" stroke-width="1" stroke-opacity="1" stroke-miterlimit="4"/><path stroke-linecap="butt" transform="matrix(-0.747672, -0.000000000000000092, 0.000000000000000092, -0.748877, 141.340986, 422.852773)" fill="none" stroke-linejoin="miter" d="M 0.00152796 0.502366 L 126.205784 0.502366 " stroke="#000000" stroke-width="1" stroke-opacity="1" stroke-miterlimit="4"/><path stroke-linecap="butt" transform="matrix(0.000000000000000047, 0.763288, -0.748877, 0.000000000000000046, 22.345124, 455.344243)" fill="none" stroke-linejoin="miter" d="M -0.000645492 0.502584 L 23.555947 0.502584 " stroke="#000000" stroke-width="1" stroke-opacity="1" stroke-miterlimit="4"/><path stroke-linecap="butt" transform="matrix(0.000000000000000047, 0.763288, -0.748877, 0.000000000000000046, 71.970815, 455.786044)" fill="none" stroke-linejoin="miter" d="M -0.00116346 0.498291 L 23.555429 0.498291 " stroke="#000000" stroke-width="1" stroke-opacity="1" stroke-miterlimit="4"/><path stroke-linecap="butt" transform="matrix(-0.744709, -0.000000000000000091, 0.000000000000000092, -0.748877, 72.054478, 455.873106)" fill="none" stroke-linejoin="miter" d="M -0.000280955 0.49822 L 67.386565 0.49822 " stroke="#000000" stroke-width="1" stroke-opacity="1" stroke-miterlimit="4"/><path stroke-linecap="butt" transform="matrix(0.000000000000000047, 0.763288, -0.748877, 0.000000000000000046, 115.2776, 455.190154)" fill="none" stroke-linejoin="miter" d="M 0.00164096 0.501092 L 23.553115 0.501092 " stroke="#000000" stroke-width="1" stroke-opacity="1" stroke-miterlimit="4"/><path stroke-linecap="butt" transform="matrix(0.000000000000000047, 0.763288, -0.748877, 0.000000000000000046, 166.67967, 455.771187)" fill="none" stroke-linejoin="miter" d="M -0.00216868 0.500726 L 23.554423 0.500726 " stroke="#000000" stroke-width="1" stroke-opacity="1" stroke-miterlimit="4"/><path stroke-linecap="butt" transform="matrix(-0.74803, -0.000000000000000092, 0.000000000000000092, -0.748877, 166.30219, 455.858296)" fill="none" stroke-linejoin="miter" d="M 0.00188322 0.499309 L 69.084354 0.499309 " stroke="#000000" stroke-width="1" stroke-opacity="1" stroke-miterlimit="4"/><path stroke-linecap="butt" transform="matrix(0.000000000000000046, 0.74808, -0.748877, 0.000000000000000046, 141.341482, 422.495636)" fill="none" stroke-linejoin="miter" d="M 0.000611306 0.497721 L 44.056085 0.497721 " stroke="#000000" stroke-width="1" stroke-opacity="1" stroke-miterlimit="4"/><path stroke-linecap="butt" transform="matrix(0.000000000000000046, -0.747759, 0.748877, 0.000000000000000046, 186.750808, 367.25077)" fill="none" stroke-linejoin="miter" d="M 0.00103027 0.49967 L 303.454634 0.49967 " stroke="#000000" stroke-width="1" stroke-opacity="1" stroke-miterlimit="4"/><path stroke-linecap="butt" transform="matrix(0.000000000000000045, 0.740339, -0.748877, 0.000000000000000046, 47.577785, 423.258293)" fill="none" stroke-linejoin="miter" d="M -0.000649023 0.500295 L 42.489382 0.500295 " stroke="#000000" stroke-width="1" stroke-opacity="1" stroke-miterlimit="4"/><path stroke-linecap="butt" transform="matrix(-0.747672, -0.000000000000000092, 0.000000000000000092, -0.748877, 141.340986, 422.852773)" fill="none" stroke-linejoin="miter" d="M 0.00152796 0.502366 L 126.205784 0.502366 " stroke="#000000" stroke-width="1" stroke-opacity="1" stroke-miterlimit="4"/><path stroke-linecap="butt" transform="matrix(0.000000000000000047, 0.763288, -0.748877, 0.000000000000000046, 22.345124, 455.344243)" fill="none" stroke-linejoin="miter" d="M -0.000645492 0.502584 L 23.555947 0.502584 " stroke="#000000" stroke-width="1" stroke-opacity="1" stroke-miterlimit="4"/><path stroke-linecap="butt" transform="matrix(0.000000000000000047, 0.763288, -0.748877, 0.000000000000000046, 71.970815, 455.786044)" fill="none" stroke-linejoin="miter" d="M -0.00116346 0.498291 L 23.555429 0.498291 " stroke="#000000" stroke-width="1" stroke-opacity="1" stroke-miterlimit="4"/><path stroke-linecap="butt" transform="matrix(-0.744709, -0.000000000000000091, 0.000000000000000092, -0.748877, 72.054478, 455.873106)" fill="none" stroke-linejoin="miter" d="M -0.000280955 0.49822 L 67.386565 0.49822 " stroke="#000000" stroke-width="1" stroke-opacity="1" stroke-miterlimit="4"/><path stroke-linecap="butt" transform="matrix(0.000000000000000047, 0.763288, -0.748877, 0.000000000000000046, 115.2776, 455.190154)" fill="none" stroke-linejoin="miter" d="M 0.00164096 0.501092 L 23.553115 0.501092 " stroke="#000000" stroke-width="1" stroke-opacity="1" stroke-miterlimit="4"/><path stroke-linecap="butt" transform="matrix(0.000000000000000047, 0.763288, -0.748877, 0.000000000000000046, 166.67967, 455.771187)" fill="none" stroke-linejoin="miter" d="M -0.00216868 0.500726 L 23.554423 0.500726 " stroke="#000000" stroke-width="1" stroke-opacity="1" stroke-miterlimit="4"/><path stroke-linecap="butt" transform="matrix(-0.74803, -0.000000000000000092, 0.000000000000000092, -0.748877, 166.30219, 455.858296)" fill="none" stroke-linejoin="miter" d="M 0.00188322 0.499309 L 69.084354 0.499309 " stroke="#000000" stroke-width="1" stroke-opacity="1" stroke-miterlimit="4"/><path stroke-linecap="butt" transform="matrix(0.000000000000000046, 0.74808, -0.748877, 0.000000000000000046, 141.341482, 422.495636)" fill="none" stroke-linejoin="miter" d="M 0.000611306 0.497721 L 44.056085 0.497721 " stroke="#000000" stroke-width="1" stroke-opacity="1" stroke-miterlimit="4"/><path stroke-linecap="butt" transform="matrix(0.000000000000000045, 0.740339, -0.748877, 0.000000000000000046, 47.577785, 423.258293)" fill="none" stroke-linejoin="miter" d="M -0.000649023 0.500295 L 42.489382 0.500295 " stroke="#000000" stroke-width="1" stroke-opacity="1" stroke-miterlimit="4"/><path stroke-linecap="butt" transform="matrix(-0.747672, -0.000000000000000092, 0.000000000000000092, -0.748877, 141.340986, 422.852773)" fill="none" stroke-linejoin="miter" d="M 0.00152796 0.502366 L 126.205784 0.502366 " stroke="#000000" stroke-width="1" stroke-opacity="1" stroke-miterlimit="4"/><path stroke-linecap="butt" transform="matrix(0.000000000000000047, 0.763288, -0.748877, 0.000000000000000046, 22.345124, 455.344243)" fill="none" stroke-linejoin="miter" d="M -0.000645492 0.502584 L 23.555947 0.502584 " stroke="#000000" stroke-width="1" stroke-opacity="1" stroke-miterlimit="4"/><path stroke-linecap="butt" transform="matrix(0.000000000000000047, 0.763288, -0.748877, 0.000000000000000046, 71.970815, 455.786044)" fill="none" stroke-linejoin="miter" d="M -0.00116346 0.498291 L 23.555429 0.498291 " stroke="#000000" stroke-width="1" stroke-opacity="1" stroke-miterlimit="4"/><path stroke-linecap="butt" transform="matrix(-0.744709, -0.000000000000000091, 0.000000000000000092, -0.748877, 72.054478, 455.873106)" fill="none" stroke-linejoin="miter" d="M -0.000280955 0.49822 L 67.386565 0.49822 " stroke="#000000" stroke-width="1" stroke-opacity="1" stroke-miterlimit="4"/><path stroke-linecap="butt" transform="matrix(0.000000000000000047, 0.763288, -0.748877, 0.000000000000000046, 115.2776, 455.190154)" fill="none" stroke-linejoin="miter" d="M 0.00164096 0.501092 L 23.553115 0.501092 " stroke="#000000" stroke-width="1" stroke-opacity="1" stroke-miterlimit="4"/><path stroke-linecap="butt" transform="matrix(0.000000000000000047, 0.763288, -0.748877, 0.000000000000000046, 166.67967, 455.771187)" fill="none" stroke-linejoin="miter" d="M -0.00216868 0.500726 L 23.554423 0.500726 " stroke="#000000" stroke-width="1" stroke-opacity="1" stroke-miterlimit="4"/><path stroke-linecap="butt" transform="matrix(-0.74803, -0.000000000000000092, 0.000000000000000092, -0.748877, 166.30219, 455.858296)" fill="none" stroke-linejoin="miter" d="M 0.00188322 0.499309 L 69.084354 0.499309 " stroke="#000000" stroke-width="1" stroke-opacity="1" stroke-miterlimit="4"/><path stroke-linecap="butt" transform="matrix(0.000000000000000046, 0.74808, -0.748877, 0.000000000000000046, 141.341482, 422.495636)" fill="none" stroke-linejoin="miter" d="M 0.000611306 0.497721 L 44.056085 0.497721 " stroke="#000000" stroke-width="1" stroke-opacity="1" stroke-miterlimit="4"/><path stroke-linecap="butt" transform="matrix(0.000000000000000045, 0.740339, -0.748877, 0.000000000000000046, 235.347205, 423.243435)" fill="none" stroke-linejoin="miter" d="M -0.00168541 0.500147 L 42.488345 0.500147 " stroke="#000000" stroke-width="1" stroke-opacity="1" stroke-miterlimit="4"/><path stroke-linecap="butt" transform="matrix(-0.747672, -0.000000000000000092, 0.000000000000000092, -0.748877, 329.110392, 422.837915)" fill="none" stroke-linejoin="miter" d="M 0.00135975 0.498174 L 126.205616 0.498174 " stroke="#000000" stroke-width="1" stroke-opacity="1" stroke-miterlimit="4"/><path stroke-linecap="butt" transform="matrix(0.000000000000000047, 0.763288, -0.748877, 0.000000000000000046, 210.114534, 455.359052)" fill="none" stroke-linejoin="miter" d="M 0.000422525 0.502422 L 23.551897 0.502422 " stroke="#000000" stroke-width="1" stroke-opacity="1" stroke-miterlimit="4"/><path stroke-linecap="butt" transform="matrix(0.000000000000000047, 0.763288, -0.748877, 0.000000000000000046, 259.740228, 455.800854)" fill="none" stroke-linejoin="miter" d="M -0.0000954436 0.498133 L 23.551379 0.498133 " stroke="#000000" stroke-width="1" stroke-opacity="1" stroke-miterlimit="4"/><path stroke-linecap="butt" transform="matrix(-0.744709, -0.000000000000000091, 0.000000000000000092, -0.748877, 259.823891, 455.887963)" fill="none" stroke-linejoin="miter" d="M -0.000440177 0.502412 L 67.386406 0.502412 " stroke="#000000" stroke-width="1" stroke-opacity="1" stroke-miterlimit="4"/><path stroke-linecap="butt" transform="matrix(0.000000000000000047, 0.763288, -0.748877, 0.000000000000000046, 303.047006, 455.204987)" fill="none" stroke-linejoin="miter" d="M -0.00244008 0.500925 L 23.554152 0.500925 " stroke="#000000" stroke-width="1" stroke-opacity="1" stroke-miterlimit="4"/><path stroke-linecap="butt" transform="matrix(0.000000000000000047, 0.763288, -0.748877, 0.000000000000000046, 354.449089, 455.786044)" fill="none" stroke-linejoin="miter" d="M -0.00116346 0.500577 L 23.555429 0.500577 " stroke="#000000" stroke-width="1" stroke-opacity="1" stroke-miterlimit="4"/><path stroke-linecap="butt" transform="matrix(-0.74803, -0.000000000000000092, 0.000000000000000092, -0.748877, 354.07161, 455.873106)" fill="none" stroke-linejoin="miter" d="M 0.00173432 0.49822 L 69.084205 0.49822 " stroke="#000000" stroke-width="1" stroke-opacity="1" stroke-miterlimit="4"/><path stroke-linecap="butt" transform="matrix(0.000000000000000046, 0.74808, -0.748877, 0.000000000000000046, 329.110919, 422.480851)" fill="none" stroke-linejoin="miter" d="M -0.000510457 0.497595 L 44.054963 0.497595 " stroke="#000000" stroke-width="1" stroke-opacity="1" stroke-miterlimit="4"/><path stroke-linecap="butt" transform="matrix(0.000000000000000046, 0.751575, -0.748877, 0.000000000000000046, 276.190544, 366.866415)" fill="none" stroke-linejoin="miter" d="M 0.00102724 0.499598 L 73.747196 0.499598 " stroke="#000000" stroke-width="1" stroke-opacity="1" stroke-miterlimit="4"/><path stroke-linecap="butt" transform="matrix(0.74835, 0, 0, 0.748877, 93.338285, 366.861793)" fill="none" stroke-linejoin="miter" d="M 0.00208269 0.497521 L 244.17467 0.497521 " stroke="#000000" stroke-width="1" stroke-opacity="1" stroke-miterlimit="4"/><path stroke-linecap="butt" transform="matrix(0.000000000000000046, -0.745925, 0.748877, 0.000000000000000046, 281.060206, 139.99785)" fill="none" stroke-linejoin="miter" d="M 0.00235491 0.498597 L 75.307386 0.498597 " stroke="#000000" stroke-width="1" stroke-opacity="1" stroke-miterlimit="4"/><path stroke-linecap="butt" transform="matrix(0.000000000000000045, -0.740339, 0.748877, 0.000000000000000046, 327.57019, 83.60483)" fill="none" stroke-linejoin="miter" d="M -0.000863179 0.500914 L 42.489168 0.500914 " stroke="#000000" stroke-width="1" stroke-opacity="1" stroke-miterlimit="4"/><path stroke-linecap="butt" transform="matrix(0.747672, 0, 0, 0.748877, 233.806859, 84.010364)" fill="none" stroke-linejoin="miter" d="M 0.00232027 0.502559 L 126.206577 0.502559 " stroke="#000000" stroke-width="1" stroke-opacity="1" stroke-miterlimit="4"/><path stroke-linecap="butt" transform="matrix(0.000000000000000047, -0.763288, 0.748877, 0.000000000000000046, 352.800479, 51.518897)" fill="none" stroke-linejoin="miter" d="M -0.000831232 0.501153 L 23.555761 0.501153 " stroke="#000000" stroke-width="1" stroke-opacity="1" stroke-miterlimit="4"/><path stroke-linecap="butt" transform="matrix(0.000000000000000047, -0.763288, 0.748877, 0.000000000000000046, 303.174785, 51.077086)" fill="none" stroke-linejoin="miter" d="M -0.00136176 0.50208 L 23.55523 0.50208 " stroke="#000000" stroke-width="1" stroke-opacity="1" stroke-miterlimit="4"/><path stroke-linecap="butt" transform="matrix(0.744709, 0, 0, 0.748877, 303.089044, 50.989976)" fill="none" stroke-linejoin="miter" d="M 0.00107428 0.498486 L 67.382675 0.498486 " stroke="#000000" stroke-width="1" stroke-opacity="1" stroke-miterlimit="4"/><path stroke-linecap="butt" transform="matrix(0.000000000000000047, -0.763288, 0.748877, 0.000000000000000046, 259.868004, 51.672947)" fill="none" stroke-linejoin="miter" d="M 0.00140499 0.499659 L 23.552879 0.499659 " stroke="#000000" stroke-width="1" stroke-opacity="1" stroke-miterlimit="4"/><path stroke-linecap="butt" transform="matrix(0.000000000000000047, -0.763288, 0.748877, 0.000000000000000046, 208.46592, 51.091917)" fill="none" stroke-linejoin="miter" d="M -0.00240152 0.499312 L 23.554191 0.499312 " stroke="#000000" stroke-width="1" stroke-opacity="1" stroke-miterlimit="4"/><path stroke-linecap="butt" transform="matrix(0.74803, 0, 0, 0.748877, 208.842993, 51.004808)" fill="none" stroke-linejoin="miter" d="M 0.00101233 0.499546 L 69.083483 0.499546 " stroke="#000000" stroke-width="1" stroke-opacity="1" stroke-miterlimit="4"/><path stroke-linecap="butt" transform="matrix(0.000000000000000046, -0.74808, 0.748877, 0.000000000000000046, 233.804343, 84.367465)" fill="none" stroke-linejoin="miter" d="M 0.000370535 0.50121 L 44.055844 0.50121 " stroke="#000000" stroke-width="1" stroke-opacity="1" stroke-miterlimit="4"/><path stroke-linecap="butt" transform="matrix(0.000000000000000045, -0.740339, 0.748877, 0.000000000000000046, 327.57019, 83.60483)" fill="none" stroke-linejoin="miter" d="M -0.000863179 0.500914 L 42.489168 0.500914 " stroke="#000000" stroke-width="1" stroke-opacity="1" stroke-miterlimit="4"/><path stroke-linecap="butt" transform="matrix(0.747672, 0, 0, 0.748877, 233.806859, 84.010364)" fill="none" stroke-linejoin="miter" d="M 0.00232027 0.502559 L 126.206577 0.502559 " stroke="#000000" stroke-width="1" stroke-opacity="1" stroke-miterlimit="4"/><path stroke-linecap="butt" transform="matrix(0.000000000000000047, -0.763288, 0.748877, 0.000000000000000046, 352.800479, 51.518897)" fill="none" stroke-linejoin="miter" d="M -0.000831232 0.501153 L 23.555761 0.501153 " stroke="#000000" stroke-width="1" stroke-opacity="1" stroke-miterlimit="4"/><path stroke-linecap="butt" transform="matrix(0.000000000000000047, -0.763288, 0.748877, 0.000000000000000046, 303.174785, 51.077086)" fill="none" stroke-linejoin="miter" d="M -0.00136176 0.50208 L 23.55523 0.50208 " stroke="#000000" stroke-width="1" stroke-opacity="1" stroke-miterlimit="4"/><path stroke-linecap="butt" transform="matrix(0.744709, 0, 0, 0.748877, 303.089044, 50.989976)" fill="none" stroke-linejoin="miter" d="M 0.00107428 0.498486 L 67.382675 0.498486 " stroke="#000000" stroke-width="1" stroke-opacity="1" stroke-miterlimit="4"/><path stroke-linecap="butt" transform="matrix(0.000000000000000047, -0.763288, 0.748877, 0.000000000000000046, 259.868004, 51.672947)" fill="none" stroke-linejoin="miter" d="M 0.00140499 0.499659 L 23.552879 0.499659 " stroke="#000000" stroke-width="1" stroke-opacity="1" stroke-miterlimit="4"/><path stroke-linecap="butt" transform="matrix(0.000000000000000047, -0.763288, 0.748877, 0.000000000000000046, 208.46592, 51.091917)" fill="none" stroke-linejoin="miter" d="M -0.00240152 0.499312 L 23.554191 0.499312 " stroke="#000000" stroke-width="1" stroke-opacity="1" stroke-miterlimit="4"/><path stroke-linecap="butt" transform="matrix(0.74803, 0, 0, 0.748877, 208.842993, 51.004808)" fill="none" stroke-linejoin="miter" d="M 0.00101233 0.499546 L 69.083483 0.499546 " stroke="#000000" stroke-width="1" stroke-opacity="1" stroke-miterlimit="4"/><path stroke-linecap="butt" transform="matrix(0.000000000000000046, -0.74808, 0.748877, 0.000000000000000046, 233.804343, 84.367465)" fill="none" stroke-linejoin="miter" d="M 0.000370535 0.50121 L 44.055844 0.50121 " stroke="#000000" stroke-width="1" stroke-opacity="1" stroke-miterlimit="4"/><path stroke-linecap="butt" transform="matrix(0.000000000000000045, -0.740339, 0.748877, 0.000000000000000046, 327.57019, 83.60483)" fill="none" stroke-linejoin="miter" d="M -0.000863179 0.500914 L 42.489168 0.500914 " stroke="#000000" stroke-width="1" stroke-opacity="1" stroke-miterlimit="4"/><path stroke-linecap="butt" transform="matrix(0.747672, 0, 0, 0.748877, 233.806859, 84.010364)" fill="none" stroke-linejoin="miter" d="M 0.00232027 0.502559 L 126.206577 0.502559 " stroke="#000000" stroke-width="1" stroke-opacity="1" stroke-miterlimit="4"/><path stroke-linecap="butt" transform="matrix(0.000000000000000047, -0.763288, 0.748877, 0.000000000000000046, 352.800479, 51.518897)" fill="none" stroke-linejoin="miter" d="M -0.000831232 0.501153 L 23.555761 0.501153 " stroke="#000000" stroke-width="1" stroke-opacity="1" stroke-miterlimit="4"/><path stroke-linecap="butt" transform="matrix(0.000000000000000047, -0.763288, 0.748877, 0.000000000000000046, 303.174785, 51.077086)" fill="none" stroke-linejoin="miter" d="M -0.00136176 0.50208 L 23.55523 0.50208 " stroke="#000000" stroke-width="1" stroke-opacity="1" stroke-miterlimit="4"/><path stroke-linecap="butt" transform="matrix(0.744709, 0, 0, 0.748877, 303.089044, 50.989976)" fill="none" stroke-linejoin="miter" d="M 0.00107428 0.498486 L 67.382675 0.498486 " stroke="#000000" stroke-width="1" stroke-opacity="1" stroke-miterlimit="4"/><path stroke-linecap="butt" transform="matrix(0.000000000000000047, -0.763288, 0.748877, 0.000000000000000046, 259.868004, 51.672947)" fill="none" stroke-linejoin="miter" d="M 0.00140499 0.499659 L 23.552879 0.499659 " stroke="#000000" stroke-width="1" stroke-opacity="1" stroke-miterlimit="4"/><path stroke-linecap="butt" transform="matrix(0.000000000000000047, -0.763288, 0.748877, 0.000000000000000046, 208.46592, 51.091917)" fill="none" stroke-linejoin="miter" d="M -0.00240152 0.499312 L 23.554191 0.499312 " stroke="#000000" stroke-width="1" stroke-opacity="1" stroke-miterlimit="4"/><path stroke-linecap="butt" transform="matrix(0.74803, 0, 0, 0.748877, 208.842993, 51.004808)" fill="none" stroke-linejoin="miter" d="M 0.00101233 0.499546 L 69.083483 0.499546 " stroke="#000000" stroke-width="1" stroke-opacity="1" stroke-miterlimit="4"/><path stroke-linecap="butt" transform="matrix(0.000000000000000046, -0.74808, 0.748877, 0.000000000000000046, 233.804343, 84.367465)" fill="none" stroke-linejoin="miter" d="M 0.000370535 0.50121 L 44.055844 0.50121 " stroke="#000000" stroke-width="1" stroke-opacity="1" stroke-miterlimit="4"/><path stroke-linecap="butt" transform="matrix(0.000000000000000045, -0.740339, 0.748877, 0.000000000000000046, 139.800784, 83.619668)" fill="none" stroke-linejoin="miter" d="M -0.00192546 0.500746 L 42.488105 0.500746 " stroke="#000000" stroke-width="1" stroke-opacity="1" stroke-miterlimit="4"/><path stroke-linecap="butt" transform="matrix(0.747672, 0, 0, 0.748877, 46.037429, 84.025195)" fill="none" stroke-linejoin="miter" d="M 0.00218411 0.498402 L 126.20644 0.498402 " stroke="#000000" stroke-width="1" stroke-opacity="1" stroke-miterlimit="4"/><path stroke-linecap="butt" transform="matrix(0.000000000000000047, -0.763288, 0.748877, 0.000000000000000046, 165.031042, 51.504065)" fill="none" stroke-linejoin="miter" d="M 0.000208528 0.501027 L 23.551683 0.501027 " stroke="#000000" stroke-width="1" stroke-opacity="1" stroke-miterlimit="4"/><path stroke-linecap="butt" transform="matrix(0.000000000000000047, -0.763288, 0.748877, 0.000000000000000046, 115.405348, 51.062254)" fill="none" stroke-linejoin="miter" d="M -0.000321999 0.501954 L 23.55627 0.501954 " stroke="#000000" stroke-width="1" stroke-opacity="1" stroke-miterlimit="4"/><path stroke-linecap="butt" transform="matrix(0.744709, 0, 0, 0.748877, 115.319638, 50.975145)" fill="none" stroke-linejoin="miter" d="M 0.000905406 0.497427 L 67.382506 0.497427 " stroke="#000000" stroke-width="1" stroke-opacity="1" stroke-miterlimit="4"/><path stroke-linecap="butt" transform="matrix(0.000000000000000047, -0.763288, 0.748877, 0.000000000000000046, 72.098577, 51.658116)" fill="none" stroke-linejoin="miter" d="M 0.00244475 0.49952 L 23.553919 0.49952 " stroke="#000000" stroke-width="1" stroke-opacity="1" stroke-miterlimit="4"/><path stroke-linecap="butt" transform="matrix(0.000000000000000047, -0.763288, 0.748877, 0.000000000000000046, 20.696503, 51.077086)" fill="none" stroke-linejoin="miter" d="M -0.00136176 0.499161 L 23.55523 0.499161 " stroke="#000000" stroke-width="1" stroke-opacity="1" stroke-miterlimit="4"/><path stroke-linecap="butt" transform="matrix(0.74803, 0, 0, 0.748877, 21.073572, 50.989976)" fill="none" stroke-linejoin="miter" d="M 0.000864386 0.498486 L 69.083335 0.498486 " stroke="#000000" stroke-width="1" stroke-opacity="1" stroke-miterlimit="4"/><path stroke-linecap="butt" transform="matrix(0.000000000000000046, -0.74808, 0.748877, 0.000000000000000046, 46.034923, 84.382296)" fill="none" stroke-linejoin="miter" d="M -0.000690363 0.501061 L 44.054783 0.501061 " stroke="#000000" stroke-width="1" stroke-opacity="1" stroke-miterlimit="4"/><path stroke-linecap="butt" transform="matrix(0.000000000000000046, -0.751575, 0.748877, 0.000000000000000046, 98.951054, 139.996695)" fill="none" stroke-linejoin="miter" d="M 0.000800343 0.498299 L 73.746969 0.498299 " stroke="#000000" stroke-width="1" stroke-opacity="1" stroke-miterlimit="4"/><path stroke-linecap="butt" transform="matrix(-0.74835, -0.000000000000000092, 0.000000000000000092, -0.748877, 281.81043, 140.001318)" fill="none" stroke-linejoin="miter" d="M 0.00245352 0.50251 L 244.175041 0.50251 " stroke="#000000" stroke-width="1" stroke-opacity="1" stroke-miterlimit="4"/></svg>