<svg xmlns="http://www.w3.org/2000/svg" xmlns:xlink="http://www.w3.org/1999/xlink" width="862" zoomAndPan="magnify" viewBox="0 0 646.5 562.499983" height="750" preserveAspectRatio="xMidYMid meet" version="1.0"><defs><clipPath id="c97774af04"><path d="M 0.0390625 0 L 645.964844 0 L 645.964844 562 L 0.0390625 562 Z M 0.0390625 0 " clip-rule="nonzero"/></clipPath><clipPath id="ef53f8bf78"><path d="M 292.371094 250.828125 L 353.863281 250.828125 L 353.863281 312.320312 L 292.371094 312.320312 Z M 292.371094 250.828125 " clip-rule="nonzero"/></clipPath><clipPath id="9229495608"><path d="M 230.074219 260.035156 L 272.066406 260.035156 L 272.066406 302.027344 L 230.074219 302.027344 Z M 230.074219 260.035156 " clip-rule="nonzero"/></clipPath><clipPath id="bb1fa5def5"><path d="M 374.324219 260.035156 L 416.316406 260.035156 L 416.316406 302.027344 L 374.324219 302.027344 Z M 374.324219 260.035156 " clip-rule="nonzero"/></clipPath><clipPath id="ada0e8674c"><path d="M 147.355469 120.046875 L 189.351562 120.046875 L 189.351562 162.042969 L 147.355469 162.042969 Z M 147.355469 120.046875 " clip-rule="nonzero"/></clipPath><clipPath id="c26bc0f607"><path d="M 90.644531 52.128906 L 125.140625 52.128906 L 125.140625 86.625 L 90.644531 86.625 Z M 90.644531 52.128906 " clip-rule="nonzero"/></clipPath><clipPath id="b7b0fb4704"><path d="M 36.25 15.359375 L 70.746094 15.359375 L 70.746094 49.855469 L 36.25 49.855469 Z M 36.25 15.359375 " clip-rule="nonzero"/></clipPath><clipPath id="a633caf26b"><path d="M 36.25 90.398438 L 70.746094 90.398438 L 70.746094 124.894531 L 36.25 124.894531 Z M 36.25 90.398438 " clip-rule="nonzero"/></clipPath><clipPath id="2279aa4550"><path d="M 90.644531 193.472656 L 125.140625 193.472656 L 125.140625 227.96875 L 90.644531 227.96875 Z M 90.644531 193.472656 " clip-rule="nonzero"/></clipPath><clipPath id="ae95e2096f"><path d="M 36.25 156.703125 L 70.746094 156.703125 L 70.746094 191.199219 L 36.25 191.199219 Z M 36.25 156.703125 " clip-rule="nonzero"/></clipPath><clipPath id="395368bed0"><path d="M 36.25 231.742188 L 70.746094 231.742188 L 70.746094 266.238281 L 36.25 266.238281 Z M 36.25 231.742188 " clip-rule="nonzero"/></clipPath><clipPath id="d22aa7a18f"><path d="M 146.605469 401.089844 L 188.601562 401.089844 L 188.601562 443.085938 L 146.605469 443.085938 Z M 146.605469 401.089844 " clip-rule="nonzero"/></clipPath><clipPath id="ebdc3d35fa"><path d="M 89.894531 333.171875 L 124.390625 333.171875 L 124.390625 367.667969 L 89.894531 367.667969 Z M 89.894531 333.171875 " clip-rule="nonzero"/></clipPath><clipPath id="7df4cb9b3d"><path d="M 35.5 296.402344 L 69.996094 296.402344 L 69.996094 330.898438 L 35.5 330.898438 Z M 35.5 296.402344 " clip-rule="nonzero"/></clipPath><clipPath id="f034c7e67c"><path d="M 35.5 371.441406 L 69.996094 371.441406 L 69.996094 405.9375 L 35.5 405.9375 Z M 35.5 371.441406 " clip-rule="nonzero"/></clipPath><clipPath id="4157c59989"><path d="M 89.894531 474.511719 L 124.390625 474.511719 L 124.390625 509.007812 L 89.894531 509.007812 Z M 89.894531 474.511719 " clip-rule="nonzero"/></clipPath><clipPath id="a3d26e2bd2"><path d="M 35.5 437.742188 L 69.996094 437.742188 L 69.996094 472.238281 L 35.5 472.238281 Z M 35.5 437.742188 " clip-rule="nonzero"/></clipPath><clipPath id="1a8af6b714"><path d="M 35.5 512.78125 L 69.996094 512.78125 L 69.996094 547.277344 L 35.5 547.277344 Z M 35.5 512.78125 " clip-rule="nonzero"/></clipPath><clipPath id="6bfaee83bd"><path d="M 457.835938 401.171875 L 499.828125 401.171875 L 499.828125 443.167969 L 457.835938 443.167969 Z M 457.835938 401.171875 " clip-rule="nonzero"/></clipPath><clipPath id="93d4f96fe6"><path d="M 522.046875 476.589844 L 556.542969 476.589844 L 556.542969 511.085938 L 522.046875 511.085938 Z M 522.046875 476.589844 " clip-rule="nonzero"/></clipPath><clipPath id="24d1f6c824"><path d="M 576.441406 513.359375 L 610.9375 513.359375 L 610.9375 547.855469 L 576.441406 547.855469 Z M 576.441406 513.359375 " clip-rule="nonzero"/></clipPath><clipPath id="64669824bf"><path d="M 576.441406 438.320312 L 610.9375 438.320312 L 610.9375 472.816406 L 576.441406 472.816406 Z M 576.441406 438.320312 " clip-rule="nonzero"/></clipPath><clipPath id="fcd7db18b5"><path d="M 522.046875 335.25 L 556.542969 335.25 L 556.542969 369.746094 L 522.046875 369.746094 Z M 522.046875 335.25 " clip-rule="nonzero"/></clipPath><clipPath id="98430a0984"><path d="M 576.441406 372.019531 L 610.9375 372.019531 L 610.9375 406.515625 L 576.441406 406.515625 Z M 576.441406 372.019531 " clip-rule="nonzero"/></clipPath><clipPath id="ee047b60d4"><path d="M 576.441406 296.980469 L 610.9375 296.980469 L 610.9375 331.476562 L 576.441406 331.476562 Z M 576.441406 296.980469 " clip-rule="nonzero"/></clipPath><clipPath id="aa7dffd3cd"><path d="M 457.484375 120.699219 L 499.480469 120.699219 L 499.480469 162.695312 L 457.484375 162.695312 Z M 457.484375 120.699219 " clip-rule="nonzero"/></clipPath><clipPath id="25624fa67f"><path d="M 521.699219 196.117188 L 556.195312 196.117188 L 556.195312 230.613281 L 521.699219 230.613281 Z M 521.699219 196.117188 " clip-rule="nonzero"/></clipPath><clipPath id="d5e0562327"><path d="M 576.089844 232.886719 L 610.585938 232.886719 L 610.585938 267.382812 L 576.089844 267.382812 Z M 576.089844 232.886719 " clip-rule="nonzero"/></clipPath><clipPath id="ece60497a6"><path d="M 576.089844 157.847656 L 610.585938 157.847656 L 610.585938 192.34375 L 576.089844 192.34375 Z M 576.089844 157.847656 " clip-rule="nonzero"/></clipPath><clipPath id="b115fc3246"><path d="M 521.699219 54.777344 L 556.195312 54.777344 L 556.195312 89.273438 L 521.699219 89.273438 Z M 521.699219 54.777344 " clip-rule="nonzero"/></clipPath><clipPath id="a9ac8ab4f4"><path d="M 576.089844 91.546875 L 610.585938 91.546875 L 610.585938 126.042969 L 576.089844 126.042969 Z M 576.089844 91.546875 " clip-rule="nonzero"/></clipPath><clipPath id="d68acd65d6"><path d="M 576.089844 16.507812 L 610.585938 16.507812 L 610.585938 51 L 576.089844 51 Z M 576.089844 16.507812 " clip-rule="nonzero"/></clipPath></defs><g clip-path="url(#c97774af04)"><path fill="#ffffff" d="M 0.0390625 0 L 646.460938 0 L 646.460938 569.183594 L 0.0390625 569.183594 Z M 0.0390625 0 " fill-opacity="1" fill-rule="nonzero"/><path fill="#ffffff" d="M 0.0390625 0 L 646.460938 0 L 646.460938 562.433594 L 0.0390625 562.433594 Z M 0.0390625 0 " fill-opacity="1" fill-rule="nonzero"/><path fill="#ffffff" d="M 0.0390625 0 L 646.460938 0 L 646.460938 562.433594 L 0.0390625 562.433594 Z M 0.0390625 0 " fill-opacity="1" fill-rule="nonzero"/></g><path stroke-linecap="butt" transform="matrix(0.748816, 0, 0, 0.749913, 251.152233, 281.48525)" fill="none" stroke-linejoin="miter" d="M 3.750858 0.498891 L 192.282741 0.498891 " stroke="#000000" stroke-width="1" stroke-opacity="1" stroke-miterlimit="4"/><path stroke-linecap="butt" transform="matrix(0.748816, 0, 0, 0.749913, 251.152233, 281.860209)" fill-opacity="1" fill="#000000" fill-rule="nonzero" stroke-linejoin="miter" d="M 3.500463 -0.00111274 C 3.500463 0.196827 3.463947 0.389557 3.385699 0.57187 C 3.30745 0.759392 3.203119 0.920869 3.062272 1.06151 C 2.921424 1.202151 2.759711 1.311539 2.571915 1.384464 C 2.389335 1.462598 2.196322 1.49906 1.998092 1.49906 C 1.799863 1.49906 1.612067 1.462598 1.42427 1.384464 C 1.24169 1.311539 1.079977 1.202151 0.93913 1.06151 C 0.798282 0.920869 0.688735 0.759392 0.615703 0.57187 C 0.537454 0.389557 0.500938 0.196827 0.500938 -0.00111274 C 0.500938 -0.199052 0.537454 -0.391783 0.615703 -0.574096 C 0.688735 -0.756408 0.798282 -0.917885 0.93913 -1.058527 C 1.079977 -1.199168 1.24169 -1.308555 1.42427 -1.386689 C 1.612067 -1.459615 1.799863 -1.501286 1.998092 -1.501286 C 2.196322 -1.501286 2.389335 -1.459615 2.571915 -1.386689 C 2.759711 -1.308555 2.921424 -1.199168 3.062272 -1.058527 C 3.203119 -0.917885 3.30745 -0.756408 3.385699 -0.574096 C 3.463947 -0.391783 3.500463 -0.199052 3.500463 -0.00111274 Z M 3.500463 -0.00111274 " stroke="#000000" stroke-width="1" stroke-opacity="1" stroke-miterlimit="4"/><g clip-path="url(#ef53f8bf78)"><path fill="#ffffff" d="M 323.117188 250.828125 C 306.136719 250.828125 292.375 264.59375 292.375 281.574219 C 292.375 298.554688 306.136719 312.320312 323.117188 312.320312 C 340.097656 312.320312 353.863281 298.554688 353.863281 281.574219 C 353.863281 264.59375 340.097656 250.828125 323.117188 250.828125 " fill-opacity="1" fill-rule="nonzero"/></g><path stroke-linecap="butt" transform="matrix(0.000000000000000046, -0.750007, 0.749913, 0.000000000000000046, 250.721425, 422.451441)" fill="none" stroke-linejoin="miter" d="M -0.00224473 0.5017 L 374.957713 0.5017 " stroke="#000000" stroke-width="1" stroke-opacity="1" stroke-miterlimit="4"/><g clip-path="url(#9229495608)"><path fill="#ffffff" d="M 251.070312 260.035156 C 239.472656 260.035156 230.074219 269.433594 230.074219 281.03125 C 230.074219 292.628906 239.472656 302.027344 251.070312 302.027344 C 262.667969 302.027344 272.066406 292.628906 272.066406 281.03125 C 272.066406 269.433594 262.667969 260.035156 251.070312 260.035156 " fill-opacity="1" fill-rule="nonzero"/></g><path stroke-linecap="butt" transform="matrix(0.000000000000000046, -0.750007, 0.749913, 0.000000000000000046, 394.970799, 421.808693)" fill="none" stroke-linejoin="miter" d="M 0.000132085 0.502534 L 374.960089 0.502534 " stroke="#000000" stroke-width="1" stroke-opacity="1" stroke-miterlimit="4"/><g clip-path="url(#bb1fa5def5)"><path fill="#ffffff" d="M 395.320312 260.035156 C 383.722656 260.035156 374.324219 269.433594 374.324219 281.03125 C 374.324219 292.628906 383.722656 302.027344 395.320312 302.027344 C 406.917969 302.027344 416.316406 292.628906 416.316406 281.03125 C 416.316406 269.433594 406.917969 260.035156 395.320312 260.035156 " fill-opacity="1" fill-rule="nonzero"/></g><path stroke-linecap="butt" transform="matrix(0.751301, 0, 0, 0.749913, 169.132212, 141.231242)" fill="none" stroke-linejoin="miter" d="M 0.000799391 0.499026 L 109.799955 0.499026 " stroke="#000000" stroke-width="1" stroke-opacity="1" stroke-miterlimit="4"/><path stroke-linecap="butt" transform="matrix(0.000000000000000046, -0.749542, 0.749913, 0.000000000000000046, 168.378267, 211.435762)" fill="none" stroke-linejoin="miter" d="M -0.00231875 0.50091 L 189.10284 0.50091 " stroke="#000000" stroke-width="1" stroke-opacity="1" stroke-miterlimit="4"/><g clip-path="url(#ada0e8674c)"><path fill="#ffffff" d="M 168.355469 120.046875 C 156.757812 120.046875 147.359375 129.449219 147.359375 141.042969 C 147.359375 152.640625 156.757812 162.042969 168.355469 162.042969 C 179.949219 162.042969 189.351562 152.640625 189.351562 141.042969 C 189.351562 129.449219 179.949219 120.046875 168.355469 120.046875 " fill-opacity="1" fill-rule="nonzero"/></g><path stroke-linecap="butt" transform="matrix(0.000000000000000046, 0.749445, -0.749913, 0.000000000000000046, 109.22043, 32.579295)" fill="none" stroke-linejoin="miter" d="M -0.0015614 0.502297 L 100.062067 0.502297 " stroke="#000000" stroke-width="1" stroke-opacity="1" stroke-miterlimit="4"/><path stroke-linecap="butt" transform="matrix(0.746314, 0, 0, 0.749913, 107.345961, 69.348486)" fill="none" stroke-linejoin="miter" d="M 0.00227198 0.498952 L 81.391827 0.498952 " stroke="#000000" stroke-width="1" stroke-opacity="1" stroke-miterlimit="4"/><g clip-path="url(#c26bc0f607)"><path fill="#ffffff" d="M 107.890625 52.136719 C 98.363281 52.136719 90.644531 59.855469 90.644531 69.378906 C 90.644531 78.898438 98.363281 86.621094 107.890625 86.621094 C 117.417969 86.621094 125.140625 78.898438 125.140625 69.378906 C 125.140625 59.855469 117.417969 52.136719 107.890625 52.136719 " fill-opacity="1" fill-rule="nonzero"/></g><path stroke-linecap="butt" transform="matrix(0.754694, 0, 0, 0.749913, 53.32818, 32.204024)" fill="none" stroke-linejoin="miter" d="M -0.000072222 0.498858 L 73.534494 0.498858 " stroke="#000000" stroke-width="1" stroke-opacity="1" stroke-miterlimit="4"/><g clip-path="url(#b7b0fb4704)"><path fill="#ffffff" d="M 53.5 15.367188 C 43.972656 15.367188 36.25 23.085938 36.25 32.609375 C 36.25 42.128906 43.972656 49.851562 53.5 49.851562 C 63.023438 49.851562 70.746094 42.128906 70.746094 32.609375 C 70.746094 23.085938 63.023438 15.367188 53.5 15.367188 " fill-opacity="1" fill-rule="nonzero"/></g><path stroke-linecap="butt" transform="matrix(0.754694, 0, 0, 0.749913, 53.32818, 107.24287)" fill="none" stroke-linejoin="miter" d="M -0.000072222 0.499147 L 73.534494 0.499147 " stroke="#000000" stroke-width="1" stroke-opacity="1" stroke-miterlimit="4"/><g clip-path="url(#a633caf26b)"><path fill="#ffffff" d="M 53.5 90.40625 C 43.972656 90.40625 36.25 98.125 36.25 107.648438 C 36.25 117.167969 43.972656 124.890625 53.5 124.890625 C 63.023438 124.890625 70.746094 117.167969 70.746094 107.648438 C 70.746094 98.125 63.023438 90.40625 53.5 90.40625 " fill-opacity="1" fill-rule="nonzero"/></g><path stroke-linecap="butt" transform="matrix(0.000000000000000046, 0.749445, -0.749913, 0.000000000000000046, 109.22043, 173.920684)" fill="none" stroke-linejoin="miter" d="M 0.00158889 0.502297 L 100.065218 0.502297 " stroke="#000000" stroke-width="1" stroke-opacity="1" stroke-miterlimit="4"/><path stroke-linecap="butt" transform="matrix(0.746314, 0, 0, 0.749913, 107.345961, 210.689869)" fill="none" stroke-linejoin="miter" d="M 0.00227198 0.502108 L 81.391827 0.502108 " stroke="#000000" stroke-width="1" stroke-opacity="1" stroke-miterlimit="4"/><g clip-path="url(#2279aa4550)"><path fill="#ffffff" d="M 107.890625 193.476562 C 98.363281 193.476562 90.644531 201.195312 90.644531 210.71875 C 90.644531 220.242188 98.363281 227.960938 107.890625 227.960938 C 117.417969 227.960938 125.140625 220.242188 125.140625 210.71875 C 125.140625 201.195312 117.417969 193.476562 107.890625 193.476562 " fill-opacity="1" fill-rule="nonzero"/></g><path stroke-linecap="butt" transform="matrix(0.754694, 0, 0, 0.749913, 53.32818, 173.545403)" fill="none" stroke-linejoin="miter" d="M -0.000072222 0.50202 L 73.534494 0.50202 " stroke="#000000" stroke-width="1" stroke-opacity="1" stroke-miterlimit="4"/><g clip-path="url(#ae95e2096f)"><path fill="#ffffff" d="M 53.5 156.707031 C 43.972656 156.707031 36.25 164.425781 36.25 173.949219 C 36.25 183.472656 43.972656 191.191406 53.5 191.191406 C 63.023438 191.191406 70.746094 183.472656 70.746094 173.949219 C 70.746094 164.425781 63.023438 156.707031 53.5 156.707031 " fill-opacity="1" fill-rule="nonzero"/></g><path stroke-linecap="butt" transform="matrix(0.754694, 0, 0, 0.749913, 53.32818, 248.584222)" fill="none" stroke-linejoin="miter" d="M -0.000072222 0.502345 L 73.534494 0.502345 " stroke="#000000" stroke-width="1" stroke-opacity="1" stroke-miterlimit="4"/><g clip-path="url(#395368bed0)"><path fill="#ffffff" d="M 53.5 231.746094 C 43.972656 231.746094 36.25 239.464844 36.25 248.988281 C 36.25 258.511719 43.972656 266.230469 53.5 266.230469 C 63.023438 266.230469 70.746094 258.511719 70.746094 248.988281 C 70.746094 239.464844 63.023438 231.746094 53.5 231.746094 " fill-opacity="1" fill-rule="nonzero"/></g><path stroke-linecap="butt" transform="matrix(0.751301, 0, 0, 0.749913, 168.382276, 422.272824)" fill="none" stroke-linejoin="miter" d="M 0.000713855 0.500876 L 109.799869 0.500876 " stroke="#000000" stroke-width="1" stroke-opacity="1" stroke-miterlimit="4"/><path stroke-linecap="butt" transform="matrix(0.000000000000000046, -0.749542, 0.749913, 0.000000000000000046, 167.628348, 492.477327)" fill="none" stroke-linejoin="miter" d="M 0.00102023 0.500802 L 189.106179 0.500802 " stroke="#000000" stroke-width="1" stroke-opacity="1" stroke-miterlimit="4"/><g clip-path="url(#d22aa7a18f)"><path fill="#ffffff" d="M 167.605469 401.089844 C 156.007812 401.089844 146.609375 410.488281 146.609375 422.085938 C 146.609375 433.683594 156.007812 443.085938 167.605469 443.085938 C 179.199219 443.085938 188.601562 433.683594 188.601562 422.085938 C 188.601562 410.488281 179.199219 401.089844 167.605469 401.089844 " fill-opacity="1" fill-rule="nonzero"/></g><path stroke-linecap="butt" transform="matrix(0.000000000000000046, 0.749445, -0.749913, 0.000000000000000046, 108.470508, 313.620871)" fill="none" stroke-linejoin="miter" d="M 0.000297628 0.502402 L 100.063926 0.502402 " stroke="#000000" stroke-width="1" stroke-opacity="1" stroke-miterlimit="4"/><path stroke-linecap="butt" transform="matrix(0.746314, 0, 0, 0.749913, 106.596046, 350.39007)" fill="none" stroke-linejoin="miter" d="M 0.00215695 0.500798 L 81.391712 0.500798 " stroke="#000000" stroke-width="1" stroke-opacity="1" stroke-miterlimit="4"/><g clip-path="url(#ebdc3d35fa)"><path fill="#ffffff" d="M 107.140625 333.175781 C 97.613281 333.175781 89.894531 340.898438 89.894531 350.417969 C 89.894531 359.941406 97.613281 367.660156 107.140625 367.660156 C 116.667969 367.660156 124.390625 359.941406 124.390625 350.417969 C 124.390625 340.898438 116.667969 333.175781 107.140625 333.175781 " fill-opacity="1" fill-rule="nonzero"/></g><path stroke-linecap="butt" transform="matrix(0.754694, 0, 0, 0.749913, 52.578265, 313.24559)" fill="none" stroke-linejoin="miter" d="M -0.000185969 0.50073 L 73.53438 0.50073 " stroke="#000000" stroke-width="1" stroke-opacity="1" stroke-miterlimit="4"/><g clip-path="url(#7df4cb9b3d)"><path fill="#ffffff" d="M 52.75 296.40625 C 43.222656 296.40625 35.5 304.128906 35.5 313.648438 C 35.5 323.171875 43.222656 330.890625 52.75 330.890625 C 62.273438 330.890625 69.996094 323.171875 69.996094 313.648438 C 69.996094 304.128906 62.273438 296.40625 52.75 296.40625 " fill-opacity="1" fill-rule="nonzero"/></g><path stroke-linecap="butt" transform="matrix(0.754694, 0, 0, 0.749913, 52.578265, 388.284411)" fill="none" stroke-linejoin="miter" d="M -0.000185969 0.501051 L 73.53438 0.501051 " stroke="#000000" stroke-width="1" stroke-opacity="1" stroke-miterlimit="4"/><g clip-path="url(#f034c7e67c)"><path fill="#ffffff" d="M 52.75 371.445312 C 43.222656 371.445312 35.5 379.164062 35.5 388.6875 C 35.5 398.210938 43.222656 405.929688 52.75 405.929688 C 62.273438 405.929688 69.996094 398.210938 69.996094 388.6875 C 69.996094 379.164062 62.273438 371.445312 52.75 371.445312 " fill-opacity="1" fill-rule="nonzero"/></g><path stroke-linecap="butt" transform="matrix(0.000000000000000046, 0.749445, -0.749913, 0.000000000000000046, 108.470508, 454.962269)" fill="none" stroke-linejoin="miter" d="M -0.00177612 0.502402 L 100.061853 0.502402 " stroke="#000000" stroke-width="1" stroke-opacity="1" stroke-miterlimit="4"/><path stroke-linecap="butt" transform="matrix(0.746314, 0, 0, 0.749913, 106.596046, 491.731446)" fill="none" stroke-linejoin="miter" d="M 0.00215695 0.498754 L 81.391712 0.498754 " stroke="#000000" stroke-width="1" stroke-opacity="1" stroke-miterlimit="4"/><g clip-path="url(#4157c59989)"><path fill="#ffffff" d="M 107.140625 474.519531 C 97.613281 474.519531 89.894531 482.238281 89.894531 491.761719 C 89.894531 501.285156 97.613281 509.003906 107.140625 509.003906 C 116.667969 509.003906 124.390625 501.285156 124.390625 491.761719 C 124.390625 482.238281 116.667969 474.519531 107.140625 474.519531 " fill-opacity="1" fill-rule="nonzero"/></g><path stroke-linecap="butt" transform="matrix(0.754694, 0, 0, 0.749913, 52.578265, 454.587002)" fill="none" stroke-linejoin="miter" d="M -0.000185969 0.498638 L 73.53438 0.498638 " stroke="#000000" stroke-width="1" stroke-opacity="1" stroke-miterlimit="4"/><g clip-path="url(#a3d26e2bd2)"><path fill="#ffffff" d="M 52.75 437.75 C 43.222656 437.75 35.5 445.46875 35.5 454.992188 C 35.5 464.515625 43.222656 472.234375 52.75 472.234375 C 62.273438 472.234375 69.996094 464.515625 69.996094 454.992188 C 69.996094 445.46875 62.273438 437.75 52.75 437.75 " fill-opacity="1" fill-rule="nonzero"/></g><path stroke-linecap="butt" transform="matrix(0.754694, 0, 0, 0.749913, 52.578265, 529.625776)" fill="none" stroke-linejoin="miter" d="M -0.000185969 0.499023 L 73.53438 0.499023 " stroke="#000000" stroke-width="1" stroke-opacity="1" stroke-miterlimit="4"/><g clip-path="url(#1a8af6b714)"><path fill="#ffffff" d="M 52.75 512.789062 C 43.222656 512.789062 35.5 520.507812 35.5 530.03125 C 35.5 539.550781 43.222656 547.273438 52.75 547.273438 C 62.273438 547.273438 69.996094 539.550781 69.996094 530.03125 C 69.996094 520.507812 62.273438 512.789062 52.75 512.789062 " fill-opacity="1" fill-rule="nonzero"/></g><path stroke-linecap="butt" transform="matrix(-0.751301, -0.000000000000000092, 0.000000000000000092, -0.749913, 478.0541, 421.984145)" fill="none" stroke-linejoin="miter" d="M -0.000782216 0.499751 L 109.798373 0.499751 " stroke="#000000" stroke-width="1" stroke-opacity="1" stroke-miterlimit="4"/><path stroke-linecap="butt" transform="matrix(-0.000000000000000138, 0.749542, -0.749913, -0.000000000000000138, 478.808038, 351.779644)" fill="none" stroke-linejoin="miter" d="M 0.0021423 0.499316 L 189.102089 0.499316 " stroke="#000000" stroke-width="1" stroke-opacity="1" stroke-miterlimit="4"/><g clip-path="url(#6bfaee83bd)"><path fill="#ffffff" d="M 478.832031 443.167969 C 490.429688 443.167969 499.828125 433.765625 499.828125 422.171875 C 499.828125 410.574219 490.429688 401.171875 478.832031 401.171875 C 467.234375 401.171875 457.835938 410.574219 457.835938 422.171875 C 457.835938 433.765625 467.234375 443.167969 478.832031 443.167969 " fill-opacity="1" fill-rule="nonzero"/></g><path stroke-linecap="butt" transform="matrix(0.000000000000000046, -0.749445, 0.749913, 0.000000000000000046, 537.965897, 530.636094)" fill="none" stroke-linejoin="miter" d="M -0.000834184 0.498654 L 100.062794 0.498654 " stroke="#000000" stroke-width="1" stroke-opacity="1" stroke-miterlimit="4"/><path stroke-linecap="butt" transform="matrix(-0.746314, -0.000000000000000091, 0.000000000000000092, -0.749913, 539.840334, 493.86694)" fill="none" stroke-linejoin="miter" d="M 0.000657311 0.499728 L 81.390212 0.499728 " stroke="#000000" stroke-width="1" stroke-opacity="1" stroke-miterlimit="4"/><g clip-path="url(#93d4f96fe6)"><path fill="#ffffff" d="M 539.296875 511.078125 C 548.820312 511.078125 556.542969 503.359375 556.542969 493.835938 C 556.542969 484.316406 548.820312 476.59375 539.296875 476.59375 C 529.769531 476.59375 522.046875 484.316406 522.046875 493.835938 C 522.046875 503.359375 529.769531 511.078125 539.296875 511.078125 " fill-opacity="1" fill-rule="nonzero"/></g><path stroke-linecap="butt" transform="matrix(-0.754694, -0.000000000000000092, 0.000000000000000092, -0.749913, 593.858123, 531.01136)" fill="none" stroke-linejoin="miter" d="M -0.00165943 0.499579 L 73.532907 0.499579 " stroke="#000000" stroke-width="1" stroke-opacity="1" stroke-miterlimit="4"/><g clip-path="url(#24d1f6c824)"><path fill="#ffffff" d="M 593.6875 547.847656 C 603.214844 547.847656 610.9375 540.128906 610.9375 530.605469 C 610.9375 521.085938 603.214844 513.363281 593.6875 513.363281 C 584.164062 513.363281 576.441406 521.085938 576.441406 530.605469 C 576.441406 540.128906 584.164062 547.847656 593.6875 547.847656 " fill-opacity="1" fill-rule="nonzero"/></g><path stroke-linecap="butt" transform="matrix(-0.754694, -0.000000000000000092, 0.000000000000000092, -0.749913, 593.858123, 455.972539)" fill="none" stroke-linejoin="miter" d="M -0.00165943 0.499901 L 73.532907 0.499901 " stroke="#000000" stroke-width="1" stroke-opacity="1" stroke-miterlimit="4"/><g clip-path="url(#64669824bf)"><path fill="#ffffff" d="M 593.6875 472.8125 C 603.214844 472.8125 610.9375 465.089844 610.9375 455.570312 C 610.9375 446.046875 603.214844 438.324219 593.6875 438.324219 C 584.164062 438.324219 576.441406 446.046875 576.441406 455.570312 C 576.441406 465.089844 584.164062 472.8125 593.6875 472.8125 " fill-opacity="1" fill-rule="nonzero"/></g><path stroke-linecap="butt" transform="matrix(0.000000000000000046, -0.749445, 0.749913, 0.000000000000000046, 537.965897, 389.294724)" fill="none" stroke-linejoin="miter" d="M 0.00234266 0.498654 L 100.060759 0.498654 " stroke="#000000" stroke-width="1" stroke-opacity="1" stroke-miterlimit="4"/><path stroke-linecap="butt" transform="matrix(-0.746314, -0.000000000000000091, 0.000000000000000092, -0.749913, 539.840334, 352.525525)" fill="none" stroke-linejoin="miter" d="M 0.000657311 0.497633 L 81.390212 0.497633 " stroke="#000000" stroke-width="1" stroke-opacity="1" stroke-miterlimit="4"/><g clip-path="url(#fcd7db18b5)"><path fill="#ffffff" d="M 539.296875 369.738281 C 548.820312 369.738281 556.542969 362.019531 556.542969 352.496094 C 556.542969 342.972656 548.820312 335.253906 539.296875 335.253906 C 529.769531 335.253906 522.046875 342.972656 522.046875 352.496094 C 522.046875 362.019531 529.769531 369.738281 539.296875 369.738281 " fill-opacity="1" fill-rule="nonzero"/></g><path stroke-linecap="butt" transform="matrix(-0.754694, -0.000000000000000092, 0.000000000000000092, -0.749913, 593.858123, 389.670005)" fill="none" stroke-linejoin="miter" d="M -0.00165943 0.497564 L 73.532907 0.497564 " stroke="#000000" stroke-width="1" stroke-opacity="1" stroke-miterlimit="4"/><g clip-path="url(#98430a0984)"><path fill="#ffffff" d="M 593.6875 406.507812 C 603.214844 406.507812 610.9375 398.789062 610.9375 389.265625 C 610.9375 379.742188 603.214844 372.023438 593.6875 372.023438 C 584.164062 372.023438 576.441406 379.742188 576.441406 389.265625 C 576.441406 398.789062 584.164062 406.507812 593.6875 406.507812 " fill-opacity="1" fill-rule="nonzero"/></g><path stroke-linecap="butt" transform="matrix(-0.754694, -0.000000000000000092, 0.000000000000000092, -0.749913, 593.858123, 314.631155)" fill="none" stroke-linejoin="miter" d="M -0.00165943 0.497847 L 73.532907 0.497847 " stroke="#000000" stroke-width="1" stroke-opacity="1" stroke-miterlimit="4"/><g clip-path="url(#ee047b60d4)"><path fill="#ffffff" d="M 593.6875 331.46875 C 603.214844 331.46875 610.9375 323.75 610.9375 314.226562 C 610.9375 304.703125 603.214844 296.984375 593.6875 296.984375 C 584.164062 296.984375 576.441406 304.703125 576.441406 314.226562 C 576.441406 323.75 584.164062 331.46875 593.6875 331.46875 " fill-opacity="1" fill-rule="nonzero"/></g><path stroke-linecap="butt" transform="matrix(-0.751301, -0.000000000000000092, 0.000000000000000092, -0.749913, 477.705426, 141.511951)" fill="none" stroke-linejoin="miter" d="M -0.00213692 0.500368 L 109.802218 0.500368 " stroke="#000000" stroke-width="1" stroke-opacity="1" stroke-miterlimit="4"/><path stroke-linecap="butt" transform="matrix(-0.000000000000000138, 0.749542, -0.749913, -0.000000000000000138, 478.459364, 71.307431)" fill="none" stroke-linejoin="miter" d="M 0.00155085 0.497959 L 189.106709 0.497959 " stroke="#000000" stroke-width="1" stroke-opacity="1" stroke-miterlimit="4"/><g clip-path="url(#aa7dffd3cd)"><path fill="#ffffff" d="M 478.484375 162.695312 C 490.078125 162.695312 499.480469 153.292969 499.480469 141.699219 C 499.480469 130.101562 490.078125 120.699219 478.484375 120.699219 C 466.886719 120.699219 457.484375 130.101562 457.484375 141.699219 C 457.484375 153.292969 466.886719 162.695312 478.484375 162.695312 " fill-opacity="1" fill-rule="nonzero"/></g><path stroke-linecap="butt" transform="matrix(0.000000000000000046, -0.749445, 0.749913, 0.000000000000000046, 537.617223, 250.163883)" fill="none" stroke-linejoin="miter" d="M -0.000239461 0.500011 L 100.063389 0.500011 " stroke="#000000" stroke-width="1" stroke-opacity="1" stroke-miterlimit="4"/><path stroke-linecap="butt" transform="matrix(-0.746314, -0.000000000000000091, 0.000000000000000092, -0.749913, 539.49166, 213.394686)" fill="none" stroke-linejoin="miter" d="M -0.000706448 0.500264 L 81.388849 0.500264 " stroke="#000000" stroke-width="1" stroke-opacity="1" stroke-miterlimit="4"/><g clip-path="url(#25624fa67f)"><path fill="#ffffff" d="M 538.945312 230.609375 C 548.472656 230.609375 556.195312 222.886719 556.195312 213.367188 C 556.195312 203.84375 548.472656 196.125 538.945312 196.125 C 529.421875 196.125 521.699219 203.84375 521.699219 213.367188 C 521.699219 222.886719 529.421875 230.609375 538.945312 230.609375 " fill-opacity="1" fill-rule="nonzero"/></g><path stroke-linecap="butt" transform="matrix(-0.754694, -0.000000000000000092, 0.000000000000000092, -0.749913, 593.509449, 250.539166)" fill="none" stroke-linejoin="miter" d="M 0.0021679 0.500196 L 73.531558 0.500196 " stroke="#000000" stroke-width="1" stroke-opacity="1" stroke-miterlimit="4"/><g clip-path="url(#d5e0562327)"><path fill="#ffffff" d="M 593.339844 267.378906 C 602.863281 267.378906 610.585938 259.65625 610.585938 250.136719 C 610.585938 240.613281 602.863281 232.894531 593.339844 232.894531 C 583.8125 232.894531 576.089844 240.613281 576.089844 250.136719 C 576.089844 259.65625 583.8125 267.378906 593.339844 267.378906 " fill-opacity="1" fill-rule="nonzero"/></g><path stroke-linecap="butt" transform="matrix(-0.754694, -0.000000000000000092, 0.000000000000000092, -0.749913, 593.509449, 175.500316)" fill="none" stroke-linejoin="miter" d="M 0.0021679 0.500479 L 73.531558 0.500479 " stroke="#000000" stroke-width="1" stroke-opacity="1" stroke-miterlimit="4"/><g clip-path="url(#ece60497a6)"><path fill="#ffffff" d="M 593.339844 192.339844 C 602.863281 192.339844 610.585938 184.617188 610.585938 175.097656 C 610.585938 165.574219 602.863281 157.855469 593.339844 157.855469 C 583.8125 157.855469 576.089844 165.574219 576.089844 175.097656 C 576.089844 184.617188 583.8125 192.339844 593.339844 192.339844 " fill-opacity="1" fill-rule="nonzero"/></g><path stroke-linecap="butt" transform="matrix(0.000000000000000046, -0.749445, 0.749913, 0.000000000000000046, 537.617223, 108.822516)" fill="none" stroke-linejoin="miter" d="M -0.00227161 0.500011 L 100.061357 0.500011 " stroke="#000000" stroke-width="1" stroke-opacity="1" stroke-miterlimit="4"/><path stroke-linecap="butt" transform="matrix(-0.746314, -0.000000000000000091, 0.000000000000000092, -0.749913, 539.49166, 72.053324)" fill="none" stroke-linejoin="miter" d="M -0.000706448 0.49824 L 81.388849 0.49824 " stroke="#000000" stroke-width="1" stroke-opacity="1" stroke-miterlimit="4"/><g clip-path="url(#b115fc3246)"><path fill="#ffffff" d="M 538.945312 89.265625 C 548.472656 89.265625 556.195312 81.546875 556.195312 72.023438 C 556.195312 62.5 548.472656 54.78125 538.945312 54.78125 C 529.421875 54.78125 521.699219 62.5 521.699219 72.023438 C 521.699219 81.546875 529.421875 89.265625 538.945312 89.265625 " fill-opacity="1" fill-rule="nonzero"/></g><path stroke-linecap="butt" transform="matrix(-0.754694, -0.000000000000000092, 0.000000000000000092, -0.749913, 593.509449, 109.197783)" fill="none" stroke-linejoin="miter" d="M 0.0021679 0.498143 L 73.531558 0.498143 " stroke="#000000" stroke-width="1" stroke-opacity="1" stroke-miterlimit="4"/><g clip-path="url(#a9ac8ab4f4)"><path fill="#ffffff" d="M 593.339844 126.035156 C 602.863281 126.035156 610.585938 118.316406 610.585938 108.792969 C 610.585938 99.269531 602.863281 91.550781 593.339844 91.550781 C 583.8125 91.550781 576.089844 99.269531 576.089844 108.792969 C 576.089844 118.316406 583.8125 126.035156 593.339844 126.035156 " fill-opacity="1" fill-rule="nonzero"/></g><path stroke-linecap="butt" transform="matrix(-0.754694, -0.000000000000000092, 0.000000000000000092, -0.749913, 593.509449, 34.158948)" fill="none" stroke-linejoin="miter" d="M 0.0021679 0.498447 L 73.531558 0.498447 " stroke="#000000" stroke-width="1" stroke-opacity="1" stroke-miterlimit="4"/><g clip-path="url(#d68acd65d6)"><path fill="#ffffff" d="M 593.339844 50.996094 C 602.863281 50.996094 610.585938 43.277344 610.585938 33.753906 C 610.585938 24.230469 602.863281 16.511719 593.339844 16.511719 C 583.8125 16.511719 576.089844 24.230469 576.089844 33.753906 C 576.089844 43.277344 583.8125 50.996094 593.339844 50.996094 " fill-opacity="1" fill-rule="nonzero"/></g></svg>