<svg xmlns="http://www.w3.org/2000/svg" xmlns:xlink="http://www.w3.org/1999/xlink" width="320" zoomAndPan="magnify" viewBox="0 0 240 561.000005" height="748" preserveAspectRatio="xMidYMid meet" version="1.0"><defs><clipPath id="d0c8984095"><path d="M 0.214844 0 L 239.785156 0 L 239.785156 560 L 0.214844 560 Z M 0.214844 0 " clip-rule="nonzero"/></clipPath><clipPath id="56e134e20d"><path d="M 118.714844 189 L 120.960938 189 L 120.960938 374 L 118.714844 374 Z M 118.714844 189 " clip-rule="nonzero"/></clipPath></defs><g clip-path="url(#d0c8984095)"><path fill="#ffffff" d="M 0.214844 0 L 239.785156 0 L 239.785156 567.488281 L 0.214844 567.488281 Z M 0.214844 0 " fill-opacity="1" fill-rule="nonzero"/><path fill="#ffffff" d="M 0.214844 0 L 239.785156 0 L 239.785156 560 L 0.214844 560 Z M 0.214844 0 " fill-opacity="1" fill-rule="nonzero"/><path fill="#ffffff" d="M 0.214844 0 L 239.785156 0 L 239.785156 560 L 0.214844 560 Z M 0.214844 0 " fill-opacity="1" fill-rule="nonzero"/></g><g clip-path="url(#56e134e20d)"><path fill="#000000" d="M 118.730469 373.21875 L 118.730469 189.933594 L 120.964844 189.933594 L 120.964844 373.21875 L 118.730469 373.21875 " fill-opacity="1" fill-rule="nonzero"/></g><path stroke-linecap="butt" transform="matrix(-0.748521, -0.000000000000000092, 0.000000000000000092, -0.748665, 180.649281, 185.371151)" fill="none" stroke-linejoin="miter" d="M 0.00112632 1.001859 L 162.04462 1.001859 " stroke="#000000" stroke-width="2" stroke-opacity="1" stroke-miterlimit="4"/><path stroke-linecap="butt" transform="matrix(-0.748521, -0.000000000000000092, 0.000000000000000092, -0.748665, 180.649281, 379.871322)" fill="none" stroke-linejoin="miter" d="M 0.00112632 1.002088 L 162.04462 1.002088 " stroke="#000000" stroke-width="2" stroke-opacity="1" stroke-miterlimit="4"/><path stroke-linecap="butt" transform="matrix(0.000000000000000046, -0.74473, 0.748665, 0.000000000000000046, 225.006408, 109.802556)" fill="none" stroke-linejoin="miter" d="M 0.0023835 0.998441 L 68.357727 0.998441 " stroke="#000000" stroke-width="2" stroke-opacity="1" stroke-miterlimit="4"/><path stroke-linecap="butt" transform="matrix(0.000000000000000046, -0.74473, 0.748665, 0.000000000000000046, 59.341836, 185.370902)" fill="none" stroke-linejoin="miter" d="M -0.000257339 0.999122 L 68.360332 0.999122 " stroke="#000000" stroke-width="2" stroke-opacity="1" stroke-miterlimit="4"/><path stroke-linecap="butt" transform="matrix(0.000000000000000046, -0.74473, 0.748665, 0.000000000000000046, 179.160313, 185.370902)" fill="none" stroke-linejoin="miter" d="M -0.000257339 1.001573 L 68.360332 1.001573 " stroke="#000000" stroke-width="2" stroke-opacity="1" stroke-miterlimit="4"/><path stroke-linecap="butt" transform="matrix(-0.751461, -0.000000000000000092, 0.000000000000000092, -0.748665, 92.207866, 134.192352)" fill="none" stroke-linejoin="miter" d="M 0.00111065 0.997828 L 83.692238 0.997828 " stroke="#000000" stroke-width="2" stroke-opacity="1" stroke-miterlimit="4"/><path stroke-linecap="butt" transform="matrix(-0.751461, -0.000000000000000092, 0.000000000000000092, -0.748665, 211.234167, 135.689683)" fill="none" stroke-linejoin="miter" d="M -0.000277249 0.999481 L 83.69085 0.999481 " stroke="#000000" stroke-width="2" stroke-opacity="1" stroke-miterlimit="4"/><path stroke-linecap="butt" transform="matrix(0.000000000000000046, -0.74473, 0.748665, 0.000000000000000046, 14.905731, 108.305225)" fill="none" stroke-linejoin="miter" d="M 0.00072228 1.002476 L 68.361311 1.002476 " stroke="#000000" stroke-width="2" stroke-opacity="1" stroke-miterlimit="4"/><path stroke-linecap="butt" transform="matrix(0.000000000000000046, -0.74473, 0.748665, 0.000000000000000046, 44.97094, 108.305225)" fill="none" stroke-linejoin="miter" d="M 0.00072228 0.998857 L 68.361311 0.998857 " stroke="#000000" stroke-width="2" stroke-opacity="1" stroke-miterlimit="4"/><path stroke-linecap="butt" transform="matrix(-0.745823, -0.000000000000000091, 0.000000000000000092, -0.748665, 45.718245, 109.05414)" fill="none" stroke-linejoin="miter" d="M -0.000677663 1.001051 L 41.16085 1.001051 " stroke="#000000" stroke-width="2" stroke-opacity="1" stroke-miterlimit="4"/><path stroke-linecap="butt" transform="matrix(0.000000000000000046, -0.74473, 0.748665, 0.000000000000000046, 74.917556, 109.053891)" fill="none" stroke-linejoin="miter" d="M -0.0010697 1.002334 L 68.359519 1.002334 " stroke="#000000" stroke-width="2" stroke-opacity="1" stroke-miterlimit="4"/><path stroke-linecap="butt" transform="matrix(0.000000000000000046, -0.74473, 0.748665, 0.000000000000000046, 104.98276, 109.053891)" fill="none" stroke-linejoin="miter" d="M -0.0010697 0.998722 L 68.359519 0.998722 " stroke="#000000" stroke-width="2" stroke-opacity="1" stroke-miterlimit="4"/><path stroke-linecap="butt" transform="matrix(-0.745823, -0.000000000000000091, 0.000000000000000092, -0.748665, 105.730065, 109.802805)" fill="none" stroke-linejoin="miter" d="M -0.000541519 0.999269 L 41.160986 0.999269 " stroke="#000000" stroke-width="2" stroke-opacity="1" stroke-miterlimit="4"/><path stroke-linecap="butt" transform="matrix(0.000000000000000046, -0.74473, 0.748665, 0.000000000000000046, 134.929378, 109.053891)" fill="none" stroke-linejoin="miter" d="M -0.0010697 1.002195 L 68.359519 1.002195 " stroke="#000000" stroke-width="2" stroke-opacity="1" stroke-miterlimit="4"/><path stroke-linecap="butt" transform="matrix(0.000000000000000046, -0.74473, 0.748665, 0.000000000000000046, 164.994585, 109.053891)" fill="none" stroke-linejoin="miter" d="M -0.0010697 0.99858 L 68.359519 0.99858 " stroke="#000000" stroke-width="2" stroke-opacity="1" stroke-miterlimit="4"/><path stroke-linecap="butt" transform="matrix(-0.745823, -0.000000000000000091, 0.000000000000000092, -0.748665, 165.74189, 109.802805)" fill="none" stroke-linejoin="miter" d="M -0.000398951 0.999269 L 41.155891 0.999269 " stroke="#000000" stroke-width="2" stroke-opacity="1" stroke-miterlimit="4"/><path stroke-linecap="butt" transform="matrix(0.000000000000000046, -0.74473, 0.748665, 0.000000000000000046, 194.941204, 109.802556)" fill="none" stroke-linejoin="miter" d="M 0.0023835 1.002053 L 68.357727 1.002053 " stroke="#000000" stroke-width="2" stroke-opacity="1" stroke-miterlimit="4"/><path stroke-linecap="butt" transform="matrix(-0.745823, -0.000000000000000091, 0.000000000000000092, -0.748665, 225.753713, 110.551471)" fill="none" stroke-linejoin="miter" d="M -0.000259595 0.997486 L 41.156031 0.997486 " stroke="#000000" stroke-width="2" stroke-opacity="1" stroke-miterlimit="4"/><path stroke-linecap="butt" transform="matrix(0.000000000000000046, -0.7449, 0.748665, 0.000000000000000046, 29.561202, 133.891832)" fill="none" stroke-linejoin="miter" d="M 0.00161987 0.998298 L 34.18197 0.998298 " stroke="#000000" stroke-width="2" stroke-opacity="1" stroke-miterlimit="4"/><path stroke-linecap="butt" transform="matrix(0.000000000000000046, -0.7449, 0.748665, 0.000000000000000046, 90.321698, 134.189295)" fill="none" stroke-linejoin="miter" d="M 0.00240971 0.999931 L 34.177516 0.999931 " stroke="#000000" stroke-width="2" stroke-opacity="1" stroke-miterlimit="4"/><path stroke-linecap="butt" transform="matrix(0.000000000000000046, -0.7449, 0.748665, 0.000000000000000046, 148.577154, 134.189295)" fill="none" stroke-linejoin="miter" d="M 0.00240971 0.997861 L 34.177516 0.997861 " stroke="#000000" stroke-width="2" stroke-opacity="1" stroke-miterlimit="4"/><path stroke-linecap="butt" transform="matrix(0.000000000000000046, -0.7449, 0.748665, 0.000000000000000046, 210.486553, 135.686626)" fill="none" stroke-linejoin="miter" d="M -0.00117344 0.998873 L 34.179177 0.998873 " stroke="#000000" stroke-width="2" stroke-opacity="1" stroke-miterlimit="4"/><path stroke-linecap="butt" transform="matrix(0.000000000000000046, 0.74473, -0.748665, 0.000000000000000046, 180.570305, 378.374226)" fill="none" stroke-linejoin="miter" d="M 0.00103914 1.001773 L 68.361628 1.001773 " stroke="#000000" stroke-width="2" stroke-opacity="1" stroke-miterlimit="4"/><path stroke-linecap="butt" transform="matrix(0.000000000000000046, 0.74473, -0.748665, 0.000000000000000046, 60.751821, 378.374226)" fill="none" stroke-linejoin="miter" d="M 0.00103914 0.998997 L 68.361628 0.998997 " stroke="#000000" stroke-width="2" stroke-opacity="1" stroke-miterlimit="4"/><path stroke-linecap="butt" transform="matrix(0.751461, 0, 0, 0.748665, 147.70066, 429.552755)" fill="none" stroke-linejoin="miter" d="M -0.00191793 0.999147 L 83.694408 0.999147 " stroke="#000000" stroke-width="2" stroke-opacity="1" stroke-miterlimit="4"/><path stroke-linecap="butt" transform="matrix(0.751461, 0, 0, 0.748665, 28.674381, 428.055424)" fill="none" stroke-linejoin="miter" d="M 0.00186305 1.000799 L 83.69299 1.000799 " stroke="#000000" stroke-width="2" stroke-opacity="1" stroke-miterlimit="4"/><path stroke-linecap="butt" transform="matrix(0.000000000000000046, 0.74473, -0.748665, 0.000000000000000046, 225.006408, 455.439881)" fill="none" stroke-linejoin="miter" d="M 0.00204771 0.999907 L 68.362637 0.999907 " stroke="#000000" stroke-width="2" stroke-opacity="1" stroke-miterlimit="4"/><path stroke-linecap="butt" transform="matrix(0.000000000000000046, 0.74473, -0.748665, 0.000000000000000046, 194.941204, 455.439881)" fill="none" stroke-linejoin="miter" d="M 0.00204771 1.001512 L 68.362637 1.001512 " stroke="#000000" stroke-width="2" stroke-opacity="1" stroke-miterlimit="4"/><path stroke-linecap="butt" transform="matrix(0.745823, 0, 0, 0.748665, 194.192785, 454.691)" fill="none" stroke-linejoin="miter" d="M -0.00184838 1.002325 L 41.159679 1.002325 " stroke="#000000" stroke-width="2" stroke-opacity="1" stroke-miterlimit="4"/><path stroke-linecap="butt" transform="matrix(0.000000000000000046, 0.74473, -0.748665, 0.000000000000000046, 164.994585, 454.691216)" fill="none" stroke-linejoin="miter" d="M 0.000255724 0.999768 L 68.360845 0.999768 " stroke="#000000" stroke-width="2" stroke-opacity="1" stroke-miterlimit="4"/><path stroke-linecap="butt" transform="matrix(0.000000000000000046, 0.74473, -0.748665, 0.000000000000000046, 134.929378, 454.691216)" fill="none" stroke-linejoin="miter" d="M 0.000255724 1.00137 L 68.360845 1.00137 " stroke="#000000" stroke-width="2" stroke-opacity="1" stroke-miterlimit="4"/><path stroke-linecap="butt" transform="matrix(0.745823, 0, 0, 0.748665, 134.180962, 453.942335)" fill="none" stroke-linejoin="miter" d="M -0.00170902 1.000542 L 41.159819 1.000542 " stroke="#000000" stroke-width="2" stroke-opacity="1" stroke-miterlimit="4"/><path stroke-linecap="butt" transform="matrix(0.000000000000000046, 0.74473, -0.748665, 0.000000000000000046, 104.98276, 454.691216)" fill="none" stroke-linejoin="miter" d="M 0.000255724 0.999626 L 68.360845 0.999626 " stroke="#000000" stroke-width="2" stroke-opacity="1" stroke-miterlimit="4"/><path stroke-linecap="butt" transform="matrix(0.000000000000000046, 0.74473, -0.748665, 0.000000000000000046, 74.917556, 454.691216)" fill="none" stroke-linejoin="miter" d="M 0.000255724 1.001231 L 68.360845 1.001231 " stroke="#000000" stroke-width="2" stroke-opacity="1" stroke-miterlimit="4"/><path stroke-linecap="butt" transform="matrix(0.745823, 0, 0, 0.748665, 74.169137, 453.942335)" fill="none" stroke-linejoin="miter" d="M -0.00156645 1.000542 L 41.159961 1.000542 " stroke="#000000" stroke-width="2" stroke-opacity="1" stroke-miterlimit="4"/><path stroke-linecap="butt" transform="matrix(0.000000000000000046, 0.74473, -0.748665, 0.000000000000000046, 44.97094, 453.94255)" fill="none" stroke-linejoin="miter" d="M -0.00153626 0.99949 L 68.359053 0.99949 " stroke="#000000" stroke-width="2" stroke-opacity="1" stroke-miterlimit="4"/><path stroke-linecap="butt" transform="matrix(0.745823, 0, 0, 0.748665, 14.157317, 453.193669)" fill="none" stroke-linejoin="miter" d="M -0.00142999 0.99876 L 41.160098 0.99876 " stroke="#000000" stroke-width="2" stroke-opacity="1" stroke-miterlimit="4"/><path stroke-linecap="butt" transform="matrix(0.000000000000000046, 0.7449, -0.748665, 0.000000000000000046, 210.345346, 429.853299)" fill="none" stroke-linejoin="miter" d="M -0.00233116 0.998697 L 34.178019 0.998697 " stroke="#000000" stroke-width="2" stroke-opacity="1" stroke-miterlimit="4"/><path stroke-linecap="butt" transform="matrix(0.000000000000000046, 0.7449, -0.748665, 0.000000000000000046, 149.584841, 429.555821)" fill="none" stroke-linejoin="miter" d="M -0.00152202 1.000318 L 34.178828 1.000318 " stroke="#000000" stroke-width="2" stroke-opacity="1" stroke-miterlimit="4"/><path stroke-linecap="butt" transform="matrix(0.000000000000000046, 0.7449, -0.748665, 0.000000000000000046, 91.329383, 429.555821)" fill="none" stroke-linejoin="miter" d="M -0.00152202 0.998245 L 34.178828 0.998245 " stroke="#000000" stroke-width="2" stroke-opacity="1" stroke-miterlimit="4"/><path stroke-linecap="butt" transform="matrix(0.000000000000000046, 0.7449, -0.748665, 0.000000000000000046, 29.419996, 428.05849)" fill="none" stroke-linejoin="miter" d="M 0.000138821 0.999273 L 34.180489 0.999273 " stroke="#000000" stroke-width="2" stroke-opacity="1" stroke-miterlimit="4"/><path stroke-linecap="butt" transform="matrix(0.000000000000000046, 0.74473, -0.748665, 0.000000000000000046, 15.654398, 454.691216)" fill="none" stroke-linejoin="miter" d="M 0.000255724 0.999309 L 68.360845 0.999309 " stroke="#000000" stroke-width="2" stroke-opacity="1" stroke-miterlimit="4"/></svg>